<mxfile host="app.diagrams.net" modified="2024-01-24T01:13:53.525Z" agent="Mozilla/5.0 (Windows NT 10.0; Win64; x64) AppleWebKit/537.36 (KHTML, like Gecko) Chrome/120.0.0.0 Safari/537.36" etag="KzMaCIsLDL5v2HHoVt3w" version="22.1.21" type="github">
  <diagram name="第 1 页" id="GcrNvst_PpiNvorq7mOm">
    <mxGraphModel dx="1434" dy="758" grid="1" gridSize="10" guides="1" tooltips="1" connect="1" arrows="1" fold="1" page="1" pageScale="1" pageWidth="827" pageHeight="1169" math="0" shadow="0">
      <root>
        <mxCell id="0" />
        <mxCell id="1" parent="0" />
        <mxCell id="zZQRdpbe90_NpqsaF6SU-1" value="" style="shape=image;imageAspect=0;aspect=fixed;verticalLabelPosition=bottom;verticalAlign=top;image=data:image/png,iVBORw0KGgoAAAANSUhEUgAABIIAAAKTCAYAAABlz6NoAAAgAElEQVR4nOzdB3hc530m+hfTB4NB7yAAkiAJ9t4pqpGS1S3Jslxlx3Hi9NzrbDb3eZIn99mb7O71zZO7m02y8d3YSRwrLnJkWVbvokRJ7L0XsAFE7x3TcM/7B4cGacmiJJJDYN6fnhGIwZkzZwY4c77znv/3fRmjDoiIiIiIiIiIyKTnSvUGiIiIiIiIiIjI9aEgSEREREREREQkTSgIEhERERERERFJEwqCRERERERERETShIIgEREREREREZE0oSBIRERERERERCRNKAgSEREREREREUkTCoJERERERERERNKEgiARERERERERkTShIEhEREREREREJE0oCBIRERERERERSRMKgkRERERERERE0oSCIBERERERERGRNOFJ5ZNHIhFEo1HE43GMjo6mclNERERERERERD5URkYG3G43vF4vfD5fqjfnI0tZEDQ4OIgnn3wSzz33HFpaWiwQEhERERERERG5kTEAKikpwX333YdHHnkEmZmZqd6kjyQlQVAsFsNTTz2Fb3/721i1ahU2btyIQCCQik0REREREREREbliw8PDOHz4sGUaLpcLn//85+HxpLTD1UeSMZqCPll80x577DGUlpbi7/7u767304uIiIiIiIiIfCJ/8Ad/gObmZjz++OMTqrglJYNFM3tid7A5c+ak4ulFRERERERERD6RuXPnWrYx0cY8TlkQxIGiJ1JiJiIiIiIiIiKSxEyD2YaCIBERERERERERuSEpCBIRERERERERSRMKgkRERERERERE0oSCIBERERERERGRNKEgSEREREREREQkTSgIEhERERERERFJEwqCRERERERERETShIIgEREREREREZE0oSBIRERERERERCRNKAgSEREREREREUkTCoJERERERERERNKEgiARERERERERkTShIEhEREREREREJE0oCBIRERERERERSRMKgkRERERERERE0oSCIBERERERERGRNKEgSEREREREREQkTSgIEhERERERERFJEwqCRERERERERETShIIgEREREREREZE0oSBIRERERERERCRNKAgSEREREREREUkTCoJERERERERERNKEgiARERERERERkTShIEhEREREREREJE0oCBIRERERERERSRMKgkRERERERERE0oSCIBERERERERGRNKEgSEREREREREQkTSgIEhERERERERFJEwqCRERERERERETShIIgEREREREREZE0oSBIRERERERERCRNKAgSEREREREREUkTCoJERERERERERNKEgiARERERERERkTShIEhEREREREREJE0oCBIRERERERERSRMKgkRERERERERE0oSCIBERERERERGRNKEgSEREREREREQkTSgIEhERERERERFJE55Ub8BkMzo6iqGhIXR2diISiSCRSKR6k+QKuFwu+P1+ZGdnIysrCxkZGSndHv4d9fX1obe3V39HIiIiInJF2Ib1eDzWns3JybF/i4hcTp8MVxFP1js6OvDee+9h245t6O7tRjwRT/VmyRXwuD3Iy87DwgULsXbtWpSXl1s4lAr8Ozp37hzeeecdHDl8EH093UjEYynZFhERERGZODIyXPAHMzGtZibWr1+P2bNnw+fzpXqzROQGoyDoKhoYGMBLL72Ef/7BPyM8PYxQcQhurzvVmyVXIB6Jo76tHtt/uB0tLS348pe/jLy8vJRsC6vJfvjDH2Ln5ldRng0Uhn3wulNboSQiIiIiN75EfBR9bXFsPrYbRw4fwm//zu9i/vz5qd4sEbnBKAi6ingC/+IrL6JgQQFu+fNb4M/2p3qT5CMYaBvAnn/ZgwOHDuDEiRNYuXJlSrbj0KFDOH70MO6YE8LnVxUjL+RNyXaIiIiIyMQTiSXwxpFufH/Habz77rsKgkTklygIuoo4lktrdytq76hVCDQBhYpCKKgpQNuJNgv1UqWtrQ3u+CBmlgQVAomIiIjIR+LzuFBV4EdxsNvalTcyDonAXhUcFzMajdo4mSJXW3I82Pz8fHWVvEBB0FXED7KRyAi8OnmfsNx+N+IZcTsQpQoDRTcS8Lr1dyQiIiIiH53X7YInYxQjIyOp3pQPFIvFUF9fj23btuHosWPo7e9HQkGQXAMelwsF+flYuWKF9fq4ESYHSjUFQSIiIiIiInJdNTc348dPPIGXt29HRkkJ3OEwMjTLmVwDiWgUsePH8eqmTfjjP/xDbNy4Me0rg7SniYiIiIiIyHV14MABbD94EOE770TxF78IT3Z2qjdJJrFIUxNO//mf44knn7RZotM9CErN/NgiIiIiIiKStrq6utDn9yNz7lyFQHLN+crKEF62DOcaG61bYrpTECQiIiIiIiLXFcfF5KicrkAg1ZsiaYLdDwcGB21s33SnIEhEREREREREJE0oCBIRERERERERSRMKgkRERERERERE0oSCIBERERERERGRNKEgSEREREREREQkTSgIEhERERERERFJEwqCRERERERERETShIIgEREREREREZE0oSBIRERERERERCRNKAgSEREREREREUkTCoJERERERERERNKEgiARERERERERkTShIEhEREREREREJE0oCBIRERERERERSRMKgkRERERERERE0oQn1RsgIiIiE9NgJI7Grgja+iJwZWSgIs8Pv8eF5t4IsvxulOT4kOm79tec4olRROOjcDYBXlcGXM6NeodiaO2N2s+Ks73Iz/Ii45pvjYiIiMiNTUGQiIjIJNY/HMeJliELaxjMzCsPwePOsHCkvnMYdc7P3M73lfkB1BQH4brCpKTPWe/2U714cX8HjjUPItPnxoNLCpGd6cHPdrVhjvM8Dy8vwrTCwDV5XTFn+9v6ojjbMYx257UNRhIWRoX8Lkx1nnN6URB1rUN4Zk8HugdjuH9JAW6dnYuMDEVBIiIikt4UBImIiExiLb0R/GBLCzYf78aGuXn4s/ur4Xa50dA1gsffbbEgp7oggMfWlVpo43J/eFAyOgqcbBnCj7e14lDDACoL/JhTlolw0IOWngj2nO2Hz+PCUCR+TV7TUCSBI40DeP1wF9472YvzzmthVRAx5Pr0kkJ8/eYy9AzGcLRpAO39Maydke1suLPAVcyBIrGE8/5G0eg8f1G2D1X5fnt+ERERkRuZgiAREZE00zMUwzvHuvGWc8vN9GDjvDyrlrnSECOWGKsmOtE8aF2uPrO8CHctyLcqo5/vbr+m287n2F/fj8ffa8bO033ICrgxf0oI+SEPMpz/eodjyA56cCEXuqYYMD23twOvHerEfYsL8ejKIuc9dF/7JxYRERH5BBQETWZOI3g02RJ22vYZV1rv/wFiTuN6qHMIbp8bmYWZV2EDRUTkehuJjeJAfT9e3N9p3atuqc3F3QsLLFChhHPc6BuJo2sghpFowsbdYbBSmOW1oIhVMOyS1dwTsXVl+t12G3KW9X7AcYZjCbF7VjwBGzOI4ROxe5k9j7NOt/PYnKDbxvHx/IrjFat/XtjXYSFQUdiL2+fm2Y3VTOz21dQ9Ys+TfD2X63OOZb1D8QvP50HQ2R5WODEc4/YEvC7bDlY00YDzXnT2x+w1UKbfhQJnG/nenWwZxO4zfTjTPtY9jVVWpTk+hAMe62LHKiW+vrHXPmrbxMfyOcbel4SNY8R15YY89pXL8v3htqkXm4iIiFwLCoImK6dRO9A6gMZdjYg7jdcMp/EeyA4gd3ousqdkf6wxEri+U6+fQmZRJmbdM+sTB0siInJ98drAufZhvHyg08KLxVVZuH9xIabk+y/8fBRnO0aw6WiXja/D8YUYmJTn+bFuZg4WOcsz2HjzSDe2nOy1cKO1N4KX93eitSeCldOzf+k52Y1r15l+vHuiGwGPy1kmB0umZqG+YxhvH+vG6bZhC1sYMlUWBHCT8zzzKkIXw5Lx+HwMsXad7YPXWdfNs/PwxTUlKMn2XVwmXPrBFyp4aeTw+UHrJsdwi1VQs5zlWWXEYGnbqV7UFAVwc20uypzX3NQ1gu2n+rDPeU6+bl5Uqcjz4e4FBegejOKVg50W/tCec/0WJG2Yl4fVNdlIJGDd1/g+8b2OOtteHPZihfMeLZ8aRl7IY78LVmWxCxt/F+39URtv6VPz8+29VDczERERuRYUBE1So05jvvNkJ7b9/Tb4w36r4In0R1C+rByLvrIIgdyPPnjnSO8IWg+0IqcqZ6w1LSIiEwqrTRiCbKnrQWW+H/cuKsDCytDFn8fisCDi1UNdyA16EPC50NoXtZCEwdBv+cqRHXBbVQ4rghgcMeg51zFswcb8KVmXPB/DkBMtg3hyRyt2nunDmppsbAy6wYjnQMOABUqsfmH1TWN3xEIXhiNfv6UMc8tDuBwraBhUtfVGMbUogCVVWSgeFwJ9GFb+MHh66UCnhUezyzItCGLAdLhxAM/tbcfqGgZeYeSG4njtcBd+tLXFupxxAGqfJwPtznMzuOkYiDmve8RCLGp33qd4fNTCMgZLB+sH8K/vNuOU875VOO81K6HePdGDfef6Eb+5zEKoJuc93HS0Gw2dwzjcNICRqPN+RuMWAvG9vaoDGomIiIhcoCBokmMIVHNHDapuqsLhJw/j/M7zKFtWBm/Qi7jT2HR73RYKBXIC6DjRgcHOQftZ3tQ8C3wiAxELlFgNNNg+iOhQ1NbL5XrO9VjAFC4No/tcN6IDURTUFmDUaQB3nepCX2MfPAEP8mfk23Z0nOyw9fhz/CiYUWBVSt1num15l3MSECoOWbWSiIhcfcwVGDh0OZ/VDG+mFwewqubSqhMWek4vCuAr60oxsySIkN9tIdD33222IGjv2X48tKwQd8zLs3GCnt3TbjORcXwgVrnw3wcbfvGcrX0R7K8fwN5z/ZjlrI/j6Mwpz7TKpNqyTHxtfZnNVMbqH4YkP9zagqNNgzh0fgBzykK/1DVqcCQ+1pXKWQG7WHF8omsVlbAC6GjjoE0/z9DmS2tKUJ7rR6fz/rH7WmXMj2HnfXzGeQ+4zcuc189udrOd18dKKoZIfB1rZmTjc6uKkR/y4oltrTY495aTPRZCJQ1HE+gbimPtzBxMyfPbe+9S1e214c1kX/mrs67owNiOJSIiMsEoCJrkWBnEsX3YPcztNOjdHjcGWgZw5q0zViHE4CZ/Wj5Gnf/ObDpjgQzHFcqtzkXtA7Xob+7HoX8/ZPd5/B4MdQ3Zehn0HPzxQUxZMwXTN0zH6TdOo/t0N5b91jJ0n+3G8eeOI+Y01nMqc+yxiXgCp147ZdtDZUvLEC4L27oTTgO4YGYBKtdUKggSEbmGWHmTfWHsHAYcdW1DNshyMnTgNPJluX6raDnbPmxj6XBQaAYyDGEYgnCa+HlTQqhrHbbHcSybxVVhLJ0axkAkcfG5WCmz9WSvTTHP57hnUYF1mWJXM56GsyKJhwQGTOxSxaoibkW/87juAee45fzQc1kSxCPIxUGgR6/tOTi30+/NsPGKWP3Erl98XxiUMYTia2eF0jsnemx5Vgytr82x8GyH85pPOe8tx/zh95xJraM/agGW1+2y18rvx2MI9GV2c8u58gon+RhKFgGZBfjE1VajceDU60B85KpslohMQs5BKtrVhWhbGxLDzjEzGIS/vBzurKwPf6zINaYgaJKLDkbRtKfJBnke6h6y4CZcHrZKH1brTL15qgVCR54+YsHMgi8uQMv+Fhz9+VELjhjS8Lb8t5ZjoH0AB350wNbLKh5WByXY6B9lOyhu3zM4Orf5nD1m2W8uQ7gijN76XlsfK4Zm3DXDtqdxRyPKV5Tbc2cVZ6H6lmrkTctL8bslIjJ5MVOxsGJWjg1+zC5gT+9qR3HYh2lFY92FWW3DypyX9ndaeGHj9DiPY1coBjAMMq40e+G6+Bzs8rViWti6eiXH/WFV0tvHevDqwU7rUhW4MGBz73DcBqu2qeDf54n4+JDfBZfzYjieTnNvBAtGxyqZrjZW/ayqyUGTs/3Hm4fwz283oYpjGDnvH8fwYUXVB2G3sb4LlUvvXegOxvcxGhuF23kL/B7XJSEWAzr+bti9Tq6x0sVA8Xznj+YTvtfRYTgNHgVBIvK+RhMJDNXVoefttzF87pz1lXaHwyi4916E5s6FZgOQVFOLY5LjoNDJbleVayud9k8p+lv64Ql6rHtWxaoKnN9x3qqGcqfmIm96Hoa7h636p+98H1xsdJeEUDi7EO7TbmQWXDoIZ/KUIFnpE+mLYLhz2CqBiuYW2Qxj/U39GO4adj7/ElZRxK5oDJ1cTmvYF/LZchUrKq77eyMikm4YpCypDtsYOxz7ZteZPrywvwNfXF1is1Zx/Jyf7mizMYA2zM2z0IPVOuz+tOds/0d6ruyAx7o4dfZHbVwfzq5VWeBH2Dm+HGsawk93tlkgdMe8fOuixgoZTj3PAZY/CKtrOHB1bqbbZgfbdbrPAiZ2p0q2qXk4YpD0YW1sjsGTDGO4PKt3xk8573NnWJcwDvDMqqZDjYM46mwbu3dxvJ/SnOIPXDcfyy53rCbiuElzyzMv6eqVl+lBWa4Pfc1jVbZeT4aFQ6xCiidciEQ9iI+yIikGrzuOvqGA8z5mIuiNIi88iBHn540dufa1qqgTOaEh1DUVoaU7G8W5vZhS2I2RiPP7bClE90AQ86qaUJTThxONxTjXlo+C8ABmlLc6rz8Dh86WO7+HTCybcRbFzjLHzpegvi3PWb7flkk423PAWabHWWbFzDMozO7H0YZSNLTn2fLJ9Rw/X4z+YT8WTj1v29PgbF9nX8j+XZbXY8tw+7jNlYVdCPii6B0MYCjis39nBUaQ4bQpYs7zed2cre7G6XIVi8Vw5ozz2gsL4fV60dTUhLKiPGSOahQnEXl/0eZmtD35JIaOH0fm3LkIVFVZOOTy+8d6bHR12S3D7Ya3yDlnysxEfHAQ8b4+ZDjLJPrHjrle53OHlURx5/toeztGo1Fbno/jfe6cHLgCAfsZ7+N6Yj09Y+sYHrabz1l+1Pkci3Z2whMOw5OXhwyPc5wZGLBqJR4MvSUlv1iPy2XPw+/d2dm2Xpl8FARNcr4sn1X9LPjSgov3MQjiwJec9YtBkT/Lb+EMxwLiLGNth9usOxfH9mEVUeeJTjRsb7BqH96yK7ItXKKesz1oOdBioZE9X9hp0OUHbPyghm0NCBWGrCqJYwlxXaxGYuVPIC+AwY7BqzKtvYiIXDlOA3/rnDzrFrbpSDfeONyFyjw/7pifZ12/OAsWB3BeWJWFOeUhG+SZg0x/VKGA2ypqGHAwSHr5YKfNxMVZwTjVenN3xMIQDq5cW5qJd0/22BTuv4rXnWHBD8MVVtqwWxbvY5CUF/JaNRG3lVPC177P7GEMhzwXQpqewbjN5lXTOWKDNp/tGB6rRLqAXdu6nHVVFwYwtyKE/fX9+O5bTRaesYppKJqwSqRk4MT7zrbHbfDqgqyg8z77UNcSQNg3Hcurw6gqHAtwzrUVoW8whIzRFudRZzE8VIO29jLUNfrRXdONeNyDTQdqcaa1APcsP4D51Y3YfnwqXto9DzPLW3H/iv3OtvnxvdfXWPjzv3/6dayZfQpv7K/Fi7vmY/28k/jc+h3oHQziX51ljjWW4M8efcGCoHcOzcDPty3C0hnn8GsbtjjP5cIPNq3EwXPl+K9fedqCnbcPzsJz2xdgRe0ZfG3De842e/H4G6st/Pmrrz1lQdAb+2Y7zzUPa+fU2XoY5vzTqzfhpLM9XGZhqAEvOdvyxr5arJ59Gl+4eYezjBfffeUmC4j+7LMvoqasDa/tm4M9dZVYPL0edyw+iqERL17ZOxfDEQ8eWrPXnmvnyWoLprh8bUULIjG3sy1liDrbvnhaAzL9EQuYBoZ9yA8PIjtzyEInvtcMmFxXIVDqd062Hn/8cdx5550WBvHfj33hUczgFf5PvHYRmYz69uzB4JEjyL3tNhQ99BA8ubl2v1UKHTuGni1bLJhhCJM5axZy1qxBpKUFPe+9B1dWFuLd3RYK5W3YgMDUqbY8K4t47pa9dq0FNf379iF3/XoEqqvR/cYbcIVCVm3U/dZbgMtlVUgj58/b+hnmDJ44AW9eHgruuw+uzEz0vPOO/Xw0EkGwthbZy5ejy1lPvKcHiaEhhBYtQvaKFerKNkkpCJrEvE5jn6FLMD94yf3sEpZdmY1Q0diMLOy+Vb3eaWi9V4+TL5208YQ4hs/0O6bbuD+s6OH4QawSYmVR8sZKHv68eW8zXE6jO7so28b44bpOvnwSp149hZzqHKsmYpc0jkvEoMmf7UfR7CIbNJqVQ5dvn4iIXDtjXcTGZgzjrFcco+fZfR0ozfUh6HUhL9OLlt4IXjnQidOtwzjdPoS2vuiHr/h9MOjJD+XZc3DQ6Of2dKAo7LXKnpxMDxq7R/DS/g6rAjrZMmTVQx+GVUZ3L8y3wOdo0wCe2tWGLXW9NgsYgxyO58OBmzmw8y+9dudW7mxTqXMc4ixhnP6dYyBxsObkGEVJfM2vH+6ygZ+LwkG0dmeipbMCYX+bva72nkLsO5OPprYcxGKHsa1uFOdbp6EgcybuWHQMi6u7sPP4LPzkrXU4db4Ly2ZutRnBth6ah77+GfiPD2+CL3gWA4Pz0di8HkfPtqFz8VZ43AlsPzEVO09UY9G0BguCOnqz0NUXwsCQH7G4G0FfxKp6WHHDiiGqLu60YKQsr9sqanJDQ5g9pRn52QMWqNh7V9GKOxYfQZWzLCtwEqMZWDPnlD2WIRDVOo9hiDKtpN1CFp8njnVz6lBT2o6i7LFlZlc2W+VSTVmrLUOzKlpsnVmBYfue/y50njsc5FhSCQudGAYNjfjseYlVRUfqy1CW3+O8Lhc6+kMWQrFq6aa5J227X9i5AJsOzLRgiJVEfMz/fO5W9AwG8Te/+RNn2zvwsy2Lnd/FFNy19JC9Pr5fz++cb+/lZ9ftsqqkHc572t4bcn4PYRQWjY1TdaVGRkawxTkJmz9/vvNaXHjPOVG77647LlZDi4iMN3ohgGHVDUOYZAhE8d5etP385xipr0fW4sWIdnSg/ZlnrPqGgUz35s0I1tTAX1FhYZJVAw0M2DKenByEly+3qp/Bo0ctNOL6Oe5Q365d8Obnw1dcjF7n8yrD50N46VIMnTqFgUOHLGhKOJ9lHS+9hMzZs22dHc8/j5DzucZQqf3pp+F1trNvxw7bNlYxubzesUBJJiUFQZMU02KGLHM/M9e6do3HEGfm3TOtWog4Y9j0jdOtW9hg26AFNXk1eQjmBa2Sh93BhnuGbTm2kr3OSQIDn7kPz0XX6S5b3mYhi8QtXOKNVUM9DT3W9St3Wq49V86UHPQ1jc0kxoCIj5l5z8yPNZW9iIhcGVbkTMn3Y3ZpJipy/Ta+DsekWViZZTOAvbCv05Y70jiIdbNycOeCPLx5uBun24dt5qzpxUGsm5GDMx3DFrbwFJ7r4Hg2rLqpLgjYuD3ECcgKwl6bEavKec6Qz4XphQHcv7jQumENR+M43jRoVUAb5+XZVPYnWoZsvJ/pRUGsdp6nsWsEhWHfB/a5Yfe2dTNz7DW8eaTLBrVm97XmnhHrWsWBnDnmUaazTeGgx/l30NnW2Nj4Oxljs5XdNicf0bgbAyNRHKgfQVFWBdyJbORnNjnvVQQN7SU42jAVbx87j/7YfudxgzhzfjlaOxdYtc3qmlM4eHoqnty8Et3D9c5r7Ecs0Y89dbXIiC3Gsund1rWutaMQb+wL4HSb8xpHOuD3jsDnP41lZUBpXi+icGNe9UlkBfuxbh6sasfvjePX73gXn1m7GzPKWu01b1x8BLcsOG6hS9C5eVwJ/IeHXr3kfblzyWG7jfdbd799yfcMV3gb74u3bL/k+5vnnbDbeF++bdsl39++8Kjdkhi0/OH9b1yyzOdv3mG3JAZCf/rZF61ah1U79Mi63bhr2UHkZw3aOtgd7H974A0MjvhQUdBty6ydXYeqwk4Ln1jhw2BqjvPvgZGxLmU0MOxH32DAuprFExlo68nCa3vnoLUnbO8J1/2z95Zg58kq/F+35ONYyzYEnDbIgHMi1NPTgwrnhIshT2NjIxoaGrBs2TLrArZ161aUOydYwaAuWInIlbPDl3OcZHesRCRiwVDGhUCFVT/Dp09boFP86KPWNevcX/81hs+etcCI4Uv2mjXIWbXKxhhicMR1BaZMQcz5Nyt17IrOh/R/Di1YgMIHH0SsuxuDx48jb+NGC38YIMX6+jCwb99YNzN2E3Oec9B5Lq6b28oQqvQrX0Fw+vRr/2ZJyigImqyczwZW2rxftQ2nci9ZUHLJfQxsLr8veX/xgvcfB4Fh0AfN8pU/M99u4xXOKbTbeKoGEhG5thiA3Dkvz6pkWI3j84w1HlmRw7CCXZ9Gogmb/Yvj4Xx6SSFmlWbaANGFzvfsNsZBnNn1iZUwDFs4Pty8ikz8xs1l1gWsIm+s+obdtJZUhW0MHFYWFYV9yPS7bUas8jyfBTacRp0zkz28rNDGzuF9DJhYqcMqH3bH4vrcv6KRy4oiTtU+ryKE061jQRIHZva5XcjP8jivKYhc50R/Sp4ba6bl4kxbNrJ8EWB0EF195ejrWYnS4ABqao6jIj+GbUduwTtn5uK2RW/jzvl7sO/kVLy88xZkh5rx8NIIMgO92HtyCprbC/HAknzUlDShp68bGxY5jeusThTkOe9hLI5IZC/C/jOYX9WOsvwAvnHHWWxYeMrZvj5n+xhiBVGZvxdVhUcR8rnR0R/AY+t7MRztRk1x0Pmd+KxtP7ey6ZLXmx/+4HGTJgoGOL6swUvuK8/vvuT7POfn7G42HkOw8Vix9H888tIl9/3mpzZbFZPXeY6QP4KpJR34k8+8jP6hAAouVEOtrD1t4ycVhPz4b9/9vo1TWFlZiVOnxmY0/aM/+iPs3r0bL730Er71rW8hHA7jO9/5DjZs2IBbb731A19XXXMR9tRVWdDFcIzbwConVkEx7MsODmlMWMIpCP4AACAASURBVJF043Ih4Hy+dDufLX07d1qVDsf6YcVPYnDQQiFW5/DGcIZduBjGWFjk3FhJxK5cNjYPL96UlFh3rl5nXZ2vvGKBDccG4uM4rhDDHo4FNH4WAldyHc5XjkvEddv3yQ8k5/vkY30VFci75Rb4p0yx5TzZ2fYYmdwUBImIiExiDE04xs3l2BRk9Qxvl+M4PuOV839l4x87Ns182WXdrxgSVRX47TYew6i8UPiS+8IBt42nc8nz5F15w3PU2Qavi1U85ajKH3FO8vtwviPXTsrPt2RgSU09CsP9aO1cjld3LELQtR+LqrfhZFMx3jqw0sKVldNGUFPahq6uBPrm9OGeJS7M4+xmrhbkZ22yZWZXJBAKeHHv4l1OA3qnBQ187zi4Mm+/wDGJOi/cxhRkJZwbl37/iyYf9P7LR5OdOXzJ9/a7vSw8e3D1Xvs6UlyNyPAAQtm5eOihh9DR0YG//Mu/xMGDBzHonBTxNmoDiY/av6PR6K/sAnasoQT/68X1KMgewJrZdRYE/d2zt2Ew4sNv3PEOVs8+ZYN0bzs2HYU5fbhr6WF43HEcPFtu4xeVF3SPVUNd/bdFRFIoi+PrHDtmQVC0tXVsgGevFzmrVyM0b55V+3AwaY4T5A6FrIsXB3l+PxHn8RwYmgENB3pmOGSDSPv96Hn3XVs/u5j5SkuvaNsYBmUtXIiRpiarWmJlEKuROKuZBoZOHwqCRERE5IbE7ls8B+c4OF39IZxoKrIxZmaUtdn4MW8dnIVnti3Cujkn8ej6XTZL1k/eWWYn2Pw5x70J+UdsbBkbJ2c0Awuqz+MP7nsDQX/UQiCOpfOV27fiqxu2XpypioMy8zZermfw/TZRJqgZM2ZYt68856TK75xMsZsYZzelZBB0JWMAsXqLXfkSF2Z5IwZRfa0Bm/mNDp0rt4GyOabShoXHLAj61pN32WO++enXsGzGOew/U4G9pypRmteDjYuPwu1K2H3sDshuckHfxxunS0RSw1dWZoNEM5xhVzBW//iys+EtLkb+vfeiZ/NmjDQ0WJhT8MAD1pUrcv48cm+91bqBcYyf7JUr4XK+Mihi965IU5OFSLm33GLrZ3UR72cwlHPzzQhOnWrVR/x5YNo0WwfXy21ggMTBpNlFjINL+ysrxwLvI0dsHQyiWCWUvXq1bROfUyY3BUEiIiKSUhx4uNfGeAlaF5u8rAEcOFuBtw/OtG4+HLOGAwj/6K2VNhDwY7dvtfs4LgzHh3G7Rm3smemlbRbqMDji4MU8ieY4NLxx4GCquHBiPZ667qSfkydPYt++fTYVPAeDZjex9vZ2+zfvDwQCVhH0Yfj3ydt4f/GlZ9A9EHT+/qJwO393S6bX448ffsXGNGLFEDGk7OjLsi5ztPd0Jb7z8k02OPjtC48hkXDjv/7kHoQCI9bNbVZ5C/Y5yxxvLMGUwi6rPuKfLcPPnMwhu7kv/I2LyI3BX1WFYk4bH49bt61k1y8KVlfbeDzWFezCfaz4yZwz5+LjOcZPEgeWti5krNi5sDyDpovjD407kDEESsq7/fZLtqns61//xfrvvx+jd99t/052Qyt6+OGr9fLlBqcgSERERK6rjr4QzrQUWAUFZ6zi1N8v75lnFREcZ+W+Ffut68wTm1fYGDHLas4hN2vQvg5HvVbhw5Pqe1ccwIZFR60Cg+tiiDTlspDHo5NjeR/d3d3Ytm0bmpubcdNNN9lg0V1dXXbfrl27UFZWhmnOyVRRUZFVDM2aNcuqh7KyslBbW4tQVggZ/e+fILpcozaVfVJNWZvdxvtvv/HvFhaxqyEr2FbXnrow69qIVQOxGi4vNIiugUybcY3eO1KDH729AuvnncAaZ3kOmP1XP/0UCrP78If3v2mDje89PcXCUs76Nr203aqOONOczxO7dm+miPxK79vdalwAdMXruHw9GRmfuCsXxxCS9KTfvIiIiFwznDL8dHMhzrYVoLKw0yoe9jknq6x+mFrcgV/buMWqIpo7c9DdH7w4GcqqWWdQEH4eUwrHxlBhdc/U2y+tvMjLUnct+YgSUc7tjLm1s7Bi0RxkLJ6D2bW1KMwJoDinDL/+5c9aIDR92jQsnT8TpSUlyM1047HPPYiqqioEAwF89fMPYUpxLlwtn2xT2C0xqbaixW5JflcMf/ONJ9DZF7JujdwnVjj7BLuVVRZ1WTdGDpDd0RtCXVMRYve8ZY97dvtCbNpfi4fX7MHv3bfJfv79N9c4+1I/Prtut7MfjaC+PR+xuAtFOf0WnoqISPpRECQiIiKfCLt2JRIZ1u2lqTMHO09WW1etJTXn4HUn8NLueXjZufHklEEQxzuZWtxpFQsMeNhN5rHbt9jJLgd4pverohD5xFoPApFeeAYasTi3CzlZQaB/n3Mb+/ECjvnNW+QIpnDy02gX0ASs4qSngwecG7Cak6l27xkLla4hVrmV5f9i8NgVM8/YLSk3NIi//vqTaOsJoyS3FxzRiGNgjUS89jh+3zMYxFPvLbF968HV+5AYdeHf3lyJs62F+PTqvbh7+UGrINp6bBoKwgNYVXvaKpQiMY+qiEREJjEFQSIiInLFGPBEYm77yi4sRxpKrcsKu2vdueQwTrcW4AebVsLnjVslw9yqpouVDgumnrevPJldPuPsxfFSqDz//WdLEbma3M27saHGjZLsLvgb3gK8V94140bDLmhVRZ12S2LYw1sSq344ZhHHI2JwxNDW7+yb/cN+G4Cd+zHHGfp/n7rTZjV74k++g2jCjR++tcJ+dtPck5hR1mrjd3U7t/ysAYSDI6l4uSIichUpCBIREZEPxC4kMefE0OeO2Xgl245NsxPHhdMasGLGWew/PQXff30N7l5xELcsOI6K/B58Zt1uG/tkakm7nXxyLB/ekjRuj6SKx52BL60pSfVmXDccRJrjaCUxvP29e9+0YCjoi9iA0xyc/e7lB6yrGcOlSNSFTQdqcbq5wCqNON7QlqPT8cz2hVhQ3YjfuectG8No18kqhALOfl7crnBIRGSCURAkIiIiFzH4YdUAu4XUNRfj1T1zbBwRDtrcOxTEm84J4vHzJSjO7YPfG8XymWfxzQdfs8ofztZVXdxhNxG5MQV8sUtmzptR1oY/+cwrF7/nfvzbd79l3Ty5XwMZFvwwPDp8rsyWGRrx4v958i5kBUfwxw+9Yl0+D9eX2XhFrFBaWnPOluNnCcMnERG5sSgIEhERSWPs/jE6CgxGfDhwpsJm7uJ02HctPYhTzYX46XtLsXBqA1bPPoXinF48sna3zdzF6aw57sjsKc12E5HJgcHN6trTF7/nWEO3Lzpm1UDsFkqs6ptb2YSBEb/9O+rcz6qhH1+Y1YxBEMcn+udX1tl09wySOeh7/5Dfqo44O5qIiKSOgiAREZE01N6bZV07egaCWDStwaa73nZ8Gn723hI8uGYP7lp6CHOcE73/8NCrmFLQZWP4cGDnVeNOEEVk8mP3sZB/BKGSX4Q3/Cz4z489jcERn405xLho0dQGmyWQ44UxYO4dCODJd5c6ny1jg1Bz8OuntixBY0cubl1wHGtmn7Kxipq6slGU3W9BEQeqFhGRa09BkIiIyCTHk7KW7jB211XZVO1r59ShxTn5+plzUsYgiCdq1cWduHX+MVQXdWBeVaM9jid0vImIXI4VgRwjKIlhTzIoZpVhbmgIf/75560yiAPHxxMZFgK9e2QGinN7sXzmGew7PQXffeUmqy765qdfA+cpY9dTVhmVF3QjW9Pbi4hcEwqCREREJhmO88Mppc+25dsgrjzJOn6+FP/jmQ2YVdFilT4FzokZB3DmFfg5lc0I+KJYPL3BbiIinwRDonDmMO5adujifRwv6Cu3b8VtC49ZhSErjdgNjQHRqZZC5zGj6BnIxD+8cAuiMY+z7BasnXMK5ztycaalAKV5vfb5JSIin5yCIBERkQmOnSkGh33o6s90Tr5GkHBOrF7dO8fG97lpzkkLgngF/s6lh1Fb0WzdOvKyBnH/yv2p3nQRSRMMfThe0JRxVYYrZ52xwaU5RhmrgDhQ9dTiTgt/GBxxJrPtx6bin169CSucZf/iS89Yd7LNh2bajIT8bGOXMhER+WgUBN2gBjsGcfbts4hH4qnelAnBn+1H0dwi5FbnpnpTRESuC4Y9PFHyeuLW3eLprYvQ0J6PO5YcxtKaeuuyUVPWhllTxq6ga1BnEbnRMBwaP4MZQx2OS9Y9EETAG7OflxX0WDcydi+jzr4Q/u6525AXGsT/+YXn4HOWYxezjt4sqxiaWd6aqpcjIjJhKAi6QQ00D2D/v+xHyB1CXn5eqjfnhtbT3YNIKIIFjy1QECQikx7H++HVclb88Ar6/Sv2o3cogBONJUjYtO9x5GQO4Z7lB/CppYc0O4+ITCgMfwrCAxe/XzenzgaWHol67fuQ85nGz7ZYzG2fbxyw+pU9c7Hj+FQ8tGYvppe2o6E9D28dnInpJe1YWXvG+VyMpejViIjcmBQE3aBGR0cR8AWwbMEy3HbbbanenBva1q1b8c7hdzCa0EwTE1FHfxTdgzFEYqMYhX6Hk1HA40JuyIP8kDfVmzIhseqHV8BPNBbble9lNedwri0fP9i0ErUVLVg/75jz/rbh7hUvISNjBDnhbhxpSqR6s+Uq8zn7UV6mBzlBDzzujFRvTlpq6Y2gdzCOaEL7V2oN4I5lzzqN5Qx0DQHDPT7nc+8gqstaMZJoxP76YWw5EsbfPL0KC6e14k9Dh51lfTh5fr6zH2Wgoug0QsFfHmsoIyMDQa+zn4XG9jMRkclMn3I3MK/Xi+rqatx8882p3pQbWmdnJ7Ye25rqzZCPaCSWwI5TfdhxuhctPRHnewVBk1GG81/Am4HibB/WzMjB6prsVG/ShMDwZ2jEi/ioCx5XAu8dnY7vvnwTltTUY/G0elQWdeLrd76LKQWtaO5pw976FtR3jmAwktB+NEn5PS7bj5ZWh7F0apZOVK+joWgCm491Y/fZfrt4EY1zH9N+dmM5DU8IONYBHHrbjYb2YcR9MRxty8D33jmHweEi7Dw0C+6MHMyZ3oiC3HYMD0/F0HANAv6zyAwdhss5XmX6XajI82Otc7xaVJWV6hclInLNqBUhIimxv34Aj29phSu/BhWzqlEYCNjVOJl8BgcHsb/uJA69dRbFYS+mFwdTvUk3NE61/M7hGdhdV2kDod6z/KB1f6id0oKlNeec088Mm9L9CzfvwKnWIfzLu22o689C7dwVyAuFtB9NUiMjIzh6qg7Hd52H152BVTXZ9lWuve11vfju5haU1ixC2dxy+Hy+VG+SfIhpzm39xe/uQSKRhfKFBYjF8hAKrXA+J8tx5Egtth+Zi5KSk/j0zTvR3p6BZ1+IwpvRgFMtDSjI8mJKvj91L0KuitFoFHGnHTIaU/fAySDD64WbbR23O9WbMuEpCBKRlNh8vBtDnnw89sijWL58OYLBIFwuV6o3S64ydnMdGBjA3r178a3/8hd4+1i3gqDLDEW81u2rtScbs6c0WQXQ4XNl2H2yGjPK2hD0RbF+3gmbXSccHL74OFYl1LUO4UinB/c+cA/uu+8+hMNh7UeTEPcjBkF79uzBP/3Td7GvvgtzyjPtRFWuvRf2d8CXU45f+7WvYcaMGfD7/QpcJ7RKZ38CTp50O/uUGzk5Zbj33jU4dAjYtCmC5ubdONT0/+GNw1FU5SzAsPMZvWDq+UsGtZYbX7y/HwOHD2PQuUW7uiwQkokvw+eDNz8fWQsXInPuXLgUzH9sCoJEJCXqO0ZQVjkPtbW1yMvTgOiTGU+aVqxYgcKiYtS1dn34A9JANO7G0IgP2ZlDaO7KwT+9chOanK+/c/dbNigqB4Bm+MMxgIgDQPM23kg0gba+KDLDeRamFhUVpeKlyHWS3I9eeOEFNLe2oG84riDoOmHgumjtXMyaNQtZWeouNBnw3HHJkrEb4MLoqA8VFcBv/7YPx49XoO6IGwfqR7Hn6CKcbS3Eb9y5GcW5fTY+25H6MtSUtWJWeasNbC03Hlb/9O3cie6f/hT5vb0ozc+3ITcU4E58vCjSsHUrWnbsQOnv/i4ync9lVQd9PAqCRCQlhp2T2HAgCI9HH0PpgI2vkHMCNTDUkepNSSnO+NXAqd63LEE07sJjt22Dxx3H1JIOzK5stivOAV/U/v1hYolR24+4D7GiTiY//p55MjMcSyAW1xg118vASMI+v3QSOXnxV1taCnz1q0BdHfCt/wx444NYv+A4GjtbUJbfg5GIBztPVOPbL9xiQf1/+uJz1pX3SH2pTXtfXdSJTH8k1S9FHNGODnRv3oyqaBQPPPKIhbjq0jk5MAg6ceIEvv3tb6PH+R0HKivhVkD/segMTERSRo3q9MHfdbr+vkeiHtS356N/2I+FUxvQ2p2N53fOx8zyVusWVp7fjW98ajOCzgmEK+OjndwrCkgvF/ejUf3uRa6Vsf0MFu48sGqf3ZcYzUAk5rGp6e9edhBFOf1WDXS+Ixd/88xGFGX32ec4x3Jr6crGsPO5z7HcGOzL9RdpbUWkuRkL582z2ZdVyTe5sIsuq2PrjhxBYmREQdDHpCBIRETkGuGJw566Knz7xZuRHx7Ef3nsaVQVdeL37t2EaSXt1tXA4044t5FUb6qIiHwAhvQBbxQrZp7BshlnEYuPdUXJyRzC0unnrMKT1Z2dfZl48r0lOHyu3EKk+1fux+CIz7k/hNK8Hvu8l2tvdHjYAgIGQKFQKNWbI1cZK6Hz8/NR194OJLRPfVwKgkRERK6SmHMy0NiZi32np8DvjeHWBccRibltOnjOADY6ChTl9NnJgYiITDwMhXyesRmo2J33jx58FYMRnw3s3zsYsGohdhHrGwpYRei2Y9Pwo7dXYN2cOnzhlu1gbSwrhsJBXQC4VjjAPg+4nDwhXauRJzv+bvl7tt+1fCwKgkRERD4hBj2RqBsJp4m/62QV/vaZ27Fubh02Lj6CZTPO4T/lP4fqkg543fEPX5mIiEwYrPLJvjCjY0F4AI+u24UNC4/C44lbl7J4IgP9QwGbHRLOMeJUSwF+9NZK62Z2u7PclEJNoiAi15+CIBERkY+J0wrvP1NhV3xL83rx6dX7UFnUhbuWHcbaOXW2TCgwghnlrSne0okjkUggEokgHo/b4J4cHLm/vx+9vb02WHJ2drb9rK+vz76y9D8zM9OWGRwctG4AXI5XCbkuXjV0a0YREblOfN6YDS5NnCBg9ezTdlzgv72eGIZGvDh0rtxmIFtacxZZzjFi58lqtPVkYfH0BsypbErxKxCRdKAgSERE5CPg1d3BET84XG884cbuuir8+7vL8OhNO627wNKac1g49fzFrgPpLBqNWmDD0vxwOGyzfdTX16OnpwcVFRWYMmUKjh07hp07d6KyshKLFi3C0NAQ3nvvPbS1tWH16tV23759+/DKK69gwYIF2LBhg4VCmzZtQmdnJ2655RYsXboUe/bssfsWL16Mm2++2YKhbdu22fOvWrUKs2fPxsGDB3H8+HFMnToVtbW1FhSdP3/evpaXlyM3N9dCKIZIDKAYIomIfFwZGaMW9NRWtNj37MTCSqD/+PDLdiGBA0r3DgbxzuEZ2H58KoYiuzF7SrMNQs3ZyGaUt9m4cpqmXkSuNgVBIiIiV4hjPmw6MAs7nAb74un1uGf5QayadQb54QGsdL7S+PEjJjOGJ8PDw4jFYlaBwwDl1KlTaG5uRlVVlQUtDHlefPFFlJWVWYDDCh6GNbz/U5/6lAVBTU1NFvzMmzfPZgLh+rq6umw9DHGSxo/1kJw9a/xsdAxvGDxxm/g8DJ0aGxtt/VwvnTlzBq+++qoFQ9xGBknPPfccuru78eCDD2L58uXYunWrhUoLFy607/m6zp07Z49ngJSXl2fPw+flgJUiIleKn1bZmcMXjxfkco3ijsWHrXJ0RlmrjSvHCwz/49nbcfvCY/jmp1+zCxDtvVnW9YyPFxH5pNSCERER+RWiTqO8sz9k0wBHoh4cOFuB/WemYElNvd23pOac3SYzhiGs0GltbUVOTg6mT5+Ouro6C1XYNevWW2+1blw7duyw6p077rjDgiCGMgMDAxYaMahht625c+fabB+sACJW6nzpS1+yLl9cN8OVu+++27p5cTliVRCfMxAI2HJcz7333nuxaxixKojL+P1+qz5iOHXffffZekpKSmyZ+fPn2zqKi4ttHQyd5syZY0EQH0MMnxhoFRUVWeDDIIlhFl/LQw89ZM//zjvv4MiRI/ac3Da+Pwyv+NzcZn4VEbkS4eCwjSnHG3G2ycqiTty+4JhNS89qoGMNZfhfL91s1USPrNuN6uIOG5uO486x6kiuPh4feDGBVaP8jOdne3V1tR0DJipW3PKCCI/nPCbzNdXU1Fj36uuFx1hW5vLYzHYAq4NZgSvXn4IgERGRD9AzGMTzOxZgx4lqbFh01G73Lj+Am+edwMJpDanevKuKYQ1vDGI6OjqsGxWDEAY3DFW2bNmCN998E2vXrrXAhY04NiY5/g4fx0CGVTSlpaWYOXOmrXPWrFn42te+ZqELQx429thtazwuz9t47KY1HtedDHyIz1lQUPArl+FzsYJnPH4//j6+rmSglMRqoWnTptn2Mhzi87AyiEEQG81ctr293d4fBkwMl1jh9MYbb9gJAiudWG3EoIjhEN8Lvj51MxORK8GK0iXT622myeGo12agDPqjCAUiVhU0HPGguSsbr+2dYz9fP/cE5lZpXKGriYHJ9u3b8dZbb1lwwXCfn/f8fJ+oQRAv5Lz++us4cOCAVbTyOMrX8uijj9ox63rgcfSZZ57BiRMnLo4D+IUvfMGOuRrL7/pTECQiIjJONO5GZ2/Ipv/lGA7HGkqdRneONcI5PfCiSRAAMbhhyDN6YXpdXp3jeDrswsWGLgMehj5sLBYWFlrXKoYZrIBJdrNiGPTYY49ZmMLuUqy0YWAyHhuZE6HRPL4BytfLWxLfE96S2Hhdt26dvQ9cjq+fYwtxmWTjmiEZu5jxPWUjmxVIfI95479ZhcT3he//+O5tIiJJDIB4oxllbfjjh19B/5DfZhlrvDCG0OnWQhtDiGMJHT9fjDOtBZhf1WiDU8vHw8/lw4cP42c/+5l9Nq9Zs8YuAjC0SE5WwEpRBiuspGFFCy8a8AIBK2B5MYXj4PHYwOMCQyReXOFjWGXE0IXrYNjEYwiPGewKzQsmXB+Pvzye8jjCG7tQs6szn4/bwWMIn4PPx3VyWW4Dv7KCicd0Bi7cJi7PZXm85zh7r732mo21xwsYvFjC7eDz8qIFb3x+Pmfy4gy7RfM1MQTjje8Hx/njY7huPoZBGV8n/83n4Xr5Gnhc5EWd8dU+rCR+6aWXsH79evvZ9773PWtL8PnGX8iR60NBkIiIyAW9gwE8t32hDdq5cfFRm/79M+t2IRZ3Y351Y6o372NjWTsbkmy8cVwchhRsMHJgZVbx8N+8+slqGDZUWQVz2223WQOOjTU+jgM385YcF4eNzGR3qnTCRjvfk/FVS6z6YWOdjWA2/vke8r3l+8YGOhvmDQ0NePvtt+3KJx/L3wmrrDioNYMldjng45JhkohIkscdR1leD5A39j1nqfz8zTutQmhmeSsGhn024PQTm5fb7JW/f++biEQDGBjKR2DUl9qNn2D4Oc4JDDgpAYP822+/3UIg4uc2x7TjjcdUhkbsBs3u0awSZfdoHhcZijBkeeCBBywwYSUOj70MWngMPXv2rIUs7EbN4wTHqmMFLUMRdkXmNvA4wG5pDI54XGGXZV50efjhh207WK3E0IbbwS7KS5Yswcsvv2whDIMghi08ZjNg4X3cZnbF4uNZ8cpleFGIAdL+/ftt/D4eqxhcJV8Pu5ElZ9/cuHGjbd9Pf/pTqxRmde/u3bttuc9+9rO2/pMnT9o2MqTi6+dzcfy/ZBjESlke55KVxQyFWFHL16Eg6PpTECQiImmN4yz0DAStHH8k6sXxxhK09GQjKzhiYwBxBrCJJDlocnIQ59OnT+P555+3hh+rffgzXtHjFUg20NjA5Vc2whhasPHJ8XE4G9d4Ghj5gzG8GT/GAt/TlStXYsWKFRd/zrGQ2MDmcrxSyivGvDrKhjarixgEcewh3sertcnxjPhYdSsTkfFCgRGbsCBpYMRn1ar9w35U5HeBRYb1rdOx7eACzA3m4bxzGHM+3uUKMFhhcMJAhwF/MgQiXjRheMFwhCELP68ZyLCyh+HOoUOHrIKIYT+rb/g9L6y8++67ti5W4/B7hiYMRXjxhZ/vDFN4bOB6+G8eI3gMOXr0qF24YQjDgGXXrl12bGB1KY8drMLlMZ4XGfhYLs9jO7eNVTbJAIbBDI85fD6uhxW/DH8YKDHE4eviurl9DHlYEcXt52thEMWgiq+bkyrwcayMYluCFzjY1eyee+6x94L/Zndrvv4f/vCH9rr5+OR4fwzI+H7y2MavfM28GDK+e7ZcP2rViYhI2mKj+eXdc/HekRqsn3cSdy07hM+s3W3dwyZSBRAbUQx+2IDlYM179+61sXDYOONVTTYYebWRIREboclAKDl2DQOgCp0lXHXju3zxJIC3JAZr/P3wKjFDIOK/OWMZG9m8yszAjt/zhIQNeAZ0IiKXC/kjWDP7FJbPOGvHL85e6fVE4XV7nONCsXN8YDcfOCfmcE7CORYax2JL9VbfmHhM5OczK2bYfSvZhZcYmDBUYcXsXXfdZaENwxd20eIxlZ/d7ELNz2pWy7DShcdehv0MaBiw8DjAIOlXYZUpq3JYBcTKIQY+PD7w+Ti5AcfYSR7zeXxIVvcQjyecKGH8eHgMhPi62M2Lj2M3L4YxDGpYkZocH5BVPjfddBP+4R/+wS5c8IIQj0VsQ7BKit3A+H58ELYpuA5+ZYUR3y9uY1JyTMHkjdvC7dDFjtRQECQiImlldDQDw1GPNZRHIh4cqS/DqZZC3LnkMALe+6Jg8wAAIABJREFUKBZMsAogNi5ZDs4Sc16F4/e8MpfsusSuSL/+679uVwEZArFByJJsSS1eCWUDezxefeVJQnJWM55EsGyeV065LKu2eLLR2htB90DMaUhzjCeNLyQiY7yeuN2oovAsls2pQ7DqJpSVzcCRI8Drr7N7E8BMOTeXwQaPiQDHCtZkh2MYTDBEYeULq334+cuKWl5wYajBwIQXWHhjOMP7WX3LMIaBRvKWDI94LGaVDNfHmTYZFvGzPTmrJj/TGTiNx8AkeeMxO1kZmvzK+/gYHkd4jGc4k5wdk8HQ5bNwMZjhxR5eWGBQxK7LDHU4jl0SH8PjDp+T6+V2sYqIr5PhU7KKh8/P71nJw68Mc5K4Tbyf7RCun8ez8dvC7/m62eWNz8OxkxhEcd1y/SkIEhGRtMHBn7cdn4a3D83EspqzuH3RUdy/cr/NBja+zP5GlHAaem19Uew63QevOwMLq8b607MhycoRNr7YeGPlCK8mJgc4ZgOWN7nxXT4wNQO7z3zmM3aiwSvMbEDblPY9EfQNO41v5zxj77l+C4aqCpyTl8IAAl5dWRURhgkRZAYbEcw8C/ZuqqwEvvAFOMcKnpCPhUCPPz729XOfAzZu5EQCY8FQOg9TxoCCx1FW+bC6ll2vGMIz0OH9HFePXb4YdrCrE4MVdv3l+EDvhxdmeGtpabEgJTmIM6uDOIMWQxqGJleKoRMvGrCah9VIrLpJjsPzQRMPsA3AKqGnn34aP//5z61rGkMsLs/XdnkQxdfJ7mccMJs/ZxuDlUIcY4jTzbMy6YknnrDucOO7dfH94HNwfQyIli1bdsnYP+x6xuMaX3cyeGK10/Wcvl5+QUHQJMEkmCV2yXK9ZBr9SdbHnZkfgvyAunya3muB28++qsRyRM2iIiJXU2I0A0MRL947Oh1v7qvF/Krzzklz7IadBSyeGEXnQAz1HcMI+tyoLQvifNcIntrVhpklmagpCdpyvAq4YcMGKz1nw0rdvCYPjhPBWxKDIP6OS3J8yA2xqi0DJ1oGselIN9bOyEFR2IuBkTjqO0cQDrhRkedXMCQihsO0OIeKi1paAE4CyfN4BkDOxwu2bAF27oRz0g9wEsjLCkvSBsMdDnTMSkyOF8RzFFazMMRgIMRjLO9nty+GMMnZNBmU8MZg46GHHrJxe/iZzcoXntdwWXYd43kOQxDOBMYKUIYrXAf/zfCfz8HAh92sGBLxOM8wh4NXc5sYJrHKlyEQt43BEgMXVh7xcZdf/OE5Iccc4uNYZcoLSNwePo6vgRcg+DhuO+/nzJaf+9znLAxiFRQriDjmHV8PXxeDIFZGcTwhPj+3m49jtVNybCJue/K1JvF1cLp4jo/E9fKiFUO0yyuY5PpQEDRJJMv7ODYEd0TudPxQ4WBh/KD4qBgEMQFndwOeYFzrIIilhZyxhmWT/GDhyPdMo1UqKKnG8l0e8HjASg4IywMXD7hXGlayPzlnWWCfcu6XV2NGIAa1HJSPV1x4EGejROHpL+NA0I2dOXj74ExUFHRjVe1p3DLvBBZUNWL17FOp3rxfEokl0DsUh//Cyfv2ul68sL8DS6rDmFOeibIcPx5YUogpdoI/9nfEv0U2ID/OZ/31wkYnxzngvpDcj/g3m2w8XgleTeUYBWzg8vhwNRqOPNZxvRzwkg1UNvRv5P2Ix0S+7tJsH8KBsSbc4qosZPrcKM/1I+j83RxpGsTTu9qR6Xfhc6tKMK0wgMbuEYT8bmQH3RYeyeTEqkB2/SCe+PFEkyd0/ivs88P9gRcAn3rqKRsUdvyYVp8Ej1OsKGD1ANulatvdGNiT6LOfBXp7x8YNikbhtP2BZ58dC4aWLWP7BWhrY7XiWFeydMH9h2EQBzpOjr0zvrsXAxPeP34w/+Qg/0kbxqVuDDu4f41fx5133nlx/KHxxx3en8RqmfHG75Ncf3IbkjeOK/RBWI3E2cVY0XT54xjesG2bxOMMn5tBzuXbzaoeBlqXbzexPcKBrfn+jH/M+Pc1OVtp8ntJHQVBkwRPVtlA5owjnC6QDVuWM3JH52CUH7Vhy52e/UI5DSDL+q4lNhB4os3R6PkBwu9feOEFO6lJflCIpAoDF858wAY1/z65b/EAyKsyV9rdhkHnT37yE7uSxL7cnzQI4v7+/e9/364k8SDKPuy///u/b1dqbuST2FQYGvHixZ3z8a9vrMGXb9uKWxcctwCI4wPdaNjt6+UDnWhyTtrXzMjB0qlZyM/yYEl1FhZWhmyZslyfBUHUPRj7Vau7ofBqKGcgYXk8wx9evOAVz7vvvvvildQPwzJ2zozCx/G49EmDIJ40c5YUrpMBFcvmJ2Kgyuow3lgQzE0vzvZi2bQwBkfi8Lkz0DkQxc93t9vXh5YVYXbZWAm+yxrxKd54uar4d/yd73zHjjUMWzgOB0PTL37xi1d0wsW2H48rP/rRjyyw+aRBULIt+eyzz9qFSo41wpNIBUE3Dv4qkr8OFuU7pxDgNQWOIcSmCquDvvc9gBMgsvvYVcoGJwweD96vzfZB93+Q99v/3i9IuRrbdjUf90GfG+93P9u3rGDlhZ4PW78CoBuDgqBJhlc0WcrHK6/f/e53bcR6HsjZD5UnrQxZ2K+Uo9DzoMyuWBwQLTmdIB/HPqe8esuDN4Mk9vNkv1eWQDJk4oGcV5yYkvNKE9fFah420lmZsHbtWlsPH8P1s2yQFT68j6WAbLzz6hRLFFmSyMY4+9py23hyzTJHXo1i6SIbDFfyIZlwZyHuTqNLFXLdsBKIszNw5gT+zbKy55VXXrHZIrgv8G+cf88ct4NXQLjv8GSXf888KF5eTcfluM/wMVye62fpbbKyh2W7vHLK5dhY5s+5j44/aHJ/efHFF/GNb3zDDrh/9Vd/Zfswt2mincReC9GYG3VNRRiKejG7ogVTizvwyNrdNisY3SghUEd/FO+e6EEsPopb5+QiGk+gZyhqJ+fs1hP0urF0atgqPtg1bCLj3zH/rvl3zvJyHpt4jGCFHI89PN4kuzRzn+Gxh1U6PD4wOLq8qxvXx3CJ+0lygEye9DJgYok7H8NjEh9PrDRlUMrS9yT+jI9hBQSX/ShjNNyIkrt+ZX4AZbl+DEcT8HtcGIrEUZDlRWN3BJHYqC33+uEuNDnfL6zMQm1ZplUSycTH9hrbexx8lZUJ//iP/2hjcTzyyCM2ngnH8uBxhcctHp/4d88LftzvGMiyW8d43M94PEtOo819hMdDLs/uKTyOcb9Orpf7d3IGPGIQxP2M45jw2MiKoPEDy8qNheMIsSgkWRjCcNn5KLXwh9VC/Oxwmi9Om3+smxmvE1+HkSNkguA5Io/JGpNw4lAQNMlw/AAelNmw5QGYVQwMVFjRwCoGXiVi9c3zzz9/ccAyXqVlY4B9OXlyyYCIB3jex0YAGxYMfnggZ6DDdfNEmIESG9U8MWaVBIMhfgDwpPb111+3hgZ//uabb9q2sNH+4x//2E5+eTWXyxKrG/hcyYHY+D0bGVyeJwMfmloH8zGUtx71AwsQbmx3DlqtTqNfDQ25uth4ZWOX+w0r1fi3zSo2/r3zPp6oMozhPpScXpOhJ8PN8VNtMjTl/sM+1jxYslKIJ8G0ZcsWfOUrX7F9kmERG9bJ/ubjgyDuj2yAswSY28ErwKwAZDlxul9l4Wxgmw/NxHdeWo/ppe34v3/tKdy28BjWzT2JUCCS0m0biSXQ2BWxr6zKYBD02qEuG9dlxfRsFDtfWe3DSo3ibJ81unkiP5kkp4vl3y+PGSxHZ7D5xhtvWIjJk01ePODJJk9AicvyxDY5Vg73J15UYHdoBknc/xgs8T7+jPsVB7VkyLN161a7j8c+lquPD4J4/OOFCz4vq4ImE48rA1n+sWOnN+jB3QvzsdL5Gyt0/sYynP/aeqPYcqLHupRNKwrY32KT87fJaiJWnfkm2d9dumH7ivsa951kFw4emxiusl3IsIbLcLDXZDDDiwqsHEri/dwv2J577LHHrE32b//2bxfHcmQ1HQMmtifZLmQbjvvj+CCIz8v9lsc77uc8rsnEwWMQC/M5ASWb7M7HtVUIOb9ycGxfhkT8yrydVUXOR6qksavVlVSuHx3pJxkGMhzhnSeK7AfKcIeNAV4NZV9PNqbZuGZ1Dw/MPEll+MIGNQ/SvLHKhwN5cXmeiLIRzQYBD/78N0+G+W+GTjwJZtDE5/nqV796sRqIjXI+lg0ONsZ5hYrrSPYN5VgpyUY915f8GUOfZH/b8SfPv1IihsTIMFqbcp2T4cXONs1yTsSzPvxxIh8BG7BsFHP/4d82/0bPnDlj+xorEhie8mSWXTS573FfSFbucF8hNpbZ8ObJKA+YfCxDIZ4QswHNaUV5Aswb9yEGQNwfWSXHE1rO8sCuamyQcx1s5DNsYgM+GSalK44F1NaTZQc1r3ts+txVs05zUiX7d6pCIH6MseKH4c++c/34n6834Nk97VatwZPyB5cWWviTH/LYuECs5uAAv5wVbDLiMYpVpxzfip/9/Bvmffyen/0MbLiP8W+ds2SxCo/BKvct7gfE/YjdIXkc437EY87mzZvtmMF9hvsPA1fezwsfDIo49gErEnjyyn2JJ8Tch1htx+qhyR6gZgc9Fviw0ozW1+bii2tLxqrNnL+7k81D+Mn2Vjy3twMd/THEEqPoGojamFUysXA/4IU7XoTjhcHwhbNzttd4XOE+xuofzhzE/Y6hKfcz7hccF5LYbmT1Do9X3A8Z2HKf5H7HfYkXPhgA8bjI9XI9XC+PYzwucllW/HHfZUDE6qTxIaxMHM7pgwVAnHGM12WnTRubeeyee8a6jzm/fvzt3wL//b/D+TtI9daKyEehiqBJhldCeUBnaTwbuOx6xbJflvvyQMwDOqt8kpUGbISzLJ8Hch6w+TOWz/PElveP72bCxsX4GxvxyVHn2Sjg43jCmwyMGPQkZxxj2MTGO+/jCfP4Mn9uAxsI7GbDaiBuA3Gbr6hxPtKLYN92FIf8SARvw7FjrGbKdxolp1QdJFcNG7ms+OHfME8yOUgfA0zuc5ylgSeTbDRz32OlDu/nySsb5GxoE4Mf7o9f/vKXbV9kNR33Gd7Y8OZ+wgq85P7zwAMP2H7IRjWrhbjP8XkYmPLffAxvvLLL0DUdcSawps4cPLF5BVq7w/jTR1/AyllnUJjTjzlTmlO2XUPRBI40DuDQ+QFU5QewdmaOVVkUZnmxoDIEl/PRmh/y4va5N+4Az9cCjy0sH+fJIqvYeOPnPP/eWWXK49cPfvAD+xvnchxgk+OeMGBNztzCk08eH7hfsTslA1QeX3jCy32BxxM+nsciHgO5HMc74ckq910eZ/g9t2WyB0Dvh4f1yny/3ZKqC/1YMyPb+RvNsBCSM9W9sL/TgtRPLy20cFImBrbJuN+wcpUXAVnRw27DxPYYZ0LifvT3f//3FtywUo7tLnYh44QdvAjInzPIYWD6zW9+08Ic7j/cv3i84rGPx6tkG5D7EgeXJoayDFzZzmQb8PLuZjKxsQro7rtxcUwy5+PUZhbr6ODENWPVQceOjY03NG8e2/Kp3mIR+SAKgiYZHuTZPSQ5LklyfIRklU2yEoFXfng1hyerLKdnRQLLeXmw58kq72cDnSelyYoDNsLZ4GZgxNCGDYxkQ5pdWViRwJNWHvR54wC5fC6euLIxwP7p40fXT2Ljnc/P7WBDhOvhunnV6UrHO/FgAGWFp1G4KB+nT09D4/ly7O1ZjCmVDc66zzmvp8dZ140xLohMTPxbZ+OaJ5ysYOA+wMAmWZnDv2v+LSd/xoY0q3e4Lyb/5rk/sKqBjWQ20hnesEGdDGbZkGbDnMtzn0vO9ML9gye2fD6e2Carh3jFlsuwayW706TjSS2c3bpnIIifbVmM5TPPwuNOINMfwfyqxuu7Gc529I/EbXYmBjwcpPd48xC2nuxF1jyPnVyzO1hpjs+6grldk7Pi58Pw2MLwhiENK4MY8vAiQvKCAD/7+ZX7BY8h3If49508DvGYwGMK9zWepLLilD/j3z6/ctwT7ksMWhn6cN/iLTkrCsNcnszyYsTVmL1vsphW5LQN8gNWvcYwiEEmP284rhCno+ff91vH/n/23gM6ruu89/2f6YMp6L0SBNh7l6jeqGZJtlwUxfG1leQq/SV2ykpWVl6K37q57+Y9Oy/XN8VxHCexrLjoWrZsWc2yikmKktg7SAJE730ADDDl7f93MCBIUWIRwAGI7yedhZkz55zZM5x99rf/+yv9oKPaitIAss1vfIH+hOcF/H0zJIwecfQKSgk2HHPoIcf+xz5Ee4vjVSovJD1QCY/luMMxhh7jXFhMjVe0E1MLfKlS0+ybvC4XKDg+8Vj2Zc0Vcn1C0zxlntND6Ikn7Mpj9Bzq7ASeeQY4etTe/5GP2ONj6jxFUeYOKgRdJ9CIpsdCajBOwYGYHgpMusyBmQYxSwHSuKYRTQOb53HllULQ3XffLcYzB38O9MwJRGOABjaNCRrtHNgZ3sX9nHyy6gtFHBocNPBpfFCMons/V25T3kk0wumVdKFhwDYxeSiNEE6S+RnobcFJ95XgcMTNJLnXTCJGTdt70NhYYd6/2rQ51wxUDcZoaTXfU3RGvm9l4UGXeP6mWVGFk0lOOKfnFeFEdMeOHVLNizl7aBzTKOZqa0rQYd9gP2AydPYf9kX2N4qu7HM0sOm9cKGgQwFpeuw135/5ib72ta/J+1A05b6Fkig6kbDQ0puFXccW44EtB1GcM4DfffgVrKpsEREoHaQqM9V1jOKO5Vm4ZVkWNlaGxOtiUZ4dEuFzO0QIWsgwTPgf//EfZZGCfYFjCRcJUnCs4XjF8C6GObNP8Fh6KbAP0EuBYxY9SxlWyUUIXiMVQklxicISN45/06GAxE25OBQrUyGJ/J2ywtjAaEwST49OxPHW6QERN3/1thJsrHJhkFXJXJYkNV8gt555AQU8Vl5lGBjtNo5LFG2mw77xETNDp/fdl770JRFH2ddSnkMcgzg+0R5jxS/2PY5N9BiiMEQ7josStN2mQ3GV9h43ZWHA2+z01DAUfW64gaI/QEdlrkcb8wkNDQArm1NrXIhrVooyF1Eh6DqBAzjFHLr3To/DplFN8YWrNinPBK4UPfzww2I0pzwMaJBzEsnKSIwd53EUjng9nkdxia77qRCU6atCNDLo3cBj6RFE4YfXpOcEj6d3EK9PwyG1Ujud1MoT20RvCraf3hehq8w6RyGIXkBZWf1oaSlFc3MZDh1aha6ufFRWnjUThG5jrMQ/1PetLBz4G/+1X/s1CSch/H2mwhspgtJDLhWWlTKKKbKyb1FYTSVG/+3f/m0Rgngsf9vsJ7zOE088MVVlLDV5ZRlrvt90UXc6NOqffPJJmSzzfSjIct9CEYJ6hwP4v/7zftS1FmB1VQuWl7fh0Rv3XtM2DJkJ8jsNQ5JP5dZlWeId4TaT4sUFfpTn+iTJc22RXzYFct/nPZ59g3ABgIsP9B7gfZ/3fAo8qWpETELLkGV6LvA19h32B4ZLpgoLcLzh8RRCOeZwQYL9hn2Wz1OC7fTktReDCxif+MQnprwbFFsUYjhYKiSMOa4Yxlia7ROPNv7enz/Yg8aeKG5emol1FSFkeHR2l25oa/3hH/7h1HP2AfYd9hXmhUwlhma/ob3H8YaLG3zOcYeLf1yU+/znPy/9in2DfSmVB4/jFXNvEY5hHA8ZanYpaIvy2r/xG79x1badMj9gQAL1xFtusXMKjY7C3JuB556zE0pTCIpEbMEoqOk8FSWtqBB0ncBB9sIVH8LVGRrF00tYc8CnUcDtQjhAv58nDo30i5EKBZsORaNUMugUNPxpUFwMtnMmV2sdjoQIQYFAZMo7qLOzQHIHlZa0SMgYw8V4nKJ8EBQwuXJ6MS5cDeVvnIIsPYHI9NCTVP4Ewsns9GtQLKKgw77JiSjzl3wQPI4eElyxTT2/3kkmLYxE3fC641L+PTs4go/esA9ZgZFr1gaW3u4fmZCKXr2RmHgAMcHz2oogFuX5cP+aXAn5ysrQofVCOB6wWMHF4LjDBYgUnFxycYGLGNP7BZl+jemLCnzMSeuFx1+OZ2mqMp/y/lDY3LwoLOXmWZGMv/Ogz4nOwXEMjMTkez/TOYq2gXHxgqMX0fWa8HwuQ7vuU5/61EVf49g0HXr7cLGC49X0sH32JQqxKaYLPfQKunB8u/C6F4PHUliqTdUlV65r6CWUmhbwZ7JjB0A9nmFkTAP64x8Du3fbgtFkLQ1FUdKAWqvKdY3bPYHCwg4zIA2KEETvoPqGKnR0FhrDvwllZc0iFinKTHKluUeuVshZCAIQmYg7cbC+DN/buR43LjuDezcexm8++DMRgYK+2Q/3TJhJbnNvFM+824WYmQN97uYihDNcuGdVDnKDbvGQcJlJLx8rM8eV/r4XSn9IJ95pZeVvWZqF6ny//P4Z9nisLYKfHOzFytIgHt2cL5Xw2HdcIsylsdHKB3Kl45Xm1lKuBHoBrV5tJ44mTCJNb6C6OoARhHR8jg54MdrlQ3DC3Md1GFWUa4YKQcp1D5NEZ2SMSLgYcwi1tRWjqakMx48vQ0dHIcrKmlBc3C4hZYqizD3GJ1x4/UgtXti3AjcsOyMJocty+2b3PWMJNPSMYWQsgTUVQfEGauqJYklRhog+YZ8LO1bnLNikz4qS6Xchs/ScGbm0KICxiSQCXqd4A9V3jeGnx/pEIL1jeTayA2pyKspCJaXTU/hhriDmFWLgwO7dbnSfqELH/yzDoh6g4iOAd2EV01SUtKGjsrJgYBgYPYMoCjFPUGtriWyHD69GS0sZSktbMDrSlO5mKooCuyx8z2AAbb1ZWFbehm1Lz6A0pw83rTg16+9N0edgUwT/trMd+WYSu6wkAyXZHnz2piIUZnpEBKKHg1PdHBRlippCPypyvYgnzETObaGtP4rWPm7j2FIdRtjvxPG2ERSGPcgJuuDQ/qMoCw4KQswCkcoE8dZbCXiDQ4hMDCHalwPLvD7SZsbhfiCjFPBo+XlFmTVUCFIWHC5XTPIGhUJDZiDqFA8hCkKHDq1GvM8DX3Y+4h4teaoo6SKecOBkSyG+9OydmIg58b9+4ylsXVKPzbUN4g008++XRPvAOA43R+D3OHBjTaZ4NZRne7FxUUi8fnxOB1aXa2ZLRfkgPNNCx5g0/VNbC8RLiN5ALX1RPL27Q1775VtLUGleVy1IURY2lhVHdnU7Ku/vRNaNlXAFgOYXgNPfBkpuA6o/Cfi12KOizAoqBCkLFo9nXPIHMal0QUEH2tpKcHasAr3FZXgtEkLgNLCuCMjLgBqrinINsZCUHAKNXTl4eOt+OB1MAGw2s38m4XtMxBPiwUAPoG/v6RARiLlPWP3rl7YXoSDsVs8FRbkKgl4nlpcEpp5HJxKSbLquww7DZoLpF4/0IeBxYmVpAJkZLmikpaIsPJy+BDJrkwgtMvcFMx6HF9sbvYOYM2j4LDDWY+4plYAv99LXUxTl8lAhSFnweL1RyRGUnd0PqzOGumNhnPBsRa8xSHc1ARtLgA1mKzT2rBqpijI7UJQZiGTgh3vW4O71R1FV2IM//dSPsXZREzyu2Iy+F0thH2waxt6GYVTk+nDXymwsyvfhofV5UxNXj8tCUaZnRt9XURYyzBV0/9pc9EVikmB6zPTDt88M4kzXGH79jlKsYy6uRFL6noqvirIwofiTuw7IKLafMzSMHkKnvmXs8BuAmseBYEV626go1wsqBCkK7ITSTBYdTJxCducANi3OQW5FGfa1A/95BNjdbAtC3EpCzA2S7hYrZGBgAA0NDRjT+qOzDisyrV+/Hi7X7AwbI1Ev/uePbsOzu9ehNK8Pd6w5MaP5gFi9aHjMLpPM7numcwzvNgyhJMsjiW2XFPnFC2ghlryORCJobm5Gf39/upty3eN2u1FZWYnc3IW5rM2QS26ECdnvW5OLk+0jk553wDN7uzE4GsNNS7NQc531x97eXpw+fRqJxMyHtyrn4/f7sXLlSq1wNk+xzD9bRsnkkySQtRzIXQsJG6OH0FCD7SEUqlIPIUX5MKgQpCjTSSbgjg1iReYwbl5pCz+HO4G9bcD3jtmC0IZiYEspUBY2HUirFaeVtrY2PPXUU+jo6Eh3U657KAD93d/93awJQUzmXpg1iAe3HER1YfeMXntkPI5XjvThQNMwNlSFcPfKHGyuDkmOksWFPvv9LQuOBTpn6Orqwo9+9CMcPHgw3U257snOzsbjjz++YIWg6TCf0EbTHxkWRi8gSj6jEwnsOj0o1fmq83zojMTktZDPOe8r9DU1NeGrX/0qxlk/W5lVSktL8Wd/9mcqBF0PmG6fsxrIKLLDxnz5wJlvA6efBoq22x5CgfJ0N1JR5icqBCnKRaBXeraZH2YVA7U5wPpiWxB6txX4wQlgT4stCG0tBSoyAbfaGmlhdHQUJ0+eRKN/LaycWjOb11vazJNEsuVteFp3zvhK9njMiVcOLMPZzlz8yj1v4tEb9yIWd6Iga+jDXzueRHNvFHkht8SddQ5OYHQ8ISEp9DKozvfLpkA86s42NqK+32EM7h3pbs51y3DjAfQ1NWBo6MP/vq8nfG57RYXhoXevzEZtoV+8gVymn/74YA/OdI7ipiVZ2F4bnvImmo8MDw/j6NGjCK97FF4aFxr+NuMkxkcxeOYtjNTVqefVdQTDxfyFk0/MfSJ7pR0+5g4Zs89jbMEOIDZiJ5V2BT7wUoqiTENnTYryAdBMC3mB1WZwqc6yk0cf6QTeaQV+XAe81QKsyrc9h5bkAkFNKZIWrJJNQNVt5o7mTXdTrj+4BDcxCrTunNHLsjLYsaZi/NXTD6KmuBOfvXMXckIjM3JthoB9750uHG6J4IG1uWYCmYk7zQTzllgmKvJ8M/Ie1x8O+PIqkb/xY+luyPXNmc50t2DOQl2kNNsrW4rqfB9Od4xKUnfS3BdFz/B+PD1OAAAgAElEQVSEiLhMRj0ftZSsJTcjUL7atF1dimea2MgAJiK9QGdPupuizBbTPYSSgNfY3vXfAxr+N1B8G7DoUcCfn+5GKsr8QIUgRblMAh5geR5QlQmsKQSOdQMH24FdzcDbrbbn0KYSYLV5Ldevi33XFCkt4bKDx5WZhULQTE5YjOGWSFiSlys7OIK71h3DPeuPwuWMf5hLIhKN40TbiHgSMA9QLJGU/D9lZlJJD6AqFYAujfl3tpzah2YLTvxntu7d9c/WxWERhlhRjJ5D79QP4ZWjfdhSHcLD6/MQ9s8/M9Zy2P1MhaCZx3K69HtdAFzoIRSuNs8pDMUgId7j/WbrM8+v3qxQlAXB/BtBFSXN+N22909lJrDeDDxnzGBzqAM42mWLQ8wdRKGIolCpeey+QpskMzMTJWUVCOSZNwqGP/jg2KgZ7YbMzHpmqyopymyQTFroHcrCf/vOfbh5VZ0kg/6tB19FQeaHC5VhctmvvdaG012jeHxboUwe71uTA2Yd0cpfijJ/8bocksQ9xYqSDPSPxJAXdEter2OtIzjdOYplZn9Vrk/CyRRFWUBYdpgYcwcxyTRDw+qfARq+WQxXew3itwTT3UJFmbOoEKQoV4nXZecHotizsgBo7AeO9wAH2oEfngB+3gjcvwTYXg5kXMEi+4YNG7CoohTFIQcQuEQXbdsLtO9lspUP92EU5RoQT7hw4NSN2DW0DaurWsxELnlVIhDdwRkecrg5Ip4BEsLpd5rHYVTkeOFyWCjJ0jBBRbneYBJpirv0+svwOnC2exTP7u1GS18Qj20tRGAyqbTKQYqycKAzOCuIEUkonQskrDyMDebIvnjc9tJ3zIKz2ODgIPbu3Yvjx49LJdt4XN2QPghWoA2FQliyZAm2bt0qjy0NoUgbKgQpyoeEC5D5Gfa2NA/YVAyc7AEOdgJ9o8BY7MqEoOLiYtkui4FGewlEUeY4tI0cVgKl+Y2466bXsGVJ/VVfq39kAn/7UjPa+8eRHXBhVVkAD2/Ig8/lmJehIoqiXD7T+/iqsqBMIsJ+p1QhO9g0jLfPDGFVaQAbF4WmElErirIwYNhY4Q1Aoq8ZXU+dRiwWwLPPAo3GXN6xw9jpS2dOEGLBElbcfOmll+R5MBjUSnWXgEncT58+jV27dknl30ceeQTh8CWiH5RZQy1mRZlBmCyaYlBVNrCumOlX7dxCH5aRkRGcOnVKBpny8nK43ZrHQ5kfUAA6ehT4l38Bhoe8qC45hs/e5UBW4PITQyeSSXQM0ANoGLcszTJGnIXiTA/WVQTFO4AeAAUhDQFTlIVGWY4XRVkesEAUc4GNTSRwoHEYo+NxrCwLSKhY1OzzexwSSqYoyvUPq4llLerDSF6PuTfE0dYGfPe7ZtJrZr3GhDa29My8D72AXn/9dVRWVuKOO+5Adna2CkGXgEIQ5zQ//OEPRUTbsmWLzG0cs+GupVwSFYIUZRZghdvyGRS4+/r68Pzzz6Oqqgr5+fkqBCnzBjPe46//Gti/H1i53ILLHb8iEYjJdfsiMfzti03oHp5AlZR99+ETWwqkahAneIqiLFwYCorJ28Dy4gw8cUsxPC5L7g0UhX5yqBfLijJw75qceV1+XlGUK8fjAW67DSgqAsrKAOo0e/cCNKOXLbP/Xi1nz57F2NgYNm3ahBtvvFFFoCtgeHgY7777rngFVVdXm38nXcxLByoEKco8YHx8HK2trRJLq/HHynyCRtZNNwF33QW8/toYMHHpc1IeQAzzuHVZlqz0Vxf4cfPSLOQGXOIBlB9SMVRRlPPJDrixaZFb8ojRAYihYawoeLJjFHfEkvB77HsL7x+aWFpRrn+ozVRX255AvCd0dQHf/jZw7Bjwm79p2yZX64xCzxaXy6UhYVdBXl6eLGoPDQ3pvCaNqBCkKLMIb247d+7EmTNn5HF7eztyc3Nx5513insk1fBly5Zh+fLl4l7KlQW6SXZ3d+ONN94QpXzNmjWoqKiQ6zU1NeEb3/gGIpEItm/fjs3ZI8hI82dUlAvhmP7WW8CRI8ATTwCPPw7EYsCunfHLEoJYFejLLzaha2hCvH8WF/rx6KZ8hHx2HhBFUZQPIhUFRgH5szcVIZ4AAl4HjrWM4D92dUhI2S/eUIisDDWDFWUhkPL8YVgYF6cYJsaN94rxcfvvlXoHJZNJyVGmYU1XTko449yI36OSHnQEnMPQC4Ruhz//+c/T3ZQ5DZOOUVSZi/DmxhjiV199FevXr0cgEMCePXtEBS8sLJRkaX6/HzU1NTh06JAo42VlZSICNTc3iwhUUlIydcPk63Sh5DVffPFFFG8vxBJ1jJifsLRFfMLchekOe/2sTHM8N7ct/PEfA7m5wKc/DWRmApHI+5+TMOd0DI7jYOMw7lyRDbfTgZpCv+QDyg3ZZaJzg/pDV95Lkvf+ZFyS5ltqjCsX4Hc7pNJYiqyAy9xLXJJoPp6wJx8sP09hyKsi8/vCfpZMTMDh0mqMyvwmFALuvBPGJoexyW3PoOeesz2G7r0XyM5OdwsV5dqhQtAchtnoKRScOHEi3U2xYX3GvCWwcmqQbH4LGG5Pd4sElm6MheZu+XSq3UwgxzKJTCjX1dWFhoYGcSeNxWJTLpF8zI2rCxQBW1paRARatWrVVOwsRSJ6E0WjUTN4HcPAgM/8m6Tz0y1A2g8g2b7P/MOOn9sXKoVVfYe5o/ov+zLJ1j1A/c9gbXzSzFaycEkx6OzrSPachLX4HiBcfm7Jew7CAhCbNwP33HPpFbZUKfj/8eNG9EdiMmmrzPPiYxvVA+h6ZrTrDAZPv4X42NDUPk9WMUJVm+DNusyqiYZIy2EMnX0XwbI15tyNH3yw+bENm+MjTQeRUbwcwfI1sJxqBi0kirM8+IVthRgai5v7iwut/VH8w6utyM5w4dM3FoogdP0klU6aPrYHw00HpvbQvvDmVSFn5d2Xf5VEDP0n3jD97B2U3fU7lxSDErFxDJx4HdH+FuSs2gFPZtFVfwJFmQ38xlQrLbUfM5H0yZN2UQvmDFIhSFlIqAU0RwmXhrH5/9iMeHQOxU06HOgfL0R95wpkFsSwqHifMSrS785XbP7zBD3IXZKb7qa8L/QEohjEHD/0BqLgQ+gxxI0eTdz4OCMjAw899BAKCgqwf/9+yazPRHSEJRZzcnIkHpkGHVc0+S9wvZit8wJ68hjDGG37gPGI+QGuh8XnV9gVrIwCIKf28jyCYlEkj3xHxNekwwVrzafNKXPr9k3HDBpTw8PAhg3A7/6unZzRdZFmUvzpG5nA/rPDkvfH67JQU+BDVZ5fysGrB9ACwPSjZHxCBKHxgXb48xfBHS6w+9cV4MrIgi+3yvy9tPUeGx0wE+Nd6D30ArKW3QZvTik84cKr/QTKPIT3ltLsc0IGxeZlRX4cax2RpNP8j48pCDEZ/XzXhJKJuPQziqXJeAzhxTfI3yvCcoiY489fbB5eatxJmn7Wj449TyMxMQanN4j8TY9edfsVZbaprAT+63+1C1tQHOrosMPb6dHsvUDz7O21F7foVaQo1wNzayahTOHN8qL6zup0N+M9DA4FMH7YgeGhm5C3yY2cnN50N2kKyzF3LTbmCHrhhRdEEGIZ+Jtuukny/rz11lsSKkavprq6OgkXY/4fegR5J0cg5hVidv2L8VZ0BZoiZgIdr0ONuwWZjggcmJthctcNuTWwgoVI0iNuqM320DHPKZQmz7wENL8NUYXKtsGquAnJ/gbzA3jZHFMEdB0FsqpgLX8EyZEec34LLKoikU4kT/4I6DsD5Jjrr/4FwDmtgkJvnRyDsq3A2TeB5R8zN4kZLEv3IaEIdPw48Ad/ABSYufw//7NdneOimI87OBbDf/9RIzoH7SpgVXlefHJLIcJ+9QBaKHizSm2vBDPTTpoJY3jxNoQqN8ByeTHU8C4GTr6BeHQYgbLVyKy50UwuB2V/fDyC+MgAnL6QiDmJ8RGMD7TBE8rH+FAXBk/txHDzIbl+9oo74MutnHrPsZ6zmBjqNpPaYvO3C2PdDSoELXDoFfTIxnxsr51AXsiDkfE4vvpaq4SJ/dodpSgXD6F0t/JqsRAoXQlvbrn81hMTo8hb/xAcbp95HEXv4Z9g6Ow+eZ619BaEq7ch0nII/cdfhTenAsNNhxAsXYHctQ9iYrgL4/2t4A082tuE7v3PSb9j/yzY/Impd0yaGfRoex3ipr+GFm1G/8k3kbfuI6Zfa0UgZW6SkQFwrZWmGLd//Vfg1VeBhx+2Q8Xo4Uxh6I03gG99C9hqzLBHH7VD3hVlvqNC0ByF3h6Wa+5ZH6FwxEzwWnDo0Go0NlcjO3cITucc8lqao6SqfVHQueWWW3DrrbdKxvyenh6cPHlSQr82btw45e1DsYghZBSLlixZgsWLF4tAxFAxehSxjDyvN5Fdgl3RYvxkdDmyHMMoc3WixtWCWnczKszjDCua7o9+/eEJndtc/eYftxjw5yDZvBs4/n1YJVslZ0nysLEYAvkABZ/TL8Ba9SkguxrJk88hmVVpCzvtB+imgOSB/wCG22CVbbOve4GHULLhNTnXqtmBZL2xUHpPAUXrZKV2LsBVc7pa04h66KH3VuCgpxtDXfn7D1p2ueeybC+2Lc5EzqQHUJ5WAVtQODx+eNxeuDOyzeMMEXLcZhtuOigTVApCnqwSDNW/LV4N7mAeBup+Dk9mgXgADZ3da3sqmHNGWo+JR9BI23EMmuMzipfCX2D6i/Pcb4rXGO2ok8cUkCLNB+V5sGI9HDpJXdDQ+/CcB6IDN9Zm4t36QfFU5J347TODGI/NzwUWV0YmnP4QHN6APPdml5r7cQL9x15F975nJXQrNjKAttf/Gd7MYkR7m9Fz8HmU3P7rIqJ2vfuMhJJFexqlb8bHhtH+5jcQiw4jq3a7CLLTScTHMXB6FwIlK00/uxWNz/01RrsbkFG0JB0fX1Eui5TNwkWtpUuBN98E+vps26bfmHnf/z7wjW8A775rewwxvxA3RZnvqBCkXBFOZwIFBV0oKupAW1sxSkpazeO5kStoLsOwsM2bN2PRokUi9PA5E0DfcccdIgAxHIyhYaw8wLCxwvxccV/PDHilypjX60HW9tXy1zfejXXVeVhWEkBsoB2dHYdRjwBOxUpxZqIE+6K18FjmGs5eVLk6RBSqdTWjwNkPtzV3cynNe1rfta2I6jtNRzGTirrnkew+Mem5Y6yJog22V9DpF4De0+bu67OTRUeHgLOvAaseA2ruta81PW/JuHm90VglgQIkW96R3EQUhqzC1WkXgij8dHfbrtJ0qf7iF4GVK9+bvohJzv/mb/4Gba1tKCpzw+9x4FNbCxDyuySZq6IQTlDHzIQzFulD7rqH4DMT0I6d/y4CT6B8reTz8efXIGvpzYj2NZtJa6Pt3RCPYWK4RzwV3IFs5K55AK5AlvkdnvttxczrI+11GOuqN+f4zfkt0n/GBzvgyylP46dW5hIel4X7VudgfUVQxKHeyAT+9c12DF9GmH6qgtCcx7Rz4PRuyfVje/v0oGvv/0bE9DOGZlJAzVy8Vbw3ew48h9GOU3YoZ2xC+ubAqZ0ovfM3xaMvEZ8477qx4V7xyvPlL8Zww17xQhqoe1OFIGVeQEGI+Q3z8uxE0q2twDe/aZebP3MGmDA/97fftvMJrVmT7tYqyodHhSDlivH7R82krwU93bloaKhEbm6PmQheRk3oBQyNQwo6FIKmQ0Eo+4LMdC+99BL27fop7qn1oKoyCExGhU2lWzTzl6zU47EBlDr6sTzDgb5EEL3xMDri2WiIFeF0rAQ7oyvx+tgaBB3m38zZLeFjS9zNqHa1ShiZdaWJbZT3h+IPjWJOBCbzCFlmkprE5HNOSuNRY0mMwvIEZNIrOJz2axORc4+neQQl2w+af+d+OyyM/14Fq4CmncC6/yKeSOmCIhDj5f/kT+xyrF/6kp0bKMWEsZiY6H7FihUietIrjiIoEBUPoIKwemEoF2JJ5S+7QhEn3knpJw6XzxjoTvtHZ0Emn4lYVCayjkmvH7tiWFJEIZnM8vhp/UhyEQ12wBXIES8GdygPE4OdGDP7fTll0ExrSoqA14nFBXbi/wyPE/euycWRlnNlD3/2s59h6dKlEsqdKhvNhZynn35a8vnRgzdV6XOuQi84JnUWsVTyCMXg9GZICCb7nmU5ERuP2Hl+fEHER/omT3TKGBcfH5EFi+m9hkmlmZg6MT4qIi7HMn/BYhGOCrc+Jp5/ijLX8fmAJUtsr6CvfQ148UWgs9Mefgg9gvbuBW6/Pb3tVJSZQIUg5YpxOBIi/hSXtKGxsVw8gyoqGtPdrDkJjcEdO3Zg+/btEuZ1OTAk7NSJY9ia4QVCWZc8noaYn6E5zihKnD1YjrMYSmSgNxFGbzyElng+Tk2UiDh0bKISLiuOHMcgKlwdWORqR6X5W+HskNAypzU/3d/nAlbVbUh2HUXyzf/bWAwxyfWDwjW29w8N7QP/BkQHbA8hhnV1HLRPdAdgLX0IybM/k/ORtxzWus+YH4/XFpDqf2qutViOES+igpVIvvwnSHYelhxE6fIKSpWJf+klu1T8dBjG+OUvf9m8fhaf//znJbzxk5/8JE7VnQAmWtLSXmXuQ8E8o3iZeAB17vlP8UxwMRfQ0lvldU5K+46+IhNLet/lrn1g6lyGhgUrstB78Hk0/PCL5vE65Ky6R8JbOOEdaT8h18tZc594J4x2nkb33u+LlxBzmTh1kqpcBHov3r0yG195uVmec3x+6qmnJET7j82Nr7S0VH63zPX3ne98B2+88QZ++Zd/GevWrZPKoHMRij/sG6NtJ3Dmu38iZeHD1VsRKFkhnkIUclpe/XuMD3TAm1eBYPlaDJz4mQhATM6eu/peCSsbanhHXivc9rhcN276J71/AmVrkL/hERm/KAg1v/S3iLQeR6hqwwc3TFHmCIcP27kOn32WHs3nv8Z8QTvNEPTgg+lpm6LMJHNzlFLmPF5vFMXFbWhvL0RDQxXy87vEU0g5HxqIF3oBzTZOJETU4VZteviqZD22eQPoSYTRE88UQahuohRHxhdh99gKeK0Ywo4ICpx9klfIFobaUeLqgd8av/QbLlCsJQ+Kdw88QXsHc/hs/FWp7CWOVpnlQKgE6Ks3d1qvLdqw4kqwwE4YzfOyFtnC0NKPwMqtNdcbAQKF5yqCMVcYBSB6PZhzRPTx58K6/S/M+y1Oawl5vjWrbXz5y8Att9gr4i0tLSgvL5ffPROeM+yR1e+4ap7KbwV1HlRSmN9JaNEm+PIXSe4SwjCt/I0fk8TO9FLwhAvMZHKReBrQo4CvByvWwOnPlEpjidgEvGYfj2PoGKsbMTzFHcydqiRG76DMJTfb75VTKR4OLnO+O5ADh/ucV5GiXAyf2zEV8sWCDx//+Mdx6NAhCekmL774opkwPovW1la5B46MjOBzn/ucFIWYC2IQ21649VOTXnayAxnFy1F6129hfKjT9A+3CDbsLzyWlb6yl9+B+ETU9MsSeLNKJK9WRskq81oA+Zs+LmIPq5Gl+i1xun0o2PxJ6V+yP5kU4Yjn+HI1/FKZPxhzBffcYy927dkDRC9It0mhyNwCJDeiosxn0j9CKfMSlo3Pzu6TxNF1p2rQ3FyG2tq6dDdLuQg+axw+5zgKnX1IuC2sS5xCbyKE/slQspZ4Hs7GCtEez8GJiQokWGnEGkOWYwhlrm4RhiqdZnO1I8s5LEKTAvHSOQ+KPPkrxaNH/LSmizR0p6cXUKDAfkwoEnEjGXlAxfbJ0JfpHj7MLbT2/Pdxec2xN830p7lsuBrGeHmGhf3ar9mrYvF4FP/0T1+XydGTTz6JVatW4bOf/SzC4bAkQL8muANAzQ77u5xTmH/DUfNlNbwKjHSnuzFzDEuEG25Te5z2pJSePEmkcq7YfcnhcksS6Kylt00ebO+nCJQiVJFlnzetD1II8uefX4WTk1NWVFKUK4Hiz+233461a9ciMzNT8p/RE+jo0aOS348cOXIEf//3fy8J8u+66y5bAE8rtvAzHYaG0WuOoZepvpISiljhi15yltMzGXIJqSLGjXiyiqXPSk6kaZUB2HeDldMy6FJU8oWQWbt9lj+fosws+fl21bBqM2yY7o3vfQ9mnnPudRbypUBUVZW2JirKjKBCkHLVeDzj4hXU0VGIxsYKSRodCg1d+kQlbTjMBCnkGJGtEh1ImD2RhA+DyQwMJgJmy5AcQ02xAtkOjVdj19hKeKwJhM05+c5+FDl7ZSuUrQ+Fjj5kOKIzlm8oamxpp4OVpWbkcteeC0K1rJxagJ5C9PxxfFDeCCutHj6XA3WqEyfspNA335xEJDKMcDgk4lB7e7t4/eQbC4oeQNfaE068pnKXAJlV1/Z9L4ehFmNF7k53K+YX9IabloGEuUby1j9iJqCFH9xPLjhPUWYaCjvMD0To8dPd3Y3oNJcBCiSs/PnVr35V9j/wwANzQAy6ONMTqvNxoHQVSm//r+JdZ11Y/vH8E+dHYmxFuUpYNn7bNqC83K4QxrLyu80wPjZmv75rl/34Wq11KcpsoEKQ8qHIzBwwN8kmHD26AmfPVmLlyiPiLaTMDxxI2MIQRiSZNIkm3RhK+DGUDGAgERDPoZaY7TWUSkQ9kvBKriGWpw9Yo8hxDokoVOToRZHLFogKrlIg2mPmzPvagSwfsCIfWJxtfmfmsWO+2pysFJaRa+f8mefQ7udK2Y4dcdP3f4S/+qs38OlPfxqrV6+Wv36/f2qCdK3h5GtoYBBHj7/1vscwZxfbx3xd8Xhcwtm4cTWf+YwefPDBqVCOMWPhNTU1SZJregFQ6KJ30yuvvCLXYBVA7qPglUoYy9xI+/fvlzwi99xzz1ToSDpg+wcHByVBdzrbMVOwtDwTPVsfKKYqyrVl79694hWUTL53nOM95etf/7r0xY997GNpaN0VYm7w3pwy8fbRfqYotBkApvdk92VZeXoHcTOmgWzBYMDMe3xXdE2GzZ88eRJnzpwRoZgLaCtXrkRW1qVzgs5VBgYGJE9acXExamtr4fXOf3t3oaBCkPKhcLliZlLUYSZEReamWC5eQXl5Gv4wn/FaE/A6J5CHQXlOryEKP/QaYhLqSNKHYfO3mxXKEjnoiGVL7qH6WLE5zicCkd8ak/CyXOcg8h0Dkq+IeYi4ZU5uY65OwPHeVdKmAeCn9bZnUI6Zv+abrcqMj6sKzECcCxSFzKTwWngLjfYiyWpdUk7XDGrBQmMVXEWlq0Rsstz7Wjs/0HSPofb9zIBrPtR6O7TsajHtTPachEXRibmJZsEjIhYL4PBhB7ZsAX7ndxL46lf3iBHDnBkUQmpqamb8Pa8ECjrNLc34yt8/LQlcL8zNwbAN5u648cYbRcihYPP222/jF3/xF8Uoe+aZZ2TixpV7GmbM7/Hmm2+KGMRQEFbzo+DF8+j11NbWJq9RADt8+DCef/55eQ+KQHwfCkZsA9/r0bu3ovYafx80Mv/jP/5j6t9m+fLlUs0oL+/ahs7Fx4YxMdQtFYUYcuKWql3BK74OE0WzjDU9FZhQemqiaibgrAgWG+kXryHmJLlaYiMDUpbe4fHBm1UqpekV5f1gf//2t78tQtD70dzcLP2Q94RKJlWbJcaHuhA3v1/C368nq+Q8b5/Lhf2s//hrCNfcIH01BcPGhs/uEy+hYOWHSPpsxlOWq2cOMLaR+YcUZa4TCtll5Y1pId5BX/+67RHU2FiN4uIjl30d3iuee+45vPbaa2Jr0H6iHUE7YT4KQRTAWUWR9hHtKAreXGhTIWj+oEKQ8qEJBodRVtaMQ4dWo75+kXgJaTn56wd6DbH8fBCjgLNH9jEDx1jSg5GkV8Qf+Zv0iSdRdzzzPIGoMVYox9LTiPmFGGbGrWHNALqCYXzpQA4KGoBMM26EzXawExgYMwPmONA1AtRZwIEO4M1GINvMy8rCwLI8WxzqG3Uj7vTPSuWsZMvbwKkXJBm0CELhUljrPwcE8nFJoWWwBcmOQ7CqbrGFnrZ3zPnG4PVnIdn4OqzsGjv5MyuKsWx8wZqrF4KGzHvt/v9MO0NIDreZNj4BFG+Y0TCzpPm3a27+L/iDP4jhb/7mJDZtqsEnPvFxWemmxwlFGIYJ0Mjh5IhGAA0cet1wpYiviTCTpGAzOx6DNEhGR0bFS+cjH/kI+vr6pl6jGMI2MHdHT0+PtLezs1NyGvExV+g4UWMbudFziF40W7dulWTXFIYopqSOo6cN8x8tW7ZMrs3JXl1dnQhF9CBKwe/j+PHj6Nu0xPz7zMrHfl/4+Xfv3i15Sih40ZuJAhY9mNhuCkNlZWWznsx2pOMkut55BslYVHwD3YEs5K55QPKTXApWLRrrrocnXCi5RkY76swk1y9eC6OdZ6aqjEX7WxHtaTJdIP+qhSBOTFlxjH/ZvzNrbkT2ijvl/RTlYlAIZ0J89ived/r7+6e2sVT8iIGi8X/+53+KEDsxMTu20cCJ19B7+CVJ0jw+2A5/QS3K7vwNWK5LTMjMfXOspwGR1mPIWbUD8ai5v53Zg4yS5ZL8ue/4zxAsWyN5uEbaWHnPedVCEMWkUXM/aH39X+BiSfrxERRv/y/mvVZc1fUU5VpC7yCGiT3yiF1e/l/+hVXFahCJVBs74tLCB22UXbt24eWXXxavmVtvvVXyjKU8lXlvYEgpk85zP4/h38bGRgwPD8Pj8aCjo0MEo+rqavh8Plm8amhoEDtkxYoVchxtlFSV4vr6eln84XvwHpWdnS3XoN3Daq7cx+e0b4qKiuQ6fD+eRxuHx/Bctou2DcNgKWjn5ubKsfxMvb29cu6+ffvEK5rXVuYPKgQpHxqnM25uYu1mgpVjbmCl4hG0aFF9upulzCIM9/JbUdlyHYNT+y8mEKVEoKj5O5z0Sx4ihpx1jhqD2LsII9EEzvabiVgMGDVbV8RMHqfZytQNhqL21mCeH+sG3m4FQqyuHmEqowAAACAASURBVK1CT9WjdqWtmfaCYWLflLBCj5uD/24ndOanH2iQimFWvjFg/TmmcW1yDNxm0sgJb+ObQMtbSDLZZtEaO28NhZr2A8DBbyJZcTOsmvvMudmAL8sWsuITSHYdEU8ki7lumEiaZec7DsAKlyPZ32CMenP9ghXniUbJuufNew/AWvOLSO7/BpInf2jec+25ymMzQDyeYQyMCpw58wx+/vMINm+uFYHkL//yL8U4+fM//3MRhP7pn/5JjJLt27fjsccekwnQF7/4RRFVfu/3fg9xYzQcaYng958+jRtqwvjoxnw090Xx/z7fiJDfhb/62CKMjifw7T0d5rgR3GiOeWhDHhp7ovjyC03IzHDh93aUw+W08J09nTjeNoLttZl4cF0ueiMTaElGxWih4cNVthTcR+OJRhWFkbfeekuMFho1rPjD0DCKCqkQL07k6A1Eg4zeRRR+uOJFIYhCElfyjh07hjVr1mDTpk1yLq+dEoZS0DvoBJMqGYbMD/xg3QBi8SRqCv0oCHvQYj778dYR5Abd2FwdwoDpAIebIoiZ76l28piuwXE0mc/Pz7602Pw7jMVR3zUqokrAa3vF0PijVxKNMhqPFKBoIHKiyjbzc3I7ffo0Dh48iNdff10MOX42tpmfZyx6buI6k8RHBzEx3C1lppnfp99MWAfr35bEs9H+FvP6gJm8lsnz2EgvJoZ67MS18XFEWo5iqOFtBMpWI1y9De5wvngVjXWdQfe+70u1Lz5n4mdPVpGINgnT/6I9jYgOtMv7Mek0J7v09OHfBPuZ2aRKkj/TbqQxXIfP7jfHtMr7jHaewlDTfmQUL4W/8Fr7cinzBQreFJ15T+Hki/2NGx9TiOUEifcS9j1OuCg+SzhqbHyyMMDMtWV8sAPj5jdfctuTGGk7hrbX/xm56x6AJ5CLSJu5ByVjCFasF2+8se5GxMcG4fAGkRiPoO/YKxhuPChCKiv4cXO4vCIIdez8d8TWP4zsZbdJ/0t5ydFzaLj5EBLRiIhGFGvj4+Z7aD0i3nQUVNm/KNSmFiUSZszsPfKyeAXlrL4PnW99C72HX7QTWWu+IWWeYEwdbNwIM4Ya881Xb8b4JGKx0CXPozhMu4Pj7W233Sa2w/RQdHolc/GGAg8FFY7NDz/8sOzjRhuG9xWO6Z/5zGfkPHoi8xq0PygmvfPOOyLkfPKTnxS7hwI07TEuzNETibYYBSfejygW8b0o8lCkpnczF7V+8pOfSJg/bR22kQtc3/rWt+Q+x+2JJ56QtqQW2Og9TRuJIpcy/1AhSJkRMjJGzU2lydykcsxkYzGysvuQndWf7mYp15j3E4gIRaJY0onxpAvjcGNPfaOsuj+6rBTZuRkYj0O2F07boWGD0Yu/BwWjnhHbgyjTPYq2ITPp8xcDM5Ss+jy4mppvDNmhdjOjHRdhBk07gVEzWR3uQPLs67A2/TqSre8C9a+YmUHILuvecQDobwTa95nnZiLa8JpdUazziL3fewgo2iBeQ2BSztLNSB74N2CgWfIJJY9/H9a6z0pJeuz9FySzKkT8ES+jG34PKFxji0ecTDC8LG+puf4Ks381cOpFEZU+VKjZBTicXGH6X/iFX9iOlSvtEDBOgig60KihIUKjIOVhQpFo+jH8y/1M4utxORDwOuA1f2n6Oy1b0Ah4JkN9zHOv24kMs88jMYAWHMbY4DEZ5hgRbCy7pDPP4fXE08hssbgt+nDVi4ZPKoErjR2uWFGkoscSJ2ZsN71iKPbwmlVVVXI8H/MYnsPPxLh3rvpz1eyhhx6S6/J1rpjxevR6ogBDz6eUoJSCAk2qDT3DE/je212IRON4bFuBCDsHm4bx9TfasaY8IEJQ19AEvvtOF8YmEvjU1gKEfS68XT+Ep3Z1YH1lCH/0QAXaBsbx7zs7MBFP4q6Vdnl0foZ/+7d/E4PvC1/4gpSwppBFg3E6bCtFIm4Uytheegvx32dgcAiuqgJZtZ/p/CCcVHpzjdGZU4bBup1m8jkqYstw4z7ERgfl3zh7xR1mohhFz/4fShiZJ7NYRCKGg3HyyYkmJ5dOTwBOf3jSO8GFYFe9+bmPYsJMhHnOqLn+YP0eOSdpJtzh6i0iJPUeeQnR3iaZnHLSnLXkFuSsuU/alohH5TWG1ISqNkglpcEzb2F8qFuFIOV94T3tYlUReT9g30sJQymh6N1338VXvvIVEUJmA/7mg+VrEI8Omy0iJR57j74iYuz4QBv6T/4cFfd+AQOnfo6BE6/DnVkEf/4iRBoPYcz8/ofO7oU7mIf+Yz81Y/MNGG4+aPY3ItJ0EIGS5RhuOiDhYqGKdWh59R8wEemV590HfoTiW56AyxeW/RlFS+U+EjX9tWzH55Ex2YcogI20HUeocgMCpSvgL6gRTyS55zh1OqLMH+gdxIpia9eeMPaEscusS48TvCdQyKGnDRdipnvjUozhmE2PXXoKHThwADt37hQxiLYHRWUKLrRvnn76abE9KB7RE5n5Cjn203OZx9Ee4Gu0cSjs0DahAM0x/8477xQvn6997WsiUj/yyCNiFzCsi+e98MIL0s4bbrhBPKhp/7CtFJdoQzH0i6IR20Fo71CA4vPUPmV+oXdeZUZggujc3B4zmWowN48VOHO62twgD0oOIUUhFIncVky2AMwgNdaFYKIPVeEYSvLPHXe8G/BcZDzh5J9hYRuKgfVFQEUW0HKqA0097yCSufy9J8wEkU4kX/srW1gp3gjk1ACjfWZEH7aFoZa3gJWfhLGWzbEdsJY9DGQtkoksIl2wqm618wr118PMeG3B59j3gJJN5rhK82H/ty3o9JnXz7wMa+OTUpY+uecrSNb9GNaGXzXnNgDl22AVmwlq0y4ke+pgFayaFILMhMIY/SJAUUFxZYhHEjM7zSQOawKh0GF8+tN/KkZBygPml37pl+RxKk/Qjh07ZLWJq0ncT0EmdQzFBv4bVuT68Cu3liDoddrJp0NuPHl7CZyT2cC9LksEDnr6BH1OOacw89wxQa9Dzrt7ZQ5uXpKQYyyzP9PvQqHDLe9Fo4eGFEUoGic0cthuwrYxTxCTGjK2nYYWPWUonjBZdCrJMg0yrspR8OE1+Lno4USBiIYTDa7pcPJ3YcLY6c/zQx585qYi8QiqyPXC53JgU1VIvIGyMuyhuChsjtlehEQyKd+Tx3wXK0oCePyGIhSE7Xxaeeb4+9fmivBVaPa1D4yLB9T9998vHkryXvn5WLduneQzml7NaDr8nujFRTGMxx8+chRdluOq8opcCgov9Cxw+UJwmYlmuHqrhJpw0jk+2CneOr68ShFpYiN9CFVtROaSm83E86CIMRnFKySB7WD9O+achAg7vvwqON1+M0FdYSa4r8t1RFxq2i/HZi+73UyCX5bJLcPKJszrDncGMmtvQo+ZuI52nkZifESEoGQ8JmKSVEIyz+lpxL5FzyFFuVJS97sL82RwhV1W0V2ME515D5jx/lac+tbvITY2iNy1D8CbUy5eOsON+0VkHWx4E6W3PYmJSI/kFCq+9VdFyIlFeuWc7OV3mHtWXPoGveQyq7ehe9+zCC/eKiXj6XHEPjHScQoDdW+i/N7fhyuQjZaf/i/0HnoB+Rsekb6cu/o+ee/G5/8Hxsy1UkIQBR+Gg7E/cvxyuL3iwSdl6Gf821CU2YV2iMczamyKXjPXubRHLYUf2h+0NVIJ5lMLR/QWpFi8dOlSGcdpw9Bzl3YG7Q3aWAwH4/n06uG4vmrVKvHsYYg7/z7++ONy7PtBO4ZhXanE1Bz3aSPRe5hCFO0dCkeEnsy0eWjnpQQr2kpbtmyZl7mMlPdHhSBlxqDoU1ragr6+LHOjKzOTkx5z0zmb7mYp85yCALCmENhUYlcQKwwCuX4zAJu7V6xlAq74yKytsDKcy1p8j50oOlwugkty/9fN4zIJC0s2viECj3jmmGPFUycjDwgUmA5hGpnJsJTJgZkDPsO96KnDv74wUpMByUFkDGTkLbNzB/EakY5znytcYT50reQrMhb7ufZx0s59Y8yHY9oQ7ZM8RDMZFjb1Vqb9NBxokJDpnj8pKPxMZ/oxNDL4cf0eB8pzzk2Q6NFD0SMFvX8odkzHe8ExJC90/jFupyXiCqEBw5U3GlU0nCj0yPvDTipNo4lu0hR1eAyNHwpAXDmjqzXPobFE44juztu2bZPPQsEl5RHEVX4aadzP+PqPfvSjspJGQ4yeNswvxGM5+aPhFog5sa7i/CTJJdle2VJQ1Fpfee4YykhV+T75vhyTQhk9iRgyxy9zeCw29b1T3KJRl3qeEsEuhHH+zCVAl2+KQFzlo4dUa3sHuiLWrIRoUABimFXITCw94XzxHBg4tVM8fBiiFRsdkBAT9gmn2fyFS8SrYLy/TUJZ3KFc053Cci0mq2UeIJf5nTu9Gea1PLqsyWsMd+HEN1BaLCEp9GiIDHaYfRHpKx5zHU5KB8z5nNAmJ3MZWE63mZT6ER/tl5CXuOljFIQYcqYoM42IrbOgfDgzMpG34RHxDGK/4h2kY/c3RVgNlK+WELAEf9vgmkE2gpXrZexiRT6Hy5yTW2WGkMmQWtPPmG/IMuMV/7q8dugLJ68TkT4k4uOmn62U92J/pEgkn830RYq6vJZTQjXPjVd8jeJtzPQzCk2xsSG4TZu1Qpkyn+FC+OUMm7QrKKbQPvjBD34gNgTHator7FcUiSkS0WagOMN99B7iOJ4Kw0r9JVzcevTRRyUPIb2E6MFDG4S2DhezKCyl7B67nfb5qU28tLn4MXk9hvlzcYj2DcUo2m68Hj2LCO0l9fq5/lAhSJlRMjIYQtJoJmHZdohYVh8yMwcvfaKiTMIUKywdzwph9P5Znm+LP6we5ndd41QCFHNKt4jwI6IL8wYxz487gCQfxydzPUjDXeeSVjOPQnQAybOvwaIn0dSHc9oeQvQkyl5kCz2WE1ZmGZI+Mzk9/qwtBHUdgbV4x9QEd+pDX/jhOYiXbUXyxA/NuT8Azr4Ba9GdMxoWNl+hEUSxh8YNjaLpbtg0fJgf56677hKRhkIIjTOGbdC9mp5NNIboScSVu5QhxPMu9PyheMS4fL4PXa/pok2Xa74fDScae++8+y5WrDGG3hV+BpmwOSzZUvChZ1LwSolDbBffP9XOlJGXggYo3bkp/nAVsby8XEQtikI07CQkbhbX5B2eDGQULUNW7Y3SR+g1wEpfFHr4PDbcO/mdJkXosVJu5+b3n4iOYKTlmEwgp74Xh23AjraflDxCyZjtucPwMZevQXIQJeIxDDXul7wn3G9/vFQ/wnmRpA6XRyav/UdPoevdZ6Rd9IBg7iJFmS8wbJKedOLRZvoHf8dDDe+IKBob7pGQR3txwZJQLApS9ACiVxwrefUdf1XyA527oD2mDdTtnKogxnN8ueXmPbzofPvbZn8uxrrqkb/xY+fOs+yQ3gvVLr4PvfkGTr4JpzeESNMh5K65X/q8olzvcFxm2BftEXr7UMDhOM2FGXr0MvTr5z//uYRjURxiSDoXa7iQdTF4HHMO0ZuI3oe0aSgOURD6h3/4Bwl3p/1xudBeue+++/Dss8/iqaeeEpuCoWTprgirzC46W1BmFCrj9ASqqjqLY8eW48yZxVi9+pCGiCmXzdZSYGW+XUEsLwMIeuzJ77XGyl6EZPmNtsdNSuDxhmEtfRjJ6ICdwJneQv5sWAzn4uuT5eWtwjVIVt5se+rQmK6+0/bycQdgrfg4koNNwMSIHCevB4thbfttJNv2A4ONdiLpmh1yPKrvgEWPJMtMjstuMO2qPl8QMsdZE6NIDjXDqrwVqL3fVtMWMFzVosjDVS0aSIyjp4cQV9toKFG8oQfQd7/7XRFvmNSZHkA333wz1q9fL0IJxSGGhdEdm2IJRZNbbrlFVsgYy5+qkEZvIhpqd999t3gPMXafq3yMqec1mGix+XgdIjU5uHQ6yZmDAhdFHxqDa9eulb8Uf+jqnRKMrgUUYUKLNkmlr1Q/4qQyvGizJJt1B7LhWnoL/PnVcAWyxEvBHbK9yJhDJLP2RvEYIsGyVeIxxHOY1HnI4ZJ8KBJWlhEWLyKGmw2d3Sc5g4Klq8Qbgh4PrHzEkBTmAQqUrJQJsSNVUcm0K7N6q4SIjXU3SPLbsGmzO5h7zb4nRfkw+CUvT9L2rpkcHxi2VbDlU5KbhwJMfGJMRFkey7+Ewk6oejNG2k9KHiH2sZzVOyRMk1vBlk8iFumXa7Av0ZvPl1uB0rt+C5GWIxL2yZAwVtjjokjWsjukf1tuj+QA9GaXT7WR3kO5a8zYZkZLJpDnOQxHU5SFAvPp0HuYIVYUhAjHZSZuZo5F2izMLUi7hXYIvbAZss7k0nydtggLb9DGoP3BUC8u5PA5x3guqNDLl9dgCBfzGnJxi4IT34NiEe2jJ598Ut6DOc4o9tDu4bVSi2Spqqs8h9f+oz/6I2knF5UuBj2X/vAP/1Cux+sr8wcVgpQZh6XjWU6+vz/LTJLKpIpYeXnTpU9UFNhl4Z2zE6FyZRSugcWcQN7wuX0UepY+AIuhJp4grNJNktwZPmP45i03P37buGYVM2v143ZYWEYerLWfsauLUfSpudecbwwAXzYQYpJra9LzaCssJppmfiG64XsZh52UamByLD2Hln/Urkw2PY8Ly9mveBQWy9BTOOL7LMCMCzRgQuGQ5MahscWqZSm3a4ZwMV8O8wIxhIru0hRpaLww7IvJE2ks0RU6FfpGg4srYVytowhEkYiiEEUkhn/xWIZfUWyhwUXjiytzKQ+iVEw/DbjIusXw9b0KjFy774Of6fOf/7y0nd/DhflKrhUMUZFqQ5MTT8LqXhSH/EVLbO8eM3ll3hT+pReOc/JYd7hASlonZALrt73vzDGcUMr5hTWyXya/ibgIPe5woVyDFYr4nhJSZn4bTA4t59Jronb7VDtSUCxiwur42JCEybgYsqIJbJV5AoXVYOnq87xr2E8o5MSjoxKCFaxYK4nWmUA9WbHOPoj5jEx/Kbrps/KYQmrxzb8sIij7Zt76R5CIDsMVyJE+Yk32v6wlN0sCafZJp4hGYRFSi254XI6Vczd+9LzwSunfOeUo2PwJ6dPsrwwrU5SFAu0UCipckErlCEqFZtFmuNh+CkLT4aJVCopDqeumjufiU2rfdCgqpWCIWgraPtymX58h9Be75vtB76FUjkJlfqFWjjIr2CFiZyVE7NSpGjNR6jcTkqF0N0uZB7jmijMLPYE8F1nZoCjjm8yF45s0Yp3eyYTNk1CoCRadex4qmXZ+pr0J065PkWn6cfaFxFtoikAB3otli1FY2N4Ljvgoyod241fXjiG77j/s0KgG7o9jC3pRbfb7/Q4URX4q3kDFq0fM8ySCwThCjgE4u5xA17nrZU9M4P68fgRHOmCNWnisegChY/8Kn9n/qUWdckw4fBrZZ3uQxwSNjcBHS/umXLHpBh4MDiKrscvO6zTed02/DwpA3NINxZbpgouNZbpMULYLcU4TjDhxpFfDxeAE82I5fGi2Opg36AKmX+eik09j8Ka8IBRlviG/24v8dinsuCe7mXMyz9aFv/FUHqAU0x/T+w6TfWd6f6MYdGHoJIVTVu5LwYTwF8I+TUFJURYy00WWy9n/fjgu4v19JedfyXWV6xMVgpRZweFIID+/W5JFHz/OqjzVWL36MJzO989oryiKcrVYiRj8o22opObQe2JqP7PNcNqRLzrZMDA4DKadzpK50Lj5fwDoee/1GDxVMHkK8fNCPT1yvaqUVhGLAF2tUwOpTG+m57TmtTtbZuTzKYqiKIqiKMpMoUKQMmswRIwhYXaIWLkIQ6wqpijzGoZ7DTTbIVmRTjscix45H6bsdn8Dkq17YdVO5gX6IJigeqDJLj+vSaEvIHnpQ5S0kBgfRWxsWEI+mW8kHrWrmbCyECt/OdzvzT3AqmJjXWfgzamQMtMTQ90IlK2UBLUzDUtbM2GueCwwMW7aY1MV5cphv5oY6hJvnLHe5qn9Tn8I3mneOlMkE4i0HsVoVz1yV9+L/hOv2eGTNTfMSvsYPhbtbxGvoOnef4qiKMq1R32/lFklEIiIVxA9hOrqajE4GL70SYoyh0k2vGa2VyXZc3Lv1+wS8vHoh7vmoDHYTz5nrslSu5cQMywnkqdflIpkU6XpFWUOQ+Fn4PRu9B19yUwCW9H19nfQ+KP/huYXv4yufc9ifLDroudFzUSWFYvGus9ipP0EBk/vksS1swGT5o521Jk2vmIm0JrTTpl/UMxsffUfTL9pknLuDc/+BZpe+H/Q/NLfov/Iyxc/J5nESNtx9B5+UUSa/pNvYKj+7VlsYwyR5sPofveZcxU3FUVRlLSgy8nKrGKHiHWhqqoex48vl3xBrCJGbyFFmXdMjIhgYy35iJ3Th545mRWTJXkniY0i2bZPHlqFawGueka6kew+LsKNVbQe8IVtvaf7BJLDbWbGO2hXGEtdp+8Mkr2nYeUuMdcvB0Z6kOyvh8UcQlJtbDWSh74JFG+2r6Uoc5hoXxNG2o/DEy6S0tb0vGHS2LwNj0i+HnoHsPrXaOcZxCK9kmCaryfjE4iNDYk3EJPL0qOIk10+pzg03t8CT2aROX6RXJOJnpnfhF4RsUifvMZjeQ0vH8fHMdph+pVpg79gsSTWjfbSSzUpFcSYy4gT6EjTQXOdEsmdoijzhZGOkxhq3I+iG39J+gPF06qH/0+p8pUq/x4bGcBw417xYA1WrJe8P+xbcbOfolB8dHiqmh73DzceMP1qEIGyVVLNb7T9pFSl9BfUmj5YL55+rLJH7z0KSUzgPsE+1HpU+nBGYa3pfxFEWg5LO+it5MutRMvBHyNr2e3n5SNSFEVRri1q5SizjsczjsrKRkQiQTQ2VkjS6JqaOvW8V+Yf/Q3AxCiQs3iqVPx5xMaQfOvvpIIRRZ9k8x5YG55Asv4VMxseAgabzb7dsLb8JpKt7wKHnwZYKazvjB3yRZp2I3n0u2b/IiTrfmTO/xUkxwaAvf+MJBNQF6yCxRLxo/3memcB7yoNY1HmMElE+1pEpMmovWmyElfSTDLHERsdlPCQiaFO8cQZaT0OhzfD9J+EmSTeetGrJaIR9Bz4MQZP7xbhhpPVcNUmCX2JtB6TktV8P76eu/Z+TIz0yySX5bMHz7wlE1F6InDCmlG8HP3HfiphMRlFS6QSEifG9Fpi21KTZ0WZDwzW7URGwWIJtaQQREQUHR2SKmDsF40//u9S1Yt07/shKu//o4tei/216aW/FQ88CrVde59F8a2/IkLQSNsxlN/7++jc/ZTpXwOofOhP0f3u901/WiaLGa0/+0cRc/uOvYrsZbeJ8NP84pdMn6uFN6cMBZs+LmXoh5sOqBCkKIqSRjQ0TLkmsIrYokX1CIcHUVdXg46OwnQ3SVGumCRzA3lCk2Xi3yu+JLtPAC3v2CXnvZnA2Z8Boz2wcpfalcXiE0DzW8DYIFD3vFQEs5Y9DJRttfP9GCM6efwHdgl5ViajJ1DTrkkRqQlWzQ5Yi263vYBMO5JDbeZdE+9ph6LMFZKJhHgh0FvAFcyd3BfDaOcp9B74MYbO7hVvAU4wg5XrkL/xY3C4vRg8s8ec994wMIZtRZoPwZtbjsJtj4uXwXDzQZmwctI70noUseFuCY8ZMdcc729F0vSrse4G89oxEY/oVcTHzD80YY6l90/OqntEHGJJ60RszEyEh6/1V6UoH4rRjlPw5S86l68uCQyceMP0s+cwan7rDPsaH+xE4Q2/KGIM++DAmd3vuQ77y4i51uCpnXJc/saPguNM76GfwGP6ylDjPvGcG+2ux3hfC6IM3Ww7Bk9mIfqOvix9ypWRg2RsHH3HfyZeeeODHVLiPm/tg9K/3eF86ZOKoihK+lAhSLkmWFYS2dl9qKk5ZYwMB06eXILh4UskxVWUOUfC3DVZN+p9PHBGuriUags5FH5KNgPjESQPPWWeu4GClYAxisWraLjdLhfP0DKWiKfxzpw/Qy32Y4ahFa6FFSy0PX5cfvEGQqhY8gRJOxKaI0iZB0jIoyWJmAlDs4Lla1F88+ckPIQT1kQ8Bm9WiXgS0LuHoWLMLXQh3B83/ccTKoA/v1o8HXgcy8O7fCEMNR2QvsHQL4aPJaIjdojY+Iicyz7jMZNQvk5vJHoosQy2PDfnM1xMcpckVWBV5hcUOB3TPVXNsJG34WEU3/LLCJSsxPhAmxmWMsRriP2MoY8MoXzvhZIiwibiE/AX1YrY6vRnYiLSY86tMee5xePOk1UKX0E1BikmmTGKoWD0OmJ/TsbH4TXn0Qsoaf5jn6fHEI/h1IP9LhnTFAGKoijpREPDlGsGS8cXFbVjaCiEEyeWoq5uCVatOqz5gpR5gxXIR5L5fBLTfrNt+4zdHIOZbcLKX46k5RLxBxl5sFL5e7qPATk1APMB8VwKPVlVQPNuJOk91LLH3k+voLxl9vE06P3ZQG6tXaWM58hKr2Unpx7rh2Xe431FKUWZAzAJs9MblIkiw63k12r2uYI54oHDCeLEUJn56XskPGy087TkCgoUL5f8QRdCUcfd0yRhXvQ0GG46KKEwgZLlZlLbg4GTbyBZtBTBinXoPfyCXNeftwhR059YmYyhZLwGxR8KP2yLCFSmffRUEk8g0w8dWtFImWfQs22sr3naHkvCsijGUNwJVaxH76EX0LH7W4jT682MUxRkIy2Hzr+Q6RMiyJr+0rHrm+K9w0TqhVt/QfqMv6BawjMLtj0moZqd73wH4eptcPnDCJSuxHDLEelPnmAuvOb9rckxyg4LZVPips/3mGNXXKNvRlEURbkYKgQp1xQ7X9BZRCIByRfEULHFi0+nu1mKcnlkLbIFG1b58mUClTcDo70AVzYdo0BmGazNv45kbx0wPgQwJCxcDmvFx5GcGIVVstkWfnxhWGs/jeTJHwPRfliVtyCZVQEYw1v2n/qJ7RHk8gEZ+bCMEZ+sHiu5twAAIABJREFUvtM8t5N4ove07RVEMUnzAylzGU4IM4vgcPtE5OFklFtKhCFMKMvE0cON+83kdERy9YSrtyIeHULCTFZ9OWVmf45cI6NwiVxvqP4d8WYIVaxDqGqj2VdsJparzTkjtueBmRQnTJ9jPhTmIWHYSiokjR5ETl9QrsO28DV6KUwMd0kYmyerCK6MzPR+b4pyhYRrbkDzy39n/+4zspC3/iPnfsemH4YWbULp7b+OsZ4G6XsVO74gubGY8Dlz6ZgINeHFW0S4ZZ9hHiD2yYmhbhRueQzZK+6SRNK5ax7AYP0eyc1FLzsmik69lr3i7klBdcS8pdP0pWL7nNX3wukP295Gpt9G+5pRdMOn0/p9KYqiLHRUCFKuOSwpz3xB9AxiSflgcAiFhZ3pbpaiXBpfFqzFxtCt/ymsrEWwlj8CxGMQX3hOan05Ig5ZhWvs0BJPwM4ptOwRWLExeW6VbpHr0NvHWv345HEZ5vUo4DbHu4Pmuo/ayaPpqcBjPWbf6l+ww8OMkZ08+j07txBfU48gZY5D7wKGl1CECZatRtby28VTSMKwDPS+CVasFU8D5hLicwo1zDFCgYcCEPOWUOBxmj5E4cZr9jOXD718OHHlJJYeRh4zgWUOElYny137oHj7MByG/SSzdru8DyejPIfHuTJun6oOxkmv5fYgWL5OPIkUZT4RLF1thqBy9B55WYSXklufNMPJuYTn/M1nr7ob8dEBsD+4MrKlDwTKV0sIGPtMzqodMpbx9x9evA0ZRUtljKJwyz7JsY6CEvsiwzLdiVwU3fQ5MzRl2qJvuAB56x8RcYnjF4Uo9vXCGz8Dd0aOhHUyVxE9kXx5lWn7rhRlJvD5fIjFYohGo+luyrxjaGgI8XjczAGDcDqd6W7OgkWFIOWaw3xBOTm9ki/o8OFVOHWqFqHQsCSUVpQ5DcWexffAGuu3E0Iz78+FULwJ+s7f55sW4kJhKEUg/+L7M3IvuKbL9g6yGwFrzaftYy72/ooyx2Aunuzld4i3DyePqfLU05Hy7cHz91tun4hAF4M5gd5zjQuOvzC0jBXBuJ13HX/K88dMcKs2SUgZJ8gqsCrzDVbcK73zN2E5PRJyaXu6nQ/7ovOCsMfp/WJ6n6EY9N5rWOdfw4x3FH/OvWzZ17ig76WOcZjXc1bcJcKtpWKrMs8pKiqSv++88w6WLFmCsrIyOByafvdS9Pb24uWXX0YikZDv0O1WWzZdqBCkpAXmCyoubhOvoJMna2VbteoIXK5YupumKB8Mq4F50xg2wlCw7EXpe39FuVImJ4cXy/kzd7BEpFKU+QxzX81l6KHHcDFFuR5YvXo11q9fj1dffRX79+9HOBxW75ZLQPEnEomgq6sL9913H0pKSlQ8SyMqBClpg/mCqqoazA0hA2fPViIzc1BCxhRFURRFURRFUeYqoVAIjz32mHgDHTt2DP39/RIqprw/lmWZ+V6miGhr165FVtZcXiC6/lEhSEkr0/MFHT++DD7fmHgKKYqiKIqiKIqizEUoauTn5+PWW2/Fpk2bRASix4vy/vA7c7lckhvI6/XKcyV9qBCkpBXmC8rN7cWSJXWSL+jIkZVSTj4vrzvdTVMURVEURVEURXlfmDSam6LMNzQoT0k7zBdUUtKKJUtOSln5Y8eWY2gwdOkTFUVRFEVRFEVRFEW5IlQIUuYETBJdXt4kYWLt7UU4dnw5xsZUXVcURVEURVEURVGUmURDw5Q5g9cbxeLFpxGNelFfXyUhYitXHpGk0oryQSTrngda37HLuyszSzIJ9J1OdyuUWSaZTGC48QAafvDFdDfluiXa24QwhtPdDCXNdOz5NpwHfgRWqlNmlmR8HKMddQgE0t0SRVGUuY8KQcqcIiNjBEuXnsDEhBunTtXA44li+fLjcDg0+ZryXphwrrq6GsHeQWNTt6S7OdcpSaDACXfR8nQ3RJklmNugvKwU/f0DsBJN6W7OdUsyHEc4kG/GuYx0N0VJA26329g3SxFL9gKJvnQ35zoliWS+HyVFBeluiKIoypxHhSBlTsHk0aHQEJYtO47xcQ9OnFgGv3/MTPbPpLtpyhyktrYWX/jCFxCPx9PdlOseVnbw+/3pboYyC5SUlOCzn/0sxsbG0t2U6x6Hw4Hs7Ox0N0NJA6tWrcJf/MVfIEkvS2VWoejGikSKoijK+6NCkDLnoBiUldUvyaMPHlyDI0dWSHhYWVlzupumzDHoycBJrKIoV4/H45ESuIqizB70BFNvMEVRFGWuoAk1lDkJQ8EKCzskTCyZcODo0eXo7s5Ld7MURVEURVEURVEUZV6jQpAyZ2FZeVYSW7rsBAYHwzh6ZIX5q2XlFUVRFEVRFEVRFOVq0dAwZU7DsvIsKc98QQwRczgTWLduP4JBrbyiKIqiKIqiKIqiKFeKCkHKnIf5gWpqTiEWc+HEiSUSNrZ27QEEApF0N01RFEVRFEVRlAVK1//P3nnAx1Gda//Z3tR7r1a1invv3cbGYJsWMBhzDYSQALmBhOQGkvAll5ZASMKlBAjF9GKMjbGNce+9yEWSm2T13nZXW6TvvO96ZVnIGIzlleTz92+8q5kzM2d3Z+ac85y3VFTg9OnTqK6uht1u93R1ujXuhAmU7IVe6W+J55BCkKRHoDdYOJMYkZubDEoRmp19QIpBEolEIpFIJBKJ5Iqzbt06fPjhhywEORwOmRXwIlAGWpVKxQkq7rrrLgwZMoQTv0g8gxSCJD0CBVxiUErKUfGQVSAvL4nXZUkx6Krm6NGj+OKLL3gWRtK1qNVq/Pa3v5Up5HshRUVFWLVqFXJzcz1dlV4PZY2aNWsW+vXr5+mqSK4w+/btw6effiotBq4AISEh+OlPfyoHmJIu5dixY9wHJRYuXIiEhARoNBoP16p709LSgtLSUrz//vt47bXXEBsby4vEM0ghSNJjIOHHYLCyZRAJ7iQGQeGyDDIazZ6unsQDWCwW7Nq1S7wxQq+RaXm7AprbqmuqQJ21nBtwSe+jsbEROYdycGBXLgL00Z6uTq/F4qiHzteJUaNGeboqEg/Q1NSETZs2IdIvGUqFytPV6ZU4W5yobSqHX0ihtMyQdDknTpzgiciZM2di+vTp0Ol0bPEiuTB0X6akpMBms+Gll17iiaiIiAgpoHkIKQRJehQKRSsM7dzE8vOTeF1W1kEpBl2lUGMyIu569I0eAY1K5+nq9DpaW1uw4cinWJPzjqerIukiqGPmcDgRrs3A5IgHPF2dXsuBquUobN0kB6hXMdRejU25ETFBaaLvImNjXG7MzXVYl/MRimz7PV0VyVVAbW0tuzkFBgaytafk+0HfWUxMDL9WVVWxS50UgjyDFIIkPQ4SfoxGC9LSSAwiN7E+IAE+M1OKQVcrRp0P/E0h0KqlGfjlpqW1BUatl6erIelyFNAqDfDVhnq6Ir0WvdobylY5+L/a8dL7wd8rFEopBF12tGod9FoTYPN0TSRXA2QlTcGOZcDjHw6FGyDrKRlXybNIIUjSI2lvGdTSosDx44m8PivrAK+XSCQSiUQikUgkkq5EuoNJeipSCJL0WFyWQWakpx/hv0+cSOR1ZBkkxSCJRCKRSCQSiUQikUi+jRSCJD2a88Ugl2UQZRWTbmISiUQikUgkEolEIpF8GykESXo858Sgw/yeYgbZbFpkZ++Hj0+9p6snkUgkEolEIpFIJBJJt0EKQZJegVsMysg4BK3WhiNH0mC3a1gMCgys8nT1JBKJRCKRSCQSiUQi6RbIMOeSXgOJQXq9lQNI9++/F3V1vti1axBKS8M8XTWJRCKRSCQSiURyFbF3L1BQ4OlaSCSdI4UgSa+DLIISEk6wGERWQSQGFRZGc+wgiUQikUgkEolEIulKVq4EfvUr4I03gNJST9dGIvk20jVM0itRqx2Iji6ERmPHwYOZ2L59CMxmA/r0OQ6Vyunp6kkkEolEIpFIJJJeyNq1wNNPA5s2AWVlwPDhQJh0UJB0M6QQJOm1kOATHl7CohCJQfv29eMg0qmpx1ggkkguhZqmMtQ1VaKl9ZygqNOaEOYbC5Xy+z9Si6qPI69kL4YlT4deY7po+arGEtSZKxHhn/C9yksk3Rmzoxa1thI4W889i3VKE3y0odCrvL73cSqtp1FuyUeQPg4hhsSLlm+0V6HBXgEvdSC8tUGgbJMSSW+lsqEI9eb2cRIVMOi8EO4X/72P0dLagsLKYzhVcRijU2dDeZF2jspXNhTD3FzP7ZVWrb/E2kskPRMSf5580vVqswHHjgHffANkZkKMSzxdO4nkHFIIkvRqlMoWBAdXYODA3cjJ6YvDh/vC4VBzunmdrtnT1ZP0QI6c2Y6NR5e0iUF6rQmJIVmYM+wXMOl8vvdxGizVOFOdC4dzIqAx4rsGpHSez7b/E3klezB78H0YmjQDKqXqMnwaicQzlJiPYmvZYlRbz8DZaoNGqUO0KRuDQ25AhCn9ex/H4qhHlbUARrXfRcvaW6zYX/UFdld8hsyAGRgWejMMat8f8zEkkm5La2sr9p1ch825S2G1NfHfRtFGpUYMwo0j/vsHHafWXIGi6jwWeS4WU8Jiq8eHm59BWV0h5op2sV/cuB/1OSSSnsTOncBTTwHr17tEIMLhAD7/HBg/XgpBku6FFIIkvR4Sg/z8ajmDGFkCHTuWiuZmPWcY8/Jq9HT1JD2MgQmT0Dd6BJbteRWV9cXc0fUzBsOg9UK9pQpHzuxAq/iXHjkU3oYAtiAqrMpFmF8cjpfuR1RgEqICkuCt90dSWH+eLaWO9unKwzhdcQTBPlFIER319tZF1Y2lOFF2CLHB6dhz8hsMSpwkths8+C1IJD+OWK/+CDX0waGa1ThVvwvZQdeIdQOgU5lgdtSgqCmHRZ5wYypb+zQ6qlDTfAYKMQy1OhugUepZMDKqfRFmFPeTJpgF0yrraRaZ9CpvRJoyYNL4t52zprkIdc1l4hxeqLOVsDVRtFeWB78FiaTrUCgUGJV6HQaK9uKjrc/BajPjjnG/h1ql4zaqtrEcOWe2QqcxICN6JFuaVjScQXH1cYT7J7DFamJoFkL9YuFrDEIf0V7RBISzxS7ao4MoqjmBSP9EJIX3bzsn3YPldWdEm5eH+NC+2HtyLbJjx4i6yJCkkt7PwYPAM88Aa9ZAjDPO35aXB3z9NcTYA4iM9Ez9JJKOSCFIclVAGcVI9MnIOMguY3m5SWhsNCEr6yBCQso9XT1JD0KnMfKiVxuhER1qX0MgvPR+KBad4rfX/z8EeIXC7rRjfc5HuHP8H1FaexqfbPs7YoJSRNcb+HLva7y+pOYUduSvQN/oYdhw5DNsOrpEdLT7sQsYvbYXgvaf3oBgn0iMTZ+HN9Y9zmb34X4J3NGXSHoiaqUOJqWGBRt6TxY9tJRbTmBH+Qeoai6AQeWDQ9WrkR00A3qlF7aVv+eywhP7kHtXRsBkmNRByK/fjGTfMSwA7alcwmJSpDEd3trgNiGIBr6llmNwwo4Uv3Gobj6NcutxRHr1hRLSuk7SOyGLVa3GwBMOzhYnfI3BPPFwqvww3lj7GOKC+8JiaxDt1ce4d8rTOFWWg0+2v4C0qCFotluw+sA7uHvSX3Ci7AAOFmxCduxorNr/NnadWC3KDEWTtfY8Icgh2r6cM9sQHZiMoX1miGP9HTVN5aJdlMFRJL0bEnqefRZYsQKwWL693ekElixxWwW1iDFIIxwOB0wmE3Q63ZWv8GXEIj6w2WyGt7c3tFqtp6sj+QFIIaibYqm2oHBzIZwOGdj4+6Dz1iEoJQg+0Rd2zSExyGi0sCWQ0WjGkSNp2Lp1GDIzDyI2tkAGkZb8KPaeWAONWodZg+6FWqXBP1c8iKPFu2HQGOFosWNi5q3w9wrBv776JfJK90Gj1PIMbVNzAzYf/RwjU65lly+NSsvHceMUHeu9J9YiPqQvfIwBMIiOfU7hVoRSTCKFfIRLeg8k1pSZc2Fx1GJw8A0I0sdie/l7ON2wB1GmTHG9a5DoMwzJfqOwtexdlJrzEGoEbE4r6mylqG4uRKAuGsPDboNJHQC18lyH1OpoQGlTLlszhBtTUG0tQLk5H2Z7Dbw0QR781BLJlaW1tYUnIfxMIbhxxC9Rb6nG35f/DEeLdvH9QfML1wxchNaWFvxz5UM4VrIHdocNFlsT6szV2J7/Fab1W4ABCROg7OAoZrU1IqdgC/pGD+cJEprQOFK0XbRvsz30aSWSrofSwy9e7BJ6Gr/D0aCurhUrVx7CV1+9i+PHD8ButyM7Oxt33XUXUlNTr1yFLxNOpxOvv/66+EwrUV9fj6CgIDzwwAPo37+/FIR6CHIU0U1pLGvEntf2wFLTiaws+RZ+cX7Ivj37O4UggsQgvd6K5ORceHs34ODBDOzYMVQ8wHyRlnbkCtVW0htpaq6HRqXhOEFatQ5KhUp0npuh1xhEZ1gDb9EpNmq9xXol9cTb9nM4bWiy1sFb59pOIlJ7zlTniyUPNU2lOFS4BY2WGuw+sQaj0+b8oODUEkm3R9wXFMeHBCGD2ocXtUIr1jXz4JWEIAokrVf58HsHmuG+kxyijL3FwlZEJrU/WwW1p9J6ChXWkyg1H0Vx02FYnPUI0MeyBZIUgiRXE3R/NVpqoVPrWawhwYdi1NkcVvG/QrQrWvjo/cXfza7Ida0tbfs6nFZYmhvgawjg9qo9zhYHu0EXVB0Vx6/GruOruL3ad3I9hifNhFLGtZP0QurrjXj+eS1bBDU0nFsfJJqVtDQgK8sVJDolBaiq2oulS1+FVuvEnXfeiaioKLYKCggI8NwH+BG0iGdHXFwcHnvsMRa1nn/+eaxYsQKxsbEIkynSegRyFNFNaXW2wkvnhevnXY9rr73W09Xp1qxZswZLNy1Fi6Pl4oXPQpnEIiOLYDI14fDhdF7q68UAvvqM2FrUdZWV9FoobtCBgk34at9/uENstTciMSwL1Q2laLLWYIVYr1ZqOK5QfEgGSmpO8n4kHCWEZeObnA9Q3VTGJvSDEqe0CUJ7T65BqE80/mvSn6HTmHCqPAevrfkdx3EgKyEZe0HSW6BrOVAfg9y6TdhR/iG8NUEs4KT4jYFeTe5glRxTqMh8mC2HksV6o8oV7JnEnBY4cKx2I74pfoktiGK8suCrDRfD3haUWfLYgm5a9K8Q5z0QBU37sLdyKWcci/Xuz8KSRHI1QJMRFMD5vc1PYemul9FgqeKJC3LxorhAtaIdWrLr/8TArpktVslV+ciZnSwSUdy7qKAUfLn3dXZ7DvAOx8CEiXxcmtQ4cHoj+oRmY+GEP6GltZWTKyzZ8S+U1Z3muEMSSW/C4fDBkSPTUFSUxmLPkCEkjgB79gC33w7Mng2Q15dGQ/Mcdrz66mYolVbccst8jBgxQoxF1OyqqVQqxT578MEHH4jxyGEEBgaKMrdg1KhR+PLLL3Ho0CEWXfLz81k8IgsicsN67733sHnzZhgMBjz00EPIzc1FYWEhbrjhBqhUKrbWofMYjUZ89dVX8PPz4zIk2syYMQP79+/HsWPH+P11113HotTbb7/NxyRxatGiRQgPD8crr7wCf39/LrtgwQLxOYeIz6Th+o8dO5bPRa5udJ7m5mauq6RnIIWgbgw9GOhGj4mJ8XRVujX0cFJewmCYgkj7+9dgwIA9MJkaxQMuBc1l0xFiFMdSyJkryXeTFDHgvNS4KZGDcMvIR5Bfuo8b9oUTnkBkQB/RqS6HSe/HneB6cyVuG/NbFoJcMRsc0Gu9cPPIX2FH3go0WmvPE3YoHoq/VximZN+OAK9wtgBKjhiIKf1uh1NsI2sIGSVI0nNRIESfyDF6fDShvIYCPI8KuwOnGnezy9eQ4BsR5zMQhY0HON4PxRGiwNBRwZlI8BnKgaXJxiHUmIRE9VD4aSNRbjnucnE528Wh9z6aEPT1n4xY7wHiOAEcmJqsiDRKA29XqaQQJOmdkIBDExUk1PDfoo3JjB3NfcyT5TnwNgTivqnPirYmlMuSCzK1bRV1Z3DnuD+I94nsxkyWrpR17LbRj7JrWVNzHYJ8zo96G+oXx+fiWETiH7mI1ZrLxb0ss7RKeh8WixJpaRvwxBP+GDhwKAwGgDyi6ushxm+uxU1dnRklJcUICQlBdHQ09Hp927ZTp07hnXfeYXeqn//859i3bx8++ugj+Pj4oLKyksWhWbNmIT4+vk0YamhoYGHm7rvvRmJiIh9327Zt4hwlLMaQSEOiUG1tLQszx48fx+DBgzF9+nQ+9rJly1gwom0k/AwaNIgn1isqKvDrX/8aO3bswNKlSzF16lQ+Du0/cuRIRERE8LODoDiVVGebzYZPP/0URUVFmDZtGnx9ZTbOnoIUgnoAMiDsd/Njvh9X3CAzMjJy4OdXh/3avqg23IUSXzWa7BADhstYUUmvIj1yGHd03ZY7ZO2TGjmYZ08JivVDpvB0dZJQmRnj6hxTeSobE5SKyIAkaNRaztoyru+N7P5C+6hVrkczzdIOT57F+7vdwMjVbHLWbfz3pQigEkl3gQadYcZkhBgS2+JdUVwfygZGwg7dX7Teba1D7yNNfZEZMJUcWNjlktzAAnWxfK/QADc9YCJSW8by3+796JiJvsNYoKV9CEobn+Y3kdsPpYy1JenF0DXeP24cWtutI1GHxKD0qGFUwhWX7qzLMrmGDYyfyG2MWrRj9JoYls0TGPQ+yDtCtEHzXe6a7dyTKSj1qNTZbS5gLCoZAjEp81bpxizplZhMdfD2rkJRkQ2ffALExwOLFgERERfex2q1suVNe06ePIm6ujrMnj0bo0ePZiGFxB8SVkjUIZGnb9++bPmzadMmDs5M65qamtiCZ8qUKSzwECTstJ69l9u/kgVPZmYmx+9Zv349QkND+X11dTXKy8v59ejRoxz0mayHysrKOO4PnYNiAU2YMIGthshaiSyA3NTU1OCll17Crl272Ipp3LhxbBkk6RnIJ7NEAnBa+djY0zCfPoW9x9PwUf4gWMR44ca+QLj3xfeXXH10jOVDUGe3Y4fXxxgkOtvDOZ4CiThuG56OZd2WRR3Rqjtmk1BcsGx3gTo6ZHrs7S1vHsl3Q4KNsoMFZmfrvDSBiDJlIEAXxVY8bhQdylJMIag6BqlUuEQhRfs1ivOCSUskvRn1t+4J1+SFWnmuHWsR/yjrZUb0CG5j2u/Tvr0iwbWzNkjRSdvEFgPdvL2SSC4VpbKVJ5RXrgTKy4Fx4wA/P6Cz+WnKDkZuXV9//TVb9JC3B60jUai9hQ1Z8lD/icQbes+TFWI7vScxh97TtuHDh3OA6dWrV+OLL75gkYhEG9pGCx23vYuW+9h0DBJy3K5dblGHttOSnJzMohJZI9G5SASi9STu0Dnai0BUz1dffRVHjhzBL37xC7YqonLSgKHnIIUgieQs5CqmacpH4IndULfasVo3HoX1wB3ZQGaop2sn6amQ5Q+Z1rs6w723caROB5kzUyeHfN3vvfdenkGSSC4HoYYkBOvjWfiRSLoLBQUFPDiiWXL3YK6nQhamfcL7Iy4ko1PhSCKRnKOyEigt1aG5WYP584HhwylUBaC/gO5JogtZ7pCL1csvv8yuWV5eXpxpi/pKFIvnk08+YZGIypBVELl8katXZ2zdupXduMhFjAQfOn5wcDB27tyJxYsXs0hz5syZ7/15aOKOMpht3LiRRSKKERQZGclubBeiuLgYBw4cYGui999/H0uWLEFCQgJuuukmtliSdH+kECSRtKe1BXpnPWYlNsKUAXyYA/x5I3CzeD85ATDJvpHkB0KzqJQ9jNxcFB2EIIrZQJa75B7WE6HOBwUeXLduHZsaU6eAfMVpQERmzhLJ5YKsflrgZHeUjnqqs9V+NquYVs5ESq4oFK+DBj80mBs6dCgvNJjS6TpacvYMVEoVZwsji4KO9xKlkKdVUiSSXO0cOAA8+STwzTcZyMw8juBgIDy8c0ug9pCw88gjj3Asn9OnT/N9RhY45PaVlJTE4g71o8i9atiwYZyRi6x8KC4PiTwUj4di8JDYQkIPuXTRs4Ym3ij+D0ECEsUVSklJ4WcRWQ1RPKKZM2dyNi96T8ITWfyQEEXnpmOQEDV//nw+J7mqUf+OhCByIbvmmmv4OB1TwpMITvUh9zC3RRHVVaaO7zlIIUgi+Rat8BbPsGl9AMpG/94h4JXdwP5S4JZMIDnQ0/WTXAn2nlyL3SdWo9lu4Rg+WbFj0C9uLLRqw0X3pca9zlzBQTjrzJX4+5c/w7WDf4rsmDFwtNhEA+uEQeuN97c8y6l454/9H+g1pose90LnOlWRg+V7/o344AxMH3Dnt9xqLid0PvJbJ/GHlry8PO6Q0OI2Q6ZOhds3XXJ1Q0Ge91Z+jkZHNbRKPWK8+iPNfzwHfL4YlO3L5jRzbJMmexW2lb8Lg8oPo8IWnN3qZPFnb+USFDUdxuCQG9h97FJoaW3hDGK7Kj6BSe2LAcFz4KuV6W8l3w25wVIcjaqqKp7FpyCs5BpBsTfITYIGczTA6mproa3HvsCek9/we73WhMGJU7jN+j7QtV/XVAFfUzDKak+L9up+3Dn+T0iOGACrzeVqQq7Qb61/gl2Vbx/72CXX0+60Ibd4N9Yf/ghpkUMxPuOmSz6WROIpyP0rORlobDwCX98zLAB9nzkIeg64hRVyuSLI1YqseQgKCE39KLcrGL3Sc4Tj26lULLRQJml6T+v69evXts19DNruXkfHcrtykXjkdjUj8YZeaVtWVhYyMjLazjd58uS2urnXzZ07l1/bu4URJIDfeOON57mgUTmyKJL0DKQQJJFcAI143mWLcUC0L/BlLrDkKJBb5bIOmpgAGOVzrldT3ViKkppTGNf3BhRV5+HT7S/A1xjEwaAvFvhy5/GV2Hx0KafQ9TMGYv6Y3yPcPx7NDjOeX/4zzBywCBkxIzE1e77oGNt/VAyFA6fX46Ntfxcd9kZ2QeuqVGLU0K9cuZItf8h0mYISp37WAAAgAElEQVQVthd/2kOdCMpmQdkqaNaJxCIKQlhbUwsvHWBztOCbwzXiHlNiYLw3vPUq5JVbUFBhRYiPBv1ivWG1t2DdkRro1Er0j/MW+6mQL8qU19sQG6hHbJCej3Ok2CwGKQrEBxtEWQVK6mzit7OL712NGFGuWRznaAllvFGiT6he/HZKNFqdsIj1eo0CvgY1HM5WVIp9VEqF2E/Fr2ZbC9TiVa/p2e4enqbJUYMaWxHCDMnQKg04WL2CxZ0RYfMvKljm123B4Zo1SPYdg2S/URgWcivo4jY7a7Gj7ANx/RgwMux2pPqNR7zPUPhqL90UPa9uI4tAJeaj4njjXJZHXUB1jQ9WrToErdaAzMx0DgS6e/dutqBzzwBT0E26f+g9ddIpeCeVIcGBUgETp6usWLqnEiOSfJAR5YWmZid2n2pAg8WJUcm+iArQYdvxeuSXWcR1bxBlTGgQ1/2ukw1cdowoE+Gvw5a8OpwQ911SmCgTaUK9xYGdooxFXP9jU/0Q5qvFptw6nKq0IiXciL6RRpTW2rC3oJHvm/FpfuKe1WLDsVqcrmxGutieHmFCdZMdO07Ui3u0FRPT/RHkrcGKA1Uoq7djaKIPEkMMorwV+0438D02JsVPPF/VWLaviu/F4X18kRCsx8kKC/aJcxm1rjI+4n5durdSHN+BkUm+iBfPgePlrjImnRLjUv3hJZ4nS3ZXolZ8ltHJfuJZoePvYe/pRviIbVRno3iefLqrAvXiO6HjxgbqkFtq5jJUjwlp/jCIc360owJNNifMza6BEQVwJStIylY6ceLEtt+VnoNkDUkLzeB/88032LBhAw+kyLWCBnP0POwYJPZyUV5/BsU1J3HDsAewX7QJ/1n3R/zmuv8gxPfCbh1c71YnNhz5DLuPf40Hr/kngn0isXD8E4gJTkVNYxmLQreN/p1o97Ixc9Ai/Bh9nyxjd+SvxLLdr/Bg0Z1YQSLp7tBtu3q1a5k50xUL6Ne/Bt5/34wtW35YRjwSYEgo6Uws6cySxi3wdFam47YLHYNoL+K0P3fHY3RWtwsdk+5jaf3Ts5FCkETyHYjxJYKMLkug1GDgvYPAi7uA/WUuQahPgKdrKOkqaCBImb+SwvsjISQT+06tY+uejaLTvCV3KRqtdRiVci0mZNyCXSdW48iZ7ZyCWqc2IKdwC+osVXhx5a84pfzH257DnCE/x9rDH6Gk+gTe3fQk5g57ECfLDrCZ/cxBd+PomZ1Yuf8tVNYXIS1yCOYMu5+3vbzqESSEZuFAwUa2GqJOeqBPeJubGW17ZPa/8crqR7ssApG5uYHFnX/+859obGxsmy26EDTYWbVqFWbMmMHmxJSSlHzWWxx2RPXxZpHliaWnWQB65qY+PFD9+lANPt5ZzoM7EoJo0Epl/E1qPHlDIuLEoHDlwWp8Lga/NHD7w/VxqGp04P6383iQ+f/mxiNaDH4/FgO3ZfsrMVaU+f3sODFAsnOZUF8NnpiTgHA/Ld7YWIKvxLHGi0Hjb2bG8KB64b+P8sD48eviECKO98bGUqw7WotrBwRhwagwMahtwP98clwMTg14WtS52eHEP1afYSFq7qBgzB8ZxgPJxz49Ka4XAx6ZEcOD6Tc3leCkGPDOyArEjOxAMciuxwurziA5zIhfTotmUerdrWU8+J2WFcAD1/1iUPvOljIWru4YFc5i1oqDVTzgHS8G5yOS/HjQ/86WUpSIQblvZBDHAiChjkzCyeybXFRIUPjwww/ZHJ3SxNIgldLBkhk3lSFTcjJRf+utt1BYUIQYxYguuHpaOYAzxfihDGG1thI02CuQW7cRO8s/Qm1zMZL8RmJIyE2oshbgSM0a2FuscLTaYHHUo8R8DJWWU6hpPgOrswEapZ6D2pKVEQWtpfvUoPZBo70S/QJnsfC0s/xDFnTCjaniuDezZc+eyiWobi5kEYqOPyz0FiT7jRb3jEvoI0ulYEMitpe9L2r83df3JX8TrVqcOHEt1u/oh4qKRjz8sAJ2exkH+iRTfDL9J/GHfpPPPvsMkyZNYlN+sjb5/PPPOR4NWZcQJyusKBTXrbOllUXRsjobPttdgeIaG2ICdSwEbcqtxZf7q3GNuO7iRJnimmYWP8rqbYgX9xNd7yTgrDxUjdn9g1hUKRJlPt5ZIe4tO5LEfUlC0NqjNSzczhkYzMfJLbXgvW1lLKamRRhZCFojtq8X98uNQ0K4DNXtg+3laGx2IjPKxPfo53uqcKCwkUXdGFG/o+LeWSyufT+jBpnRXizA0Gege4oE2mh/LQ6L92+LeyHIS4PsGG8Wgj4RnyFP1CFAPBuixGfIKWrCW5tLua4D43xYCPpQPEtOie8oVNQtUhzn0Jkmvhfpexmc4M1C0HvbyvnzRvi5yhwobMJ/NpWy0Dy8jw8LQYu3lvIzhERnYv/+/RwLg2bXR40adcHfmp6BbtGHRD2yFqJZehLPG0TbwYrKZXxg032gVWuRHj0cfqZQ0UYtQ21TOYtCG498Kq6TFkzO+gnGpM/DmgOLkV+6D3qdl7iftKJtWyt+SzNe+PIXuGHEL/H+lqdx+5jfY8nOF1FeW4C3NzyB60X7deTMNngbAzC9/0LszF+FNQff5XaQMpLNGnQPp5N/Y+3jLBodKNgkfvNI3DH29/A2uDpK1D5mxo5EfGhfvLfp6cv34SWSLqaoCHj7bYj7GJgyxbXOnSpeeiNLejJSCJJILgI947UqYFAEEO8HLD3mWo5VugSicXHSOqi3Ym6ux6ajS8SgqBQaNQ2cErgz3z9+PLtjfb7j/8T7CWgSneH8sv2YkHEzEkOzxWAlgM305wy5Hya9NyobiuFw2jE581acLDuIiZk3IyViIA4VbOYZlcq6M/hg618xvu+NSI8agsUbn8Sq/e9gUuZPeKY3JjidrYpe/fo3yDmzBaNSr2uzSvIy+LMo1JWuBwYaMGg0ePPNN3k2fPv27bxcKBAhzRBRGlHyfaf3ZDo8cuRIPPvMU2LEUsYC0H8WpUFJ/uT+Grb6uXloCAshNEgk/MWgkMqQdQ6JN2Ttc8vwUEzq68/ruIwYCP55XgJvI+sfg0aJWWJAOzjeG4E+rpuSBqDuMiQG0eCOLB3iRHkaFHIZMci8f1IknzvUh8qoMDrFF8HiPVlB0OlosEgD4UBRliyJ1CoVCzKJIUakRph4QE4LDZ5pgE111KgV/J46ilRXqjV9dipD5yaLI52oM9WRBswOh2u63SGOY7Y5YbW7sn/QILSm0cHCkt15NiOIs5UFNZvTtQ9ZJJB1CVlquQegNOgkaxLaRnEByI2lfRl3ZhFaz+JeF/UISNDJq9uMUw27UWMrRlbADIQb0zA95mEWgg5Vr8LJ+p3Qq7xRasljwai//3UotxxnEamP7whOKX+g6kuY1IHo4zcCFebjLAplBk5Dbu1GNNlrUGbJx/H67TBpAnBt3O+RU7Ma+6uXo6/fRNTbSzkYbnbQTOSI81Fdor2yYVT7ua5xtbcrXbZSA3tL1whBCtgQH78eaQP8MGtWFmJiFNi8OV0MKJ7Fdde1IC3NZRm4aNEiLFiwgGdq6f4h8ee5555r+x0pIDtZ/ZBASdenlq5tHy1euC0J4tJps2K7f1IU7h0fCY2KrkUlgsV19q/5ogzOlXlwajSXc5eh6/ulO5LPK/Pw9Bg8NCWar2etSomJ4h6k+4OuPMPZMo/OjOVy7jKDEnzw2l2p55X520/68D1C9zudj+73Cel+fF/ota77/h/iMzjPfgay9CMRi+55ugf1GleZ/7s9+bwydM9PyQw4r8y/70w5r8y1osw0KqOk+rjK/GdRKn9fhrNlrhf3N52vfZnF96ZzmRv+eYj/njdvHm6++WZ+3lJ8jItBMTjIGohcMeje+9///V946X26ZPTYaK3F1wcW40T5IRZhIgMTeWJiWPI1LOIsEe3V4MSpXC6vdB/mDP05W5HqNEbkFG7FDcMf4mpV1Bextd7U7DtQWHkM0/otQFxwX2zNXY5Wsb246jiW7PwXZg28RzzHEvHupqfxzaH3MChximjritA3ejhuGvErLN7wFxwt3sVuagTdfy5RSMEirkTSnamqAtascaWEHzgQeOIJspZxxQLq4XHhJZI2pBAkkXxPyDoo2ATMzwbSg4F3DwIvbHfFDiLroHh/T9dQcrlxtraIwXcTwnxjMV10hkN8Y7D20Ac4VLhFDNK0osN8RgzGGzjGQrBPFIb0mQpfYzBKa06yu1eIX7QrVs7Z2d9Ar3AebAaYwmDS+fI5aHtZXQEHjqa0vaF+MYgM6IPCqlw226ftiaGZYl0id6IpZlF7Ogag7grc56AsEmPHjuWZcBIQKJvF5s2b2fKEXFdooMPlxWiCfMfdAyXKqENxgwx68bcFLJKQa4gC58ZDNAANEIv709DArGOZYLE9yOtcs0WDvJFJPvxeqXTVkiwd4oJ0bfuQ8NNWhoMZAtnRXsiK8morQ1YG14lBIP2tOltmYJw3+sd68+CS6ktWF/eMj3ClYKWHgfhJp4uBJQ0SxbiXy9Cg/HfXxvE+NKj2alXhlmGhokwriz5Uhtxm2pcx6VS4bURYWxk6NglZVEfqbNKg2luvxr0TIvhc7jLD+viwJRVZSG2vAaelJbHNnXKWFvp7yJAhbaliyU3v/vvvP6/MmDFj+Pd57dXXYcnriqvHFc3H3mJBsCEefQMmI9KUgRMN23GgcjmanU2wtVgRZIiDTmWCvzYCKb5jEOc9UGxrFOu84KUR15Lal+tNv6FR5cNWQFqVkdPKK9mqpxX1tjLYxD5RpqGI9urHwlBBwz7U2ytECTV8tGEcQ+h0w262OKL76xwKdHlWP3H4AP8zmH9PDSZPphgQQEODClu3GpEnvvv+/cW16EOzzjpx/+gQEXHu2qe4M+2h64CsWtpcF0U5o/Z8Vzve1n6SQuHa58eWYdFI9d1l1HSfdDgOuXe1p7PjdDz35SpDYplWff460w8o4w6cTPcRpXz+LqgMBWkl8Yfc/fz8/HgdWXpxQNUuus7I6qepuYEzVd44/JfQqY3YfXI1ckv2ie/Dm+PWWexN9GkQ7p+A4cnXcNNE1kHUXoX6xaJStGlkXcTPcJ8I8QxScbtl1HlxO0bx7UrrTrMlXWbMqLP7xaCg8hgGJUxhAYkmQ8L84sQ+PqK9Mp9Xx6779BLJ5YPmuB5/HFi6FHjkESA11SUIfd9YQBJJT0EKQRLJD4Ce/9QvHBoFJPgDnx0BluUCRyuBW7OA0bE0s+zpWkouF156X0zKvEV0iKPEwEuNmqZybMn9AjeNeBgOZzMKK462BUVWKSi2jIZnPakT7Whx8Az+eZlXzr6nuEDtgyn7GAPR4nSgqqEYAd6h/BrkHdE2a0qda3dGBk/jFhBI2CH3CHJdoVShJAJR2niyFKJ0ouSO5IbqzRZL7aqv7PBRuIPV4Vydlzl/papDIWV75egCZTr+TcVpMNmxTPshIe1CcYbO7eQSq84/t4KthdqXcR333DrVWUGofRkagHYsY9Cef+zzzg20xS9y14G+346Zity/1bnPqei0DK1Tqr47Xs+Pgaxu0vwnIitwGuhbJTev4sYcFoRo2V3xKd8PnFlPXPMqhfrsNa/kgNAtIAun9sFJFFyWhBwSYVvPbiOrHqXYt9FeDbOjFk3iVa3UivP7nhUUXZYIirP7ewKFolV8361w/yzXXgtMmEBBh10i0N69rgFIrmhXnnsOmDNHDjx6CmlpaexySRl/wsLC2JrLHeCV6OrnN1mizhp0N7dV1BZV1BeyK/PDs19HSfVxdl/G2dhX7vaqha3fFJzEoLW9MNruWWuj7Jbu1eL+8RXtld1hRXVDCQJ9IlDTWM4xhdyozt673aG9kki+L2RIK7ow8PUFkpKAuXPJAhCgsGxeXvI5LOmdyCGrRHIJ0NgrVDQMC/sDGSHA4oPAX7eKTnwJcFMGEOfn6RpKLgcu6w+NGMzTVLeCrXhIoHlz3R/YasfaYbbTDXWKKa7O35b9FHeOf/zcQFXrxbO1721+Cs4WO1sBadQ6Ns+fmPUTvLn+TzyDSrO184Y/xDGKujMkPrgzRJDLClmXkBUKCWAygKDkHAoWdijDF2FQ+0GrMmF3xWc4VrteXEOdd0U4a1drKzaVvIFUvwlt60nY8dGGYmvZO3C2OmBQefP6EEOSOI8GW0vfwZbSNxFsSMCIsNsRqI/t+o94iZAgRBlo2GhQ4XJB+MMfKBYNkJLiWv/b3wL5+eQyBnxHWBqJB4iJicFtt93GVpIkftNzz52Z50rDQWhFm+F2G/Y2+MPfKwzPL78PsUFpF9hHyTF7KIDz/352JxaMc2cEU8Co90WYXyxe/+b3HOuOoImO2KB0DE+Zib+vuJ/12fjQTJ4wsdl/WNBciaS7UFMDPPUU8NprwL33Ag89BEyd6trWhXMkEonHkUKQRHKJsHWQuINGxgCJAcAnh4Ev84BdxcCcdNGIJAIBFw8hIOmmUFpbCqzpEmNcnXpKI3/35KfZGkijcqVI16i1iAvpy/F86D0RFZCEx+a9y9YKBq0Jf7nlC95Gg2FKy2tzWDjw85Ck6VyehKYp2fMxru88cWynOI+ej0+nfeLmTzluCZno/3Lmy5z1qrOsZfdP+zt30qmcp6DZ747pRSVXN8m+o9HHZ/h5GcKMah9OAU8Bm8lCiK9bsiKAEml+E9rKUqyg6+OfYLGHLHsUZ2OLkMXBiND5GBx8A1s1kAURp8sVrxQgmrJ+tYh9aJtaoeN9psf82mWZJspMiX6IxVmVokNmFKUBEyLvcx1LeWUDv7l1A73eNQM9dKhrAGI2A6GhwPLlQGGha11TUyaKSlWorDMjPqgBalXXZDiTXJz2qZq7OkX8dzFz4N2YMeCu89oGg9Ybj8x+na19KFYQWf9oxSsFdm45axlE9wS5cj1563K+J2iy4q+3f81p4umipHbFLto7aq/6J4zne5CSGFw3+GeY0f8utsqjY5OrNIlCf7rpY7Fdx8f971kvd9pWkUD182nPe/T7kkgo4enp06Jfp3PF/RkwAIiNBWbMAPz9pQWQ5OpACkESyY+EvDzCvYG7BwFDIoH3DwGv7gI2nAJ+kgkMFuv08k7rcajYvP7bP5xOreelPTxwbe81JAae1KFu20dzThGkDjZ3sjs5H3XcO9I+tXxn+32fbRKJp6B749tp4hUs7Kjxbaux9mVJGNKqOlfTeX9lu/0V514o1lBn5d10FIDaw9s8PACg8bF7jEzhaH72M+Cee1yBSsmCqK5uJD7fOAkmxREEzluJUL96MVhXiQG2VTxruiY9uaRzOkvf7AnUbLX67etar6HYUmfjS6nalz0HCbEUQ8hN+/aK3rf/u/35Oh7H5ebavq3To3MUbAkrkXiKujqX6+2//+16tj7wgMsVjCwwSWyXIpDkaqF7tGASSQ/HHTuIRB9KM08i0Ic5wB/WuSyGKJh0atC3Y55IJBKJRHIhOH6VxrW4CQt7DbPGnMEt4wMQHdyIL3Zk4elPpiIutAqP3bwcWXGdZ/OTSCSSqxWKAXTkCAXeBxISgPR04Ne/BmbNAry9pfgjuTqRQpBEchkhocdXB8xIBgZEAEtEo/Nlvit20OxU4NoUIOS7E45IegEWWyPHD/IxBMLcXMcRgrz1fjJlrkTShdhbrJyFjFy8KKNYb0WptCM25KRYmmHQ6jE0+SQWTt4Mu8NlFZRbFIq/LZkElaoF90zbgL4xJVAppfuYpHPMzfVodljhawxCo6UaCqWa2yuJpLdAbrVPPgm88w5w//3Aww9LCyCJhJBCkETSBVAw6Qhv4N5BrkxiFEz6nQPAhtMud7HRMYBJxtLtEew7vQ61jRVIDM3Cyv1viY5yDa9PDO/HcYHau4C52XtyLTYf+xyLJv0vlu58mdNnUzrfzsr+WCg+xar9byPEJwrZ8ePYzF8i6e5UWk9xaneTxh8N9kpYHHUYEHw9TGr/Sz7myfpdOFS9Esl+o5ARMPU7y5rF+Y7VroNe7cNxjCi+UE+Cso/RQsQEV+OeaRv5vVKsO1YUKgbzrdiYk4RrhxxAVlwRlu3MRLNdg6EpJxHhXwul0jNZ0yRdy7a85TDbGpEeORTvb3ratVKMctOjhnEcuo5Q3KAtucuw58QaPDDjH3hX7ONrCmoLDn25oUmSDYc/RVRgEvpGD++Sc0gkhN3qjbqawbBY+iAszBV7jayAKFMjZQa7HOIPxQaj5BhOp/PihSXnYbPZXHE2NRqZYdCDyBGDRNJF0GNNJe6wzBDg92OAR0dTnArgyU3AH9a7rITssu3o1jRYavD1/nc5Qxj1GvJL9yPELwbZceOQEJL57RgJZ2ltpY6Bg4NntnAaefqhu2bgRQ1oVuxoLNvzbzRZa7vkHBLJ5cTutOB43TZUWE8iQB+D6uZC8f4EZ9L7MZDgSkGixf8XLUuZx/QqbxQ35aDUfOxHndfTUB+aLH5oIXEoJbIML9z9AbY8/RQmZB0V36sCH28aiNv/dideWDoBJTW+qGowoajKD1bblQ2KLek6apsq8cWuV5AZPQrNdguOFu9CXEgGBsRPQGxw51nDiFYxkHWIe49aKKdoq6jN6iooblBCaAa+2vcmLLamLjuP5Oqm8TRw8PVUHPxiAaqqBrPlz803uzKCRUVdPgsgPz/xDLVaUV5ezsKG5PuTl5cHi8WCkJAQmWXWg/SsKTCJpAdCDY6XeMZNTgD6hwFLxZjjc7E88rVr3dx0IN5Pxg/qjhwt2gF/rxAE+0TBbGvggSbNrKZHDedMX5R55euDi7E+52M0O8wY1ucaTOu/4IKSz96T67Bi3xuoqCtAWuRQ3DD8IWzLW4ayukKegV114G2cLj+ChROfwDcH32NBaWLWrfhq73+w+dhShPhEczkvgx/+/uX9yI4dizPV+bh74l84E0vOmW0Y0meatAqSdGtqbMVodFQi2BDPggxBM4NuKBPRyYad2Fz6FuqaS5AVeA36B81CQeN+Xmdx1LLFz5CQGzmj2Pby95FftwVqpQ4GtQ8fo85Wil3lHyOnZpU4TyKGh84Xg10rDtesQZOjBmHGFESZMjijUon5KCKMab3GdZPEII3KCY3h3EzDi/e9i/uuWS+eZQ0I9WvA61+PwF8/m4zE8Ao8ecdnMq5QL2D/6fVsaRPkHYGC5nrOAtY/fjyig1J4Yoqyf63Y8zo2HVvCQdnHpt+AyaJ96Qxni7iv8r7Cyv3/4QmR/vETMHvQPfgm532Ymxsxb9iD+Hzni6hpKsftY3+PFXvf4IDTI1NmY8mOf2HPybWID8kQ5R6Aw2nDv7/5H2TFjEKtuQJzhvyckxvkFu9CdtzYK/slSXol4hJDxQ6gfDsQMhQIHQ5Ejz4FVe47CA9Pg1Y7r0vOO2DAAKxbtw5vvPEGDh06hMTERClqXASyniosLMTatWuRlJSEqKgomW3Wg0ghSCK5QpDQQ/GBFvZ3uYu9dxD4Kh9YexKYlAhcnwrESbf8bsWpihyE+Ma4MpzYGnjd2xv+zJ3Y8X1vgq8hiM3cSdAx6XzxxtrHER6QwB3ujlTUF+HDrc9iYuZPkBkzEm+uewJf7X8TyeEDsCN/FRqaa3G89AAKq3LZFY2sj8amz8NOsS23eDf+Z8472JK7FF/ufR3XD/kZqhpKUN1UisnieFSf6MAUru+QxKkez3okkXwXDfZyNDvN8NWGo7OLtdxyHEdqxEDSZzALNEdq1yK/fhunoY/uk4WSpiM4XPMNTtTvhNlRiyprASZE/hS1zcXIrdvElkU51V+j0VGN2fF/xIm6bcit3QB/XSRbIQXqYpDoMxR+2gicbtyDRnsVbC1W6HpxXCGjzobBSadAdlM0OTF9YA7USrKgUiDQuxEFFQF48NUbYbOr8YeffIEBiQXSfayHkVeyG3EhfdvcLGgi4V8rH+R07jP6L+SMeJuOfY57Jz8j2igbXln9a0SI9qojJMoWVx/Hx9ufxw1DH0RsSBpe/+YxrD74LotKK/e+iUbRXuWV7EOTrR7VjWWi7TmMSRm3YMuxZaioO4Pfz1uMdTkfYuW+NzG27zzRXhVz3LxxfW9kq6BQ31icrjoqhSDJj6L1rPFn5U5gzxNAXR5gCAHCRgHBGRWwp56CShXTZecPDg7Gf/3Xf+GDDz7A+vXrsXLlyvMmNSSdYzKZMHLkSCxYsAChoaGers5VjRSCJJIrDAlCyYHA70a7Akh/lAMszwVWHwcmJwLWWgV11T1dTYnA5miGl95f/Brnfo8JGTexmX2wTzS2ik4vBdiMDU4X5fzEgCqCO9C0riPldQXcQaDYDWTZExOUjKKaE5iYeQsH6jxRehA6jZFndE+WH0StuZI73WTqX1J7Ek99vlDUxwo/UzAcrS7T/bFp85AYlsWzuyQGNTbW8CywRNKdcba6XCXVF4jLU28rQ3HTYRyu+Zpj96gVWnipA3Csdj2vo6DQ5P4VZI+H2VENL00goryyeKBrajqCZmcjam3FXPZ4/TZ2RevjO5ythXw0Ifw+2iubj0NCVAscbO3X23HHFCKig6qxYNIW13rx6Yuq/DEgsRAbc/pwKnoSgZ5bMkk8t7wxa8gB9E8sgEH741z3JF1Ls90KrepcynYShGYOWIRg3xi2Elp9YDFPbMSHZrLrmK9oSwoqj0KvPj+DBd1bZXWnoVaqkREzktPHRwQkoki0baPTrmcR6GRZDlumkiVqfsk+WJobEe6fiI1Hl+BExSE8tWQhi02R/gls4UfHoImNyMA+sNqaoFapYRN1kEguhXrRXz76GlAn+s6pdwHh44CR/wBUBsAUebaQAl0+KUb3GFkBPfroo3jkkUfQ3NwMh6PrXCt7A2T9o9frRRuj5EXGB/IsUgjqJTQ0NGD37t04ePAg31Q+Pj7Izs5GVlbWJd1kZLq3YcMGvPvuu7jhhhswZcqULqj1+TQ1NWHHjh0oLS3FmDFjEBkZefGdeij0i2hUQL8wICMYOCc9sMcAACAASURBVFThEoSWiUatyTkNIfFaWL12iO5YPZRXwQClu0Km7s0Oy3mDxKiAJKREDBa/n5Y71WSOX2+pYVP6OnOF6HRPdMUH6oCvMZjLVNSfQYB3GFsIBXtHwlsfgJjAFGw4/AkHz1QoFdiauwyBphCxzR+Boiyd894pz7jqYze3xVYgFzC3SEVBOA1iu0KKiJJuDgk7CoUK9pZzlnO2FgvqbCXiXnPyAzJIH4uswGkYFDyP77/ipiMcCDrdfxJ8tCHYU/m5GKhqoFWaUG8rR4OtAo32apidtdAo9Rz/J9VvHEaF3Qk/XTiH6Mqv34xSc544vOu+IYsJWlSiPlejO6WynTAUFVSD3974pfg+xLejaIHNocKZKj+8vXYYwvzrkB5TjN35sThRGoTs+DNIjSoVg3s54OlOkDBDgaLPoeAYQTShQJMQIb7RyCncwq5e1F7Um6sQ7peAmsay845D9wZNONjsVpTXFSLULwZV9cXiWOncXoX5xp1tr0bA5rRwexUqju0tzh/oE4HkloG4e/KT4v5UcVtFbR4fV6Fou+9ItPI2BlzBb0fS02kqAuz1LqGnuQYwF4t+tAnQB4k2xSD6WEnwiDU0X9diIVGDAh9LJD0JKQT1EkhE2bp1K/tc9u3bFyUlJfjkk09w55134rrrrrukY1LHgQShrjZzpOPv27cPL7/8Mvbs2YPBgwejX79+vVoIctOZIPTmDi12aK7B39STcKhuF643bkScpkwKQh6AAkJvyf3i7Mzl2ftAgTaxZWDiRJwoO4BnP79LdIitGJgwGdmx43CwYOO3jkUzqpS15c0NT8BsrUdMUCrHWdBrDEiNHIxPt7+AawfdC41aixV73sCMAXdBpVRjTPpcHC3aicc/nMsxTK4f8nOkRAw879gkMJ0sP4Sp/RbI2RVJt8dHG8op3ilIdLgpldcdq92A3NqN8NdHYVjIzYjyysTWssXYUPIaEnyGIitgBpQKDdaVvMrWQZQeXqs0ItwnFQWNe/F27s/grQmCSRMonqkGzhy2sfg1vHHsLhjV/hgacot4Pd/3liyPKDCurz4MGoW+s6peVbAwdFYc0qqdeGbhJ3j8luXQa+3ibwfWHUzGi8vHYWxmLp64bSm7lO0/GY3EsHJEBNbJFPUeJiViELaK9qq1tf3v4BJfqF0YkTILucV78Ou3p0GhVGFUymxkxoxiUac9JIrGBqVjXMYN+NvyezmYdFL4QNF+3c4JEpIjBuDr/Yu5/aq3VGHVvrcwKvU6dvmi19fW/Ba/eWc6jHpf0V7dj0CvsPOOTxawJTUnOH6RRPJ9yHsb2P0Hlwg04HHRnxoHjPm3uLqVroWRXR+J5AcjhaBeRmxsLH73u9+xEPTcc89h7969SEtLw5kzZ+Dv74+6ujoMHToUtbW12LZtGwtI6enpLLyQuR6tJzGmoqICZrOZj0kR8XNycngblaN9jh07hrCwMA70VVNTw+c5deoUm0gOGzaMy+7atYvL0j4JCQkoKCjghUwCKd0inZci7hMUXG3s2LEIDw9HWVnZVedj6xaEKJj04aZlKNl/EM2xk7EsaDhWWQdhin4X5hg3IlYKQleUlMhBWHf4IxRW53Fw5yd/suy8gLI6tQG3jn4UN478bx4/USeZto9Mnc1BM6nzfce4x7ksvZ+UdSvHFqLMLFq1tu1YFENhbPrctr+fX7CWo4zzzKwxGA9f+yq7qalE511F5xD//rFwY1v54yV7+Z5JFp313hLwVtJ78dNFcHyeCstxDtY8OeoBsfzi7FaXzEotwMDg6zkgO7l8kftjH98RmBz9gHgGKvk6V5wtH5Pcnwe/VKb9+pv6/JWDSdO9R8eg9ekBE13HF+XPNB0U95QGkaYMed90AglDPsZz7ju/u/FL3D5hm3h+KRHuX4ev96fikTfm4kylP5Y//g+M7pvPsYZ8jFb4GCwyxtAVJjt2NAdtPl15DHHBaXhp0fbzrmuj1hs/nfIMx7AjqzhXeyXapexbuW2i9/dNfZbL0vvZg+5j1zKn6K+R67F7koEmKSjmkPvYf79zfVt7FemfiP+Z+y7sDhtPZJALGN2Lz85fxeUpcPSp8hy2qE0Izbri35Gk+0M6ZvUhIH8x4BUFJN0B+CYDmb8Egga4FvGol7qPRHIZkEJQL4QGhOSnarfbWdwhl7EXX3yRhaDU1FT2X33zzTdZ4KFAZ5999hlmzpyJadOmccCzFStWID4+ntMhqtVqFnMoCNrhw4d5PUV7J5cxCvRFx3/ttddYPCKxh45NQs+SJUt4fzon7XvjjTfy36+88gqLPiQORUREsBBEnQuyYoqLi8N7773HQtAPweETD2vkJDhNvaMjr2h1wrf+EG5Sn0BgwA580DQOyyzDscoyGJMNO3GdcRPiNKXi5pWCUFej15gwZ+gvUN1YyingFapvZ4Og61er0p2/zmU21La9/XrqfHdMO+8q365ch0Ep/U0xFjquc0OuafPH/A4G7fmxHiSS7ohaoUGK3xgE6CJhdTTAV0sWA+d36+kvctlStVtNQo8S384uQnGEOhsVcHnF+eXdxcgVjQSpUEMSgvTxP+4DXSXQIyomuLrt7+kDchAZWIv84hAkRZTzuvtfuhnf7E/FYzcvx11TN8GotYl+QgtnMZPGil2LQeuNBeMeY1cvEoI6Eze5vVKfb/12wfZKQe2VVizopPyF2yu65y7UXpGwS8uNI/6bxSWJhKCwhw0nxbUTCnjFAiXrgBMfAHFzxLO61pUJjBaJRHJ5kUJQL4NiBN1yyy0sApHFzezZs3HkyBG23rnvvvvQv39/fPzxxyzGPP744yzUkPhC1kGBgYFcds6cOexSRm5mtK0zSGyic1C6RBKGHnzwQUydOhU2mw3Lly9n0YfEH6PRiK+++orrFRISwuf4yU9+glmzZnXqwnIpbi2tPlGwhk+F1VAi/jr8g/fvrqjhRD9tPjI1J3DQnoAPmsZjmWUElplHYIT+EOYaNyBDexI6hQzg2ZVEBybz0p0ZlDjJ01WQSH4QFOCZFk9BGcLivQd77Py9ARJ4+icU8kI4WxT4zbyvMKhPAYamnuBMZe9vGIynP5mKjNgiPLngMySGVbBFEcUhksLQ5Sc+JNPTVfhOSIQamDDR09WQdCNstjAc+XIqqhb3R8YDwOAngOQ7gKT54jnt7+naSSS9GykE9TLItermm29GSkoKLxTjh8QdLy8vREVFscUOWfiQ1Q6JMhTYzNfXl9fX19ezyxaJQ7SeRByDwXDBc9E+jY2NbDVEQpN7HR2fXMBIECKLH0oTSNZCVJbORWUvZxwTtaMRsNpgdZg40GX7zCi9AZXoMLsFoTxHFD43j8RaS3+ss4pGU3MS15k2YYTuEPyUjRc/mEQikUgkXYBK2YoRaSd4cUMi0Q2jdnOMIb3GjpIaX9z01CIWg55d+DEGJ50W+zm5rBSGJJLeT1ER8NlnwIEDwKxZEOONKgQlFSFuYiMSb/cHJb5TGz1dS4nk6kAKQb2MoKAgTJo0iUUegsSX9pC4Qy5ZFFiaYvjQe7LWofIUX4g4evQo8vLyOIBzVVUVR8InsYeEovz8fI4fRHGBSCwi1zISfjZt2oTQ0FDe39vbm0WnCRMmsLsZuaCRqxplIesKFA4L0GyFxWIS59LDYOidKUlJEErVFCDVtwC3e63CKssgfGkZij/VzEe0uhLXGLZiinEnwlTVUMoU4hKJRCLxMP0SCnlxU1rjg6kDDmPtwWR46ZuhVjnx85dvwtEz4bhz4hbMHHIA3oZmbsE4+3Mvm9iRSK42KNzooUMQ4wkgOxuorgZ27nQJQpRkS6GwIyTtGCJm5cEnaYinqyuRXFVIIagX4U5f2NHaxp3akCDrnFGjRnFg5z/+8Y+8bsCAAbj77rs5Rg8FmabsXeQqRtZFJByRFU90dDRWrVqFP//5z5zNiyyFSAgaOHAgB6JevHgx3nrrLRahyK2suLgYzz//PP7yl79wmUWLFrXV71I+w3dipTySDWhuDoDFYui1QlB7wlVVuMNrJeYa12NrcwY+M4/G640z8L55Asbo92O2YTOSNEXQiAZWTrJKJBKJpDsQ5l/PQadpcZMSWYac05FsJURN/+L1Q/DuuiHIiivCg7O/5n1aWhUcQZyEIWk5JJF0XyjXS20t4HTS5DSwZAnw6KNAVBTw2GPAxInAq6+KAagYgdKQ4D//8XSNJZKrFykE9RLI3eo3v/nNt9aTS9hNN93EixuyAnr44Yfx0EMPcawfEnTcwgvF9Zk7d27b+vZQNjByHSProPZCDQk/8+fPb9tGQg5lDyPxp/06EpzmzZt3wc9AItXChQt5+UFY69FqroHVqoPFbAACftjuPRkvpRWTDbswTr8Ph+2x7Da2ztIPX5mHYJDuKK4zbkZ/bb4oZ4FCWglJJBKJpJtx/8x1vLjx92qCt9GKinov2BxqmJu1uPXZu1gEevj6VRiYVMCWRG5XcKW0GpJIPAKJPu6FRJ2GBuC114AnnwSuvx545hlgzBiAwo3GxLjEIIlE0n2QQtBVCgk5HYUe93oSbjqDMoTR0hkd9/mu41x22DWsDtYmFcyWq9OxWKNwIFt7nJcCRwhWWIZipWUwHq25GwnqYkw17MRY/X52G1MrnL1SFGrthZ+peyC/WcmV4ULXmTQAubq4ZtAhXtxUNZg4yPSynVloaXUFmv7HsvFYtScdE/sdwZ0Tt8LPZGaLIkKl7AmBqOVTtWuQ32tX0lH4OXMGeP994OuvgWuvBX76UyAlBViwAJg+3WX1Q+KPFIAkku6JFIIkvQNrHay1ZpjNV6cQ1J4YdTnu8f4CN5nWYpM1A1+YR+DVhpl4rXEGsjXHMcWwC0N0R+CvauBYQr1BFLLamlDTWA5NJ+ndJT8OSvVrtclA5FcDlFK91lbikXM7xKiiwseEGpMBeoeTF53dCY3TCa2zBRpHC1Qt9Kw6+7wSI32yXFW0ONFTBn/Nzia0KntGXbsTgd5NePauj3lxE+LTwO5i1Q1ecLQocawoDIv+MR8mfTNeum8xYkOqYG7WQaN2Qq10ikFr9/nem2wNot6lnaZ3l/w4mprrYbU3eboavQYSfFpaXIHcSfjJzwc+/tgV92fOHHFvBrqsgHQ6gMKMUpkZM1yLRCLp/kghSNI7aK5Dc20TxwjqjZnDLgXKIjbTuA3TDDtw3BGJNZaBWG/Nxp/rbuNtJAZN1u9ChvYUTEpLjxWFyErtg63PeLoavR6tVopsvRpFC47Ufc2LR9D7ozV7PlpjbhN/dGJ52uIAbGKAZ28UdVVDofeFomwvsO9NoCIHcDRf8SpfCpc7a+bVyi1jd/LipqbBhKEpJ3HwVCQPWmm59dmFOFEWzO5kc0bsgd2phtOp4GDUGo2DLc1ITKJ270r8JPS7U3v18uqHu/5kVzkUnkDywyHRp7XVdf84HK4gz1995XLruvVWSiYDfPopEB0NTJsG9O8P/OlPnq61RCK5VKQQJOkVqJ1V0NjLYLFEsVWQySRnhNyoxQAvRVPIy53eX+KQLR6rLIOxtbkvxxKKVpdzgOkJ+r2I05RCp7D3GFGIAprfc8894jc3e7oqvR6K89WZO6mk50PiBMWRGz9+/BU/N7sZ0Kt44uywJGJNo2vdt1CK7gqJPwZf6MXbvsGtGJweCf/Bc6ByTr/S1b5k6B5KSkrydDV6HcmRZZyOvj3XDD6IjTlJiAmpglrVgtdWD8OfP5yBMX3z8K9730WwbwM2HBLbg6sRHVTD1kMkDLHbi+LyZyyLEaNpis/opCi6ki6FstdesfAEPRS3tQ9BljyUZHj3biAnB8jIAIYMAdatc8X7ue02l5XP1KnApEmAweDRqkskksuEfEpKegUGTR1addWiIUtFXZ2vFIIugEFhw2DdMV6qnd7Y2ZyK1daBWGoeiQ+bJqCP5gwm6vdglP5gWzyh7iwK0QCWFolEcun4+flh+PDhV+RcLPrQAORsnAmbGIgU14vBR4V4f1p0Ssjo5wKPG5UYnKcEAfOzgbGxCmhVMWJtzBWpt6TnsWjqJl7cTMw+wm2Zl9EKg86OqgYv3P3P23CqPAifPvoSJvc/jL0nYnC6PAAZscWczUylcsLhUIlrlazUfpzZUFRUFC8SiScg0cft5kXhPil9+5o1rufwlCmutO6UzWvjRuDnPxfP2LGUDAa45RaadPN07SUSSVcghSBJr0CtaobJWAubXY36Oh9ERBR7ukrdngBVA6Yad/JS5AjCRmsW1lgH4N8N13Aq+gzNSbYUGqQ7hhBVDTRwioFYS7cVhSQSSfejpZ3o4xBLlRk4WgkcqXC95ovBR71NPMOVgF4MTnSiV2K3nX8Mss7w0wMzkoCbMsSgxMszn0XSs+kbU8KLG61ajTcffBP7TkZhYJ9TbBH03vrBeGfdUIzLOIZX7n8HanULfv/2tcg7lYkJDopBqIDN5hpQk8EJLa3nwlZJJN0CCpFAwdPtDpW4VhWwWIBt24ANGwAySJw7F9i0CfjlL4EBA1wBnun12Wdd13RwsOs4/v6e/RwSiaRrkUKQpNfg5dWIOtGRq63zhdOphErV4ukq9Rgi1ZW42esbzDOtRz7HExqATdZMvFA/l4WfRE0xRuoPYqjuCGJU5dArbCwKKSG/Y4lE8m1LH3ptEAPmEzXnRJ9jVUD5WWNNEnYSA4Dr04B0MejoI943ivJv7gdW5rvK0LhaowKyw4AF/YDBES5RSCK5HOg0DgxPO86Lm6fv/AT3Tt/A16+P0YpT5YHYfDQRhUXDRb9iOZf51a+AvXuBe+4B5s1zBc6tqwNCQgCj8Vx8FYIsL6RAJOlK6NlLfV6HU8VB0bVqBwoq/PHZ1v7YeFSLM42r0d8HWL0aeOEFl5UPCUHk5rVzp8vax+3qJS1/JJKrCykESXoNXt6NaPWpR2OjNy++vnWerlKPg1zBUjUFvCzyXobjjghstmZwPKHFjZPxesMMRKkq2EpouD4HaZrT8FJYoermLmQSieTy0V7sISnYIf6rsQAna4DjNS7xh16LGwC7EzBpgThfYEwskBrkWiK8AW2HmNBmOxDj4xKASPAJF2XmpAHXpriEI4mkqyFxKC36nNVQUkQ5dj/3F0x95jh0upmgYXefPuIaP3Euvgq519x3n2sQvX69y4rirbcoHhQwYgQQH++6X+x2lyhEcffplfZXysRhkovAInsLhzQX10sLW/vYHGrY7CpXNi9FC1bvTceLK8YhI6YYT8z/HOV13lh3KBlHi1vh62/g7F4PPgj84hfnrHzoVVr8SCRXN1IIkvQaTMYmwLsBhYXRHCdICkE/Dq1CdIg1Bbws9F6BQkcIxxQiYWi1ZRA+NY9GoLIe/bT5LAr10xyHv6qeXciUbC0kRSGJpCdDd3BLBysfi90l8BxvJ/qcrnUJQVSeRJ8YXyA7FLgh3SX6xPpSHLeLn88oygSbgCCjywrotiwgI6SrP6VEcnGUSjJlcyk/NJimxQ0F1X36aZew47as+OtfxX1xGvjnP10Zlsga48UXXS44f/kLoNcDhw+7rIhoME6iEVkRucWh/8/eewBIVZ5t/9fu1N3Zne29V+rSq0gHAUUUg7FFscTymZhiemKi0ff9v0lMz5sviab81dhiQSSKigJKUXqHpSxsYXuvMzttv3PdZ2dZOhJg2/PDx5lz5rSZnXPmea5z3fet8hwPTHidZUgXG909JoMXja3B2F2YJPNGZxajoj4MP3ttPrYcTsdD136M+69Zj3aPEU6XEfERjSIQjckqwWvfewaFtS34y5oybVuTtT5xT787hULR21A/NYp+g9Hogd3eJPHQjY32nj6cfgVFnTRjpTSGj1V5I7DNlYsNzmHY6crGWudoWALaMch0HFdZ92Cc+RASDLVSgcygdZ5VbiGFonfjF3z8jS6fRidwrAEoqNMFn6Pa8/JmwOnRc/rQpZOhDWLnZQM52mN2FJCkXXotZ6j+fqGMTtAGyrP1pNDBqkidog+QlqaH23SHITfHjgGJibrI488lxHl+J9HixcDx48CLLwI33AC8/z6wcaMuLC1cqLuGWMmJwhBDzvioxKK+Dfun3o5A6Q+xkh3FHYdLv9BZtD5si9OC1bsHY+OBLIzNKsLtMzZj/f4sfOmX92FMdjGevucNJEY1YOaIg8hLL8WUIQWwmt24ZepWad0xKLeZQqE4D+pnRNGvoBBktbajsTEcLpcZZrPr/CspPjdMHr0gaJO0Rp8N+9zpklNoa/tgPNt0Pf6EQMRrywwzHcNo8xGMMB9FjDZNl5FfGFIoFFeejo7TRR+HNrisaNEFH7p8GOJV2AjUOfR1KOzEagPRrChgTqaezycrAogJvvSDjYxw7X/hl3abCsWVhsLNsGEnppmPha07TMxLYWjUKF3YOXwY+Mtf9Hks1V1VBQwdqifufecdIDdXL+e9cyeQl6dXeiJNTfr6Npv+yBA0Vqj3J7MmKgzt8nMmkcfppgIYAIvJDY82feh4HLYeSUdMWDOun7Abmw9l4KE/3oGo0Bb86r7XEBHShk/25uD97UNlHhmXXYTXf/AXpETXIy22BlazB0tnf9rD71ahUPQHlBCk6FeEhTUgKqoWDQ3hWufIjujomp4+pH5PWGArrrLsk+bsMOOwOxk7XDnY5crCNtcgrHGOlpwfCcZa5JmOYpS5AHnmo3AbSuALMGkdJ90rpPJpKhSXjlPFHjaXVxd3ChuA4kb9kY4flm+nGMS8PDYTkBwGTEnRkzlT9GF+nzCVo0ehuKTQBdQd5nD56ld1YYcCDp1Ejz2mh5gxfIwOobffBl54QV+XQhCTVNN1lJQE/PvfeujZW28B27frr8+cCbS3A4cO6TmMmCuG23E6dbGI+2DOou45jEydTryBXA2NwllHB5WzgJOSMQcEdEgeKb+Th/l6rCa3dn0NwOGyWOw4morYsGbMG7MP+4sT8IPnbhRx6Fs3foiRGcexYstI/HrZHBGB2Cj2LJq4C0lR9YgOa0FiRCN+fveb+N0Dr3YdS3xEkzSFQqG41CghSNGvoBuI4k9lZSyqqmJFFOIPt+LKwGpiFHnYSGuHFQXuJBGFdmrts/ah+MAxXv4mjpGFaI9wY3udHQa7PtBkuIkhQG8DsfOpUHw+JK0yOgIMcLFEsFsXfBi6Vdmqiz3M31PSpLeKZu2cdOuCD8+1MAuQrg0wJyTqgg8bQ7usn7Nn0KGNGAO0E5aPPm0ExRYYyMqNBm0A5YXH45HXjZ32BLc24uR8kzbiZOPr7dpoleuYtVEpl+U051ssFpnncrlkHrfJef5luC1Os/F59+1wWf92OM3G51yO6/v3xWkeM4+F6/jfA1/jtvzvTT5xdWFSXEZ4ikRG6s+ZP+g73zn5dVZ9ojjEELGAzt/JH/0IKC+H1vfRxRuGlz33nF7NbMYM4OBBPWk1K5jRZcTHJ58E9u7Vw9PuvhuorwdeeQWSR+amm6CdT0BpqS6I0JFEhxP3yW3SWRQSoh8PBSUuQzGJx87n/oppFJR4fBSceFxcj62j44TI5Hcp+cPl/O/pQpfRBZsToXec9ruf+D65b7/AxffEZSiMcRl/yB5fZ3l1Ls/3xecFBUGors5FWrx2nXGZsL0gBW9sHIPYsBZ8b8l7OFQai2///WbUNtvw7cUfYPrwQ1ixeSR+/dYcXDdujwhBDNlisvEgiwsRIa3i9vnyNetxy9VbkRCl57DMTarEU19aftLfWFW8VSgUVwolBCn6HRER9VqnxSFCUFpaEWy21p4+pAGLLcCJEeYCaXdq044OCw67k7DHlYlX6xJxpD0Xv9xshWm7HmoyIk4vJZ0TpecfEWFIiUOKAQ6rxTDLlq8jkKnY5TnvMtfBhNrQWFR60vHq4XC0FQHHm7TBXovu/uFgyNSZy4cJm8ck6FW50sKBFG06Kujs5dgpfFCsIRRHCAUTCikUdCiicLqpqUkewzozkR4+fBjHjh1DRkYGRowYIdPvvfce7HY75s6dK2LLu+++i507d8r09ddfj48//hj/+Mc/kJmZidtvv11EHU5/+umnuPPOO3HXXXfJOn/605+Ql5eH+++/X47h73//O9asWYOlS5fiwQcfxEcffYRnn30WcXFx+PKXv4zk5GRtcPsKVq9ejdtuuw233HILNm3ahH//+9/a4DZG9h0VFSXrFRQUYM6cORg3bhyOHj2KQ4cOyTKDBg2C1WrVBsr1IgKFh4d3vXc2fjZ8T3yNnxc/N84LVHE4istEbLcE6jztKAR15ze/AZ5+Gmht1X8ztdMBzzwDlJXpYog/zxDzD1EUoThSWKhvh8muZ83SHUiPPw4sWwbce6+eDHvbNj0XEqum0ZlEUYj7KSmBdp4CV19NAUVPjM3taKebCES7dukCVHo6MGSI7mLi/vgaQ994PAyHo6gUH6+7lrgMnVBMqj14sC7WcB0eL5ehWNbQoDuduB4FLwo4zM3E+VlZujsqPx944w39/TDBd2Ul8Mc/ArW1wIIF+nvle/nxj/VQvuXL9Ypw3/9+HEqLlmLQ3GVwe48g/3gCXlw7EbNG5MPlMSA0uF3EH16dByVXiMhz79wNuGnydsSFN8vfgSLQb+5/7aS/TVx4kzSFQqHoDSghSNHvYLUwuoKKCtNQXRUDW4YSgnoLQQHtki+Ibf2WQxiSOw2zpz+IGkMidmkdtA+1DtibB3RXA6sHpYfrLgUKQ3zkgNbkF4YClTik6D90F3vksVPw8XQY0OwLxnFPDIq8cVK9r0R7XuqNQbU3DK4Y7XyJBjbWWBBnBzK1c2ZGml65K1V7nmzXnT8n7atT5PF6OuQ2OEUMOm7YKLAEaaO4uro67NmzR5Yfqo3WKHZQdFm/fj0mTZqEL37xi9iwYQN+/etfIzExEQ888IA8UlShaHPjjTeKEFRdXY29e/eKKEPRKF4bxYWEhMg+/AIThZuJEyciISFBG7BFiBA0e/ZsbQA4WIQf/zHcfffd0LfLtQAAIABJREFUIs5ER0eL0EIhKTc3V/ZDcnJyREiy2WxyLNxOtjZqdWgjRO6fcJ8UdoKDg+W9tmmj2ePHj4swxf1RCNq8eTNefPFFjBkzRkQmLveMNpL+5JNP8NWvfhW33nqrPKfAlaWNOBcuXCjvaffu3dogtAGjRo1CamqquJH8n6nffUQhjZ8/P0++B7+bSqG4lNDp4q8SRSFIOy1Oeu1nPzt5eZ5mFGwopjCEjBrwbbcBkyfrr/ErSlcQpynGEC5z5IjetK++uI6Y54iOJYpV2mkiYtPPf667lL7+dV2gWb0a2nmlV1Nj5TSKMg8+qK/7gx/owhPFpPvu05dnTqSaGn39ffv0Ze66C9r5p69HAeezz6Bda4AnntCdTN//PpCRoa/7hz/oy3B7FJ0oBhUX6++JlyAeB5NzU3AivFQ8+mgl/vXS32G3H0RoUIiIPGx+kqPq8d0vvH/SZ6hEHoVC0ddQQpCi32EweLXBRB0KC9NQWRWHpORSrdPt7unDUpwBhqCwPDRzHNyep7sYShqBg7V6O6R1/t4+iK6QlzOKQ9og16h15oyd4hAdDmdzOSgUPUWHtEDJieUXeeSxIxBMod7sC0K5N6qrVXojUOGNRLknCg0+PQ7DEOAVMTXRUIuR5gJEectQWHAIVc1efPfhuzA0J12WY1iTX2DQRR49ZMov8lCsoGjRoo3ShgwZgsjISKxcuRKvv/46pkyZog2CHhWHzF//+lcRTSjADB8+XMQjiiq+zhgNCi8UgCiCUGihiEP3DkWi0NBQWWbq1KnSusPX2fxw22zdmT59+knTFHzYujODNoBuUJRh6861114rzQ9FLLbufPOb3zxp+oYbbpBtUzSi04mfHYWtCRMmaANKPQOwP0SNnzPFHX6m77//vohIjzzyiAhBr732Gt544w0Rl+644w4Rgyik8TPk+0tPT0djY6OsT/GK2yOeztga/r2Us0hxJWCYlPaV7YICydy5Jy9DQehvfzsxzVOc+Yq6M3++LihxfQpH3C7dNnQPcfuc1k4HcSgxuTWhYEVxh7mRuA8uM3GivkznZUQcPT/8oS7i0OlDNxGFp+ef151GhILX736nCzwUgbj/JUv08Dd/KBsfud3u0MnE5ofHM2WKA+vWHNbOwTqudTEfqUKhUPR6lBCk6JdERtZJq6mJQm1tJOLjK3v6kBQXgNmgJ6hluzZHn8d8J0xoS1HILxC9lQ+0e04Xh9gYAhMZfLJzKLAztIxjKqURKS4Xpzt6Tgg/TKRe5Y1AOcUdrVV0ij2cR2dPW4dVKuoFBnTABI8kYU8w1OJq626kGqv0ZqiUin2mAD1kq6HNgzcc1aiq17747jYRJShalJWViTBBpw3FGYZe0eFCd813v/tdFBUV4bnnnpPlKdzExsbKsuPHj+8SZCgQPfnkkyIccRsUhG6++WZpfpKSkqR1h6FWfR2KMjb/KBWQ904RqDsUiroLURTH+NnS9eQPk+NnSUcQPyOGxtEdtXXrVhQWFooIxPbSSy9hxYoVEpbG8DUKP5999pmEnU2ePFkENqfTKdN0EVFMIh3816Hy3yl6FxSAugtKFHU6DXtd8PXuyzD861TRKS1Nb92X6S7WEApAfhHIv8yp+2KImkKhUCjOjBKCFP2SkJBWCQ+rqIhHVVWcNsipUkmj+yh0DQ2J1pufZhdwtB442CkOHdLanirA5YE28NbXiQ0BErWWFKqHx7AxEa7NfLJ7yC8QGZRCpDgHp4du6QIPq8Ywbw9DuOjcoZunolPs8Qs9Vb4INHhDZBuBAT4RfOjsiTPUI91YjsmWfUgw1iEhsBbxxlrEGhokv1bXvjv0u9w+Cj3uDjh9HTAbAmTaoz1naNPatWslxw7z2/z+978XIYguFIZPUdRI00ZVdPBQKKKz5qmnnpL5zHlDZs2aJc0PHT1+V4/i/FDAoQDkF4EIQ8TY/NB59Ytf/KIroTWhO4l/B+ZUorOK+ZUYgse/KcPoKARRxFu3bp2Eyy1gYhPoImB5owspkVYEmQPR7vGJMG7SvhcG7cKmLmcKhUKhUCjOhRKCFP0Sij6xsVXaIKcR1dUxUkqeuYMU/YNQMzAyTm9+/GWxGVrGhLnHm7WmPd9TqYeceTtLaDPPUEKI1igQaS0pTBeJ4m26I8kvCgWeoSn6J36Bp6Nbbp7uzh6P1tp8FtR4w1Hjs2tNe/TaUesLQ503tGu6vcMsQg/XNAd4EBHYjHhDHXJMpeLuiRexp06bV4vwwBbte3ZydRhK1T5+SfmE1ay0Ly0H/B7tMTrUhNoWN97cWo29x1swc0gEZg+LkEUZakQXEPPd0H3iT6ZM8YdulmnTpknrDnPkKHoGfwgYYR4iNj8jR47E008/LX9L/u0IRaLy8nIR7fyV1/aUtOIPq47jOwtSMSHTjn/vrEVZfTumDgrHkMRgEYLaPR0ieFuMgSIO+QVFhUKhUCgUCiUE9WJoNWdnkEk7FWentbX1jBZ5Vg9LTCzDkSPZqKyMg93epFxB/ZjIIL2xMlJ3HB6gokUXh0qb9EeW0t5bBXxaAnh8ukhEoSfWpotEDDeLDtZbDB+16Uhrp1DU6SDqLhD5hSMpa9szb19xCn4HDx07Xc+78vIEdFXfopOnyWcTUadaa7XeMNRorc4XijqvHXUdoajXnjt8Zu3v3NEZ8OWDMcALe2ArogObMMhUjBlWXeCh8MNGV481wHXOY6Tow++eQVTGDjQ6vDhe54RRmx6UEIwdRc144q1CpEZa8L3r0hBsDoTNYkBadBCStXmB2heODhBWtmIen8jOutNjx469Ap+w4nLhL3Xv51S3FqHYs3BUFLJig+B0+3C0yoE1+Q1IjLAgNz4Y6w424P09dciIsWLxuBjE282obXWDXqGwYIOIQ16f/nsYKLmkruhbVCgUCoVC0cMoIaiXEqANBFqcLXjl9Vfw2luvnX+FAQwFs5DkEAQaTk6qaTD4EB9fgbKyRGkJCeUIDW3uoaNU9BRB2lUuI1xvp9LgBMo6nUPiIKJYpD1uKQXaGGbm011EbBwn2S2dglOw/sjy236hKKZzXpdY1E0c4jczwD99hueKs+MXcDo6uos53ecFnjyvs7R6W4dFqm01dwTLY5PWGjoFH7/IQ4GH4VzuDsNJIo/fzRNtaERe4FF5jNJadGCjCD+cjtReNwdceBJ6atUcePO7ZDYGSCjPsWonKhpdGJwQLIPxlz6rxMpdtZg9NEIb6NsQH2bBEm0QnxEThHCbERHBRiy9Or5rm3QLKQYmMaFmjEwNFacY+c61qfjKnGQRBtnCtO9KjN0kz/ndq25x4+fvFOFguQPfuy4FV+eGa98/B1rafUiOsCBS+34xsTi/o1JNSYWXKRQKhULRr1FCUC8lODoYQ74wBB6n6uhfCBZtwBSWGnbafFYPS0woQ/6hQSgpScHgwfkIDPSdYQuKgQjDxNiGxpz+GvMQ1bZpAyit1fhb64npY/VAm7sz5KxTMCIUiyI63Ul8zpxEIWY9nC2kW5Np7XVtvHZCMOrmKjpVRJJBmV88uoDnV5qOzoimrsdT5vFS5gu0wGsIQmuHtcupoy+rH3EHTszTq2kFotUXhJYOCjn6I6trUdRpYdO20+Lj9vRttvis8rxNe+R26AAMkFpd+iNDsawB7YiimBPYiFxTCaIN+vMoijwUe7TpsIDTw7Yu5vNg/h5dEAxAo8ODPcdb4PZ0SFjX0SonnlxeKO6f+6YlYHKOHfPzIpGXbBNhiKRGWXDvtITz7Emh0KFjzM+kLLs0Py3tXtw0NgYHy9skrxC/dx/tr5eQsqm54bjzqjgYDYESdhgaZJTvYKjVAJfHJ+cjBaVApVorFAqFQtFvUEJQL8UWa8PIu0b29GH0eegKiouvxPHSJJRqjQ4hVhNTKM5HaKdYk34GJ5GfFlc3kaizdReO6DbiMp5OoYjiAOWFjm7PObayGTmI0x5NukgUbNKf+0WkEO25xaS7jTjWk0fj6c9N2nOL1oyGzycSdXT9r9v0qc87Tn/NP83353RrzatXc+NzbdwpYXkyT5tucphQFb8AAd42/LEpFq4OE9r9DSbJr+Of5msUdhw+S+cxnxBz/P4fY4APwQFOhAa2ITSgTUqqh5j05/ZAB0K0x1DtUV7nY0CrVOLi9OUYzorjp4NiU4A8VjW6cKzGiSjtj5cSacHaAw343arjGJkagsk5YUiKMOPReckI1/7QFHwYqsPBt18EUiguJSHahWHaoHBpfm4cE4PhSTZEat/RCK3tLm7By59VoUa7aP34hnSMSQvF+kONaNZOYn5v6RwidA3RMWQwKNeQQqFQKBR9FSUEKfo9FH6Sksqwb98wFBenStJog8Hb04el6Af43T3nEosoEFAQoSB0aqPrqLVde3Rrj53TLdp0vQMobtJf83ScEI78Thuc4rrBKc85ODN2ikRGwwmRyNT5GBhwIuTtghrzKHVu/0yv+/fZJTqd4REdJjTFTEVghxsbtPfF/DnWADesaJdHe0ArrIH6PIv2WohfxAlwiLjTNa21EG1eSKBTwrh6En/yXSZ1rmhsR7X2h8yNCxb3z//9qBT7y9qwaHQUcq9OwFW5dsTaMyT3T5D2h2Abn2k//04UistEfJhZmp/xmaEiSjJckeGIrEq3Nr8BnxU0YemUeCzUvsvH69p1V1GUFUMTgxFsMaDd7evKV6VMQwqFojdxphyiiv6B+tv+5yghSNHvoegTF1eB0tJEcQXFxVVKviCF4krAgREdPmxMRv156BKR3IDLo1c/O1Nz03Xj0x79y/hOLK+N0cSd4+62fEdncmxD96TXrJaGU6YDzpwU+9R1KS5ZDbpriY9W4+nT3vY2PP7DHyKs9TB+fVvmZfmsrwT87Jjfp0n7w9AZER9uweGKNnz71QLEhprwrfmpyI6z4tZJsRIGlhMfrCciDzVLUyh6KxRzErTvM5ufxxaloajGiQibCaEWAw6UteGNrdVICDPjq3OTZNkP9tRJWBqFzfBgowijhOFnShhSKBQ9QYDBgACtI+P1eqUZDIaePiTFJcbtdut/Z/VDc9EoIUgxIIiKrkVaWjF27x6B4uIUREXVwmw+d0UfhaKn6S4i9XVaKSx1tAM97OL5vNDxRMeDy+uD2RgoQtAnBxvwt4/LpSLTz2/JQpw2KL5/eoLkXsmMtSLIbEBeckhPH7pC8R/D7zzFTD9Lxsdg6qAwOF0++d5XNrqwal8d8svb8NRNmZiQGSrV7iiWDtbWY2gkO+l0FwWqBNQKheIKYbTbYdBaRWUlKioqEBMTowSDfgKdQKyqXVZWhoCMDAQYlZxxsahPTjEgMAT6kJJSjLq6SFRWxqO8PB6pqSWqnLxCoTgJyXnk7ZBmMbF6oxfv7a7DzpIWXJVtx7y8SMSHmTA2I1SS8XI5DnYXjz1DxnGFoh8SZz/hbEuLtuKpL2SgtM4lzw2dSagpli4cFY1bJ8bKOVXV5JbKZNHauWI06Anh1ZBMoVBcLsxJSQjKycG699+Xa8348eMRFBSkxKB+QEtLCzZt2oSS6mpE33orArW/q+LiUEKQYsAQEtKKtLRC1NVFoKQkFdHRtbDZWnv6sBQKRS9AHAtaB9Hh8oqjgaXd5wyLlLwnzP3T2u4Vp4/JEIhRqaHSFAoFEBFskubn4dlJmDkkHPFhFtiDjPj4QAP+tq4cYUEGfO+6NBGMqppcIhpxnskYqEQhhUJxSTEEByNq3jxUNTfj3xs24O01a1ROmX4CxbwAqxXRixcjfNo0BGrPFReHEoIUA4r4+EoJETt4MBd2exaGDt0Po9HT04elUCh6AH++n/pWDxxuL9K1AWpFgwu/WnlcG8AaJPEz8548MDNRBCGFQnF+woKMmJQV1jVN95zRqIuszCFEUfWp5YXaow/fnJeMYck2ON0++Hx04QXCbAhUuYUUCsV/jDUjAynf+Abi77wTrspK+JzOnj4kxSWADiBLcjKM4eGSB0px8SghSDGgoOiTklKCmppoFBamIzy8QaZViJhCMTDwaINNp1Q5YkW1QOwsbsFv3y8R58LvvpQjyW8Z6pIUYZFBK1EikEJx8UTYjJgx+ERpRZajv2Z4BLYVtojgSmfQ65urUVrvxMwhERiTHirhY15vh5x7zC2kUCgUF0OAyQRzfLw0hUJxMkpGUww4IiLqkZFxDG63CQUFmWhqUiEeCkV/hs4fNubzKah04IUNFXh3Vy1MgaySZMbw5BDJZcLEJUHmQAxLsnWJQAqF4tISajXghjExePKmDClTT5mHoZlMOH2sxgmXx4dC7fHD/fUoqHZ0VSFTUR0KhUKhUFw6VE9XMSBJSipFQ0M4Dh4chCNHcpCXt0dVEeuDtLe3a3/HBng8KrzvcsOY7ISEhD6VaJGDyyaHF40OD4JMBhF5Pj3ShFV76zFtUJiEn6RFWaVE9kCGJVibmprgVLb5yw5LGIeFhUnSUsUJ7p2WgDuuipNz1mIMxLpDjXhxY6UkYv/ewlRJUF3e0C7ncHiwqU+69Hh+1dXVqTwlVwCTyaSqRCkUCsV5UEKQYkBC0Sc9vRCNjWEoKUkRlxCnFX2L/fv34+c//zlqq2thNKjL2eXC5XGhQ/u3YsUK2Gy2nj6cc+LtDP2ymgKl4tdz6yqwsaARN4+PwU3jYrUWg2vyIpEYbj7/xgYIx44dw7PPPoutW7bCalZJFy8Xbo8bYRFheOSRRzBjxoyePpxeBwUgPwtGRCInLggO7VyOsplQVOPE//fvInETMa9QapQVDpdPwsa4Xl+IHtu2bRueeOIJBHq041V5LS4LFNlcXheS05Lxl7/8RQmuCoVCcQ7UyEkxYKH4M2jQQWzfPgZHj2YiLKxRWc/7IHQFjc8Zj4yEDBgCDT19OP0OCkA7j+zE1kNbe/pQzgtDSA5WtGFXcQumDw5HeJAR8eEmyTsyOi1UBovMScKmOIHP5xNXUHJkMmaOntnTh9Nv2V+4H6VNpfJ5K84NK/jlxgd3TYfbjJg3PBJ7S1thlipjAVixo0aSS0/JCUN0qEnm9XYDiMPhwHUZ1yE2JFaOV3FpcXqc2F62HU3Opp4+FIVCoej1KCFIMaCJi6tEdvZh7N07HEeOZMPi2KnNVZ2zvsbVeVdj1phZys1wGeCg9YVVL/RKIYhhJG3tPq3z70OkNlCsa3Xj5+8US/Wh5AiLiEG3TIzr6cPsEwQGBCI3JRf3XntvTx9Kv+W1ta/h/V3v9/Rh9EmiQ0zauRyLWzqnWe2Pid73HG9FsNkg53qjww1qbBR6Oa+3ikLzsudhVPwoOecUl5YGZ4M4gja2bOzpQ1H0BrQ+gretDd7WVnS43YAS4fsHgYGSBNxotyPQYkGvvdj3AZQQpBjQBAb6kJFRiLY2GwoKsmAoHgp7QHlPH5ZCoTgH4twL0KsPvbm1GvnlDnzvuhQpW/31a5IRE2qS3D8KhaJ/wnCwp76QiQNlbciMtUoo6B8/qsTe4624cWw05g6LkDL0DBUVB5EaJygUAw5XdTXqP/wQrevWoaOiAh3t7T19SIpLgVXr30VHI/LGGxE2bRoMISE9fUR9FiUEKQY8zBfEKmJNTXYcLRkPo70ZHQZLTx+WQqE4BYZ+NbZ50OryiuOnyeHBh/vqkRZtlYTQkTYTxqWrKoAKxUCACaNHpJzIWTYpy44WpwfWztCxgioHCmudGJIQjCTtemHoC4mEFArFJcHX3o7aFSvQtnw5hmVkYNDcuZIzSiUQ7/u0tLRg9+7d2P/00yIC2SdNQoBZ5X28GJQQpFBohIc3SL6glubRaDNfi6YwA7SxJswqlYhC0eP4OpN3lda348+ry1DT4sZv78hGQrgFv7w1Sx4VCsXAhrmC2PxsL2rGG1uqkRMfjG8vSJFE0y3tXgkbsyiXkELRr2kvKUHr/v2YMX487rvvPiQmJvb0ISkuIawY/JWvfAU1q1bBlpcHoxKCLgolBCkUncTGViElagd2FI7E+rpEDKoARidoJ4kK41coegTmAaludkv1r9z4ILmjX9viwvRB4fK6UZtWIpBCoTgTS8bHIjNGrxplsxhQUO3Asq01GJsRimnaNSTIpH7cFYr+iqexEd7mZiQMGaL172N7+nAUl5jw8HAkJSWhurYWHR5PTx9On0UJQQpFJ8wXZG3YhKDSEuz2fgFv2eIRofUhMyPQJ0rTKhT9Beb1IAVVTvzinSIYDQH44125SI604P8uzYXJoAZwCoXi3DB0bGKWvWu6uc2L4lonSuraMSYtFCbth72q2SUOIbvVIKXoFQpF/6DD65VmYlJhoxru9kcsFgs6GhrQoUo+XzTqzFAouuNtR3jtZiRFZuFA1Xz8ax9w10ggKVQlpVcoLif8GXe5fdrAzC25fwYnBCPEEoioUBOuHREly/AUVCKQQqG4GCZk2ZGXEiKhpeHBRrnWPPlWIYYl23DnVfEyj+MJ9VuvUCgUioGAEoIUilMwwYVrMtxwZQHvHAbsFuCWYUB0sOogKhSXgxMOIAeeXlkiFYB+96VspEZZ8atbs3v46BQKRX8hyByIlEg9nJS5x5ho/lBFG9xenySjL65zwm41ItJmVMmlFQqFQtGvUUKQQnEGKP5MGQw4PMCHR3UB6OahQIwSgxSKSwZzANWIA0jPARQaZER0qBE3jY2BUZ1oCoXiMsLKgz9YmCYOxBCrAZWNbvx0WSFy4oLw0KwkRIeY1O+9QqFQKPotSghSKM5CZBCweAjQ5gbePwKxjC8ZCsTaVM6ggQxjkZ1u52kxyRYTyxNfeJk5r8+LhuYG2G12mIymc+/Ppe1P+8eSyFzWaOjbl25+cj5fBwqrnfjtByWS9PlXt2XLnfqnb1EOoIGAr8MHj8cDj+9Ekkd+v/ndPtf5cCoerweOdgcMBgOCLcEXtD//fthUKWGFPUi/njIX2VXZYdhT2iJuIa/WSmqcCLEauyoX9jX4vXd6nCfN4/ffarR+ru8+z5sGZwMirBHn/J3j/to97frvlbZ9c6D5c/0uKhQKheLK0bdHEwrFZSYhBPjiMA7agVUF+uPN2nR8iBKDBioOlwMb926UwSfFnMDAQOlYXzX8KkSGRl5w57qxtRH/XPVPLJ62GMkxydr36cy5b1weF9buXCsdbC4TaY/EoJRBCAsJk/32JTiWcrh8KNIGVxR9OPCiCLRwVJS68z7AaHW04vDxwzhecxwdDA0M0MXUrMQsZCdlX/B5VNdUhy35WxBhj8DEIRPPOuhsc7Yhvzgf5bXlIgDx/MlMyERMeIwaqCqEmFATHpqVKCFivDbVt7rx0+VFyIyxoq3d29OHd1G0uduwpnCN3FDwdnhhDDDK78iMjBmwmWwXtA2uW9VahVf3voo7R96J6ODoMy+n/Wt1tWJt0VoYAgzSYkJikBOZg1Bz6KV8WwrFFcXLxNPaecD+HltfR64HXv2axpsoPXVDhDdnenL/CiUEKRTnJTUMuGuUNkjRzpaPiwAf9DCxxFAlBg1E2l3tIsyU1ZThQNEB5KTkICQoBEPThyLcFi5CEcUbuhM4sGXnuKWtBVaztcu5YLPa4Pa40eJoEUcD4TocHLOTERoc2iUMcZ3fv/l7EYsoNH22/zM8tOgh3Dzj5j7nDOJddebj+MW7xfjdHTnIig2SR1WtZ+DR1t6Gvcf2YvWO1aisq4TFbEFOco50CCnQ0FXAc81sMiPIEiQd13Z3u9jJ+JzCKOe7vW60OlsRbNXdQDyveM5wmSBrEMxGs8xvaGnA8g3LcbDkIJKik1BSVYKrhl2FpfOWIiosqic/CkUvg9XGCD2Yk7Ls2HO8RcQhDpxKSkqQmJiI0NDQPjF4cbgdeO/Ie2hxtWBf5T6MThiNYFMwJiVPQpAxSObT7RNiDoHZYBaxqKW9BUGmIBGRTIEmee7yutDsapabH4TnZ6u7FcZAo4g88llo52ZNWw1+++lvkRuVK+vtq96Hr038Gq7Lua6HPwmF4vPT1taGmpoaaS6XC1FRUVKyPDj47O7T3gx/FxsbG1FdXY26ujqZFxkZiZSUFFit1it2HA6HQ/ZfWlqK7OxsKQXfHwS2vkjfGkUoFD0EnUGsHhaqjSk+KGBYix4mlmwHVBGjgUVEaAT+677/QkFZAb7y26/g0ZsfRV5mnnSEiyqKsPXgVnH7pMamYtzgcSLWvLnuTeQm56KwolB+7GaMmiEuhISoBIQGhYpbYfvh7ThUckhEooWTF4oY1J2Zo2diat5UcUBw+70FDo74ox4SEnLG1/laU1MTbLYTd5/HpodKfiCTQZVsHqjERcThrnl3YeLQiXht7WsizlCUoXBaUVeB3Ud3i3uHjp2RmSNF6NldsFtEH4qkFFFHZI9AWHAYouxR4pSjAEShh84fnndjc8eKu6g7I7NGYtGURXhv03syqOWAVqE4E1E2Ix6amQiHy4vFv98rA5cnn3wS8+bNw5IlS066pvVWYmwx+N9r/xf7q/bj3uX34smZTyIhNEG++4drD2Nr2VY4PA5kR2ZjXOI4EXxe2/caRsWPwqHaQyLmzMqYJYJQUmiSTDNEjOsdqz+GqOAoEXksRkvXPikozc+ej8Exg/HLDb9Eg6OhBz8BheLiaG1txSeffIIVK1agvLxc+m4ULe644w6MGDGipw/voqioqMDy5cuxbt06OJ1O6bdS2H7kkUeQk5NzRY7B7XbL/t977z1s2bIF//M//4OJEycqIaiHUEKQQnGBMGcQw8SsRr2amKczTIyOIaO6fg14mlqb8IuXfwFbkA05STn489t/xs1NN0vI2Isfvojh6cMxJH0I/v3pv9HY0ijzX1j1AiYPn4wjpUfw93f/jukjp4vTge4g3rnpfsd5a/5WFJUXyd3bSUMn9YofTR5jQUEBtm/fjptuuglms/mk13k37cMPP5TX2dEwaO8nL9mG+6Yl9NARK3o7FDqXrVuGvUf3IjclFzsP78SBwgMihK7dtVacPHkZeThcehiHjh/C5GGTsWHtis7xAAAgAElEQVTPBhF86pvr8eYnb4qIyvBJCqyncrjkMN74+A1x300dMRXhIeE98C4VfYkgsx66wIET3QBr167FNddcI3fQGxoa5G42nZ59iVpHLR5f+zgywjOQHp6OX238FR4c9yCGxgzF33f8HbMyZyE9LB2v7H1Fcgxx/vO7nsfcrLnYWLIRL+95GfOy5qG5vRlunxsWnBCCOM1l9lTtEVFofOL4HnynCsXnh30b9ltef/11RERE4Fvf+pa4ZngNiI6Olr5NbW2tPPLcp1PIbrfLTa+WlhbZRnt7O4xGI2JjY6VvxOXpxiGcx5to3B4dOezP0XUUFBQkze/WoWjCxmsMH7ltupFiYmJkHW6T++QxcB5fo9vH5/PJ8jymsLAweZ2Optdeew0bNmzA3LlzMWPGDNkX9xsXFyfb4fWMy3J9vk/eyKuvr5dtcVket8lkEmGM++Jx8T1RNOP++Zz7IVyX7zs+Ph4Wi6WrP9vc3Iw1a9bINntDP3ago4QgheJzEKr1dW4cQus4sDxfu9B79YTSOZG6QKQYuBRVFqG4qhhPP/Q0BqUOQl1znYRxjckdI6/fcPUNmJI3BdUN1RJSNmHIBH3FDuDDrR9idPZoPHj9gxLuciYYapYcm4zdx3bj3c/elVA0f9hLT8FOw//+7/9i165d0km66qqrZD47Bbxbzg7Jc889h7S0NOlkMA+McgApzkVZbZk4gq4ecTVumXkLlq9fjk35m+TcMhlMGDdoHO6Zf48IqnTRVdZXynoMGztYfFBEoHsW3HOaE8gPQ9DoPmJY2tZDW+U8OtuyCkV3eI27//77ZSDDAREHYf/85z8xe/ZsDB8+vM+IQRzkHqk9goqWCvxhwR8Qbg3H0fqjWHNsjQg+DPe6bfhtGBQ1SFw/uyp2yXzCUEwuNz1tOh6e8PAZt8/cdQw1o/OITqRVR1chJzqnz+W0UwxcKFLs3LlTxIsbb7wRU6ZM6RIyKPB8/PHHeOedd0QQodgxbdo0LFy4UOavX79eQkfLyspE6LjvvvvEdfPqq69i7969IqjceeedOHr0KA4ePIjbb79dBJs//vGPGD16tFxLnn/+eRGRKKocOXIEkyZNkn1TnOJ16IEHHpDz+M0338Thw4dlP9ddd530wZ555hnpm/E4KVjPmTNHtk83EN8T98Fledzsq1Eo4vp0Py1btkxELV7L+H64v82bN4vgxfm33XYbsrKy8LOf/QwTJkzADTfcgJUrV+LTTz+Vm338TPieuOyxY8dENPrKV74i+/TfKOSx/OQnP5FtFxYW9tSfWNGJkuIUis+JzQRcnwt8QesX5dcAz2wFPi0BWlx6NSTFwIShXhRmaptqUVVfJSEszB3kv+NBxxDnM6yLlcL8nQr+mHM9hrVUNVSJUOTPw9CdwWmDxRVBNwTD0vy5hXoKdlDef/99ubvEzsSvf/1r+VFn5+bdd9+VO1fJycn44Q9/iP/6r/+SgZNCcT54HvlDvyjyNDmaRABiriCGjdHlU1FfIe4fhn8FmTuFUxEZAyVHEM9BNubrOpWU2BT9PMrMk33UNNZc4Xeo6MvwO8ZBHQdKzBfEgdWzzz4rd7+7J2Dt7fA8Y+LoytZKSQRN14/dYpfX+D7qnfXyGvMCUSjqDl0+zA9U2VKJ2rba0ypoUkjKi83DzPSZyIrMwpG6I+J0VSj6CnTq0JVDQYeOne7u7KKiIhE86BRi/4ZiC/tBFDYomHC9kSNH4pZbbpFkyBRqdu/eLX0jisZ0F/F1vsbl+UgHDvtMFG94DeFziigMQR00aBC2bt2KvLw8EWcoPnFbFIF4s+3uu+/G2LFjJdyKx8b+GHPvUDwaNWpUV+4fHhffF/tldPOsWrUKv/nNb0SU2bFjhxwLt8ebeHQM7du3T94XxR6GxDL8/6233pL988Yej1Wq2mrb5PHyPfA6SIF8+vTpePTRR+W9UGCSG4GdUOCiGKbcQL0D5WFQKC6CIBNwXQ5gMwOv7wee380kicCMdCAqWCWRHghwEBptj+4qdc0EtyOyRmDlppWIjYiV/Ca3z7ldkkSTNTvXSAhYaXUp7p5/t+Q8iQ6Llh/72WNn4+WPXsbrH78uoSp0QlBEIhwUcz97ju6RpLrMgcIQsp50A8kd5SNH8Ne//rVrmoMiikG8W85OATsv7Oywg0LYOVEoToXnEV08/mTPTIrOkLDth7bjpdaXRNAZnDoYaXFp2HxgMwpKC6RzSdcQxZy0+DTJvRUREiHnHUXSFRtXyDp0D/GRcOBrD7bjWPkxvL72dXEe0QlEYUihuBh4bXviiSfk7jsHW3QAMMwiPT1d7nr3pmTSPM+YL0iqXGrHNTh6MIbHDZfQr5jgGAnxumPEHbIsE0a/d/g9RNui0djeKPOZI4jVwqwmq1Qce+vAW3h136uICorCF4d9UcRa2U+gUQSlLWVbcLD2IMqayyRfECuIKRR9BQq9FCvYr2FoFH9zOI99ncrKShE/KMwMGzZMlqdgQgGETiK6YTIzMyVUyh/SxWsCndEMK+U2Ka74K5GRU8VUQucNt79p0yYRWThNUYrCCvtZFGQo3jDPDo+nu7hCBw6dQBR9/PB19jd5nFyefTRer/Lz82V7PAa/CDR+/HgRtnj8fJ/MH5SbmyvOH4o9Zztmwvc6ZMgQCQljowDlDxdT9D6UEKRQXCSsIjY3Uy8l/699WtsPVLQA1w8CkuzQOk49fYSKywmTRn/pmi8hPjJexBoOZL958zclHIzuH4o1wzOGS4gYmTJ8ivxwssT1+MHj4XQ5RRCKCYuRktlMeMtk08wx1L0amNVilf2wyhItZ9NGTsPonNE9WjGMceC8C84Okh92athJSE1NxcMPPywikEJxPiiGThsxTZKkc4BKIfT6ydfLOVFaUyp5fIalD0Ntc60MQjl/VPYoqQjG80sGttq/MFsYUuNSRTQ9UHxAQiyZiN0PXXizRs9CcVKxnK90BVFw4nmsUFwsHPD54R155uBYunQpFixYIIOu3gDPj9jgWNw/5v6uMu52qx2PTXsM64vXS06fOZlzJPzrWMMxEW1mpM9Ak6sJ01KnYWziWNQ56nDPqHsQERSBRbmLEGeLQ3lzOSKDI0/c2Q8AwoPCpcQ8Q8govi7IWSDuIIWiL0HRhOIHnTI8r+mgobjrF1Ip/FZVVYmoU1xcLH07vn42wYOOaIaAMcyKTh6KRVyWjdvhjTK/wHIhUJSiW4lt3LhxIjrxmCjc8PjOVJKd+c0yMjKwbds2eWQIGkWb7tXC+P7875GiE0Usuou4DEPLGEbGz4LXNvb/KEZR6OnuhKT7h/N5Q5AOI4pSzBGk6J0oIUih+A+g82dkHBAVpOcMWlcM1DuBGwYBudHaj4k6w/otdBfMnzD/pHkcxJ46jz+oHKSmx6fLANYv4DDU5bpJJ0rqUhxiOxU6f+aNn3cZ3sHFwY7BBx98IHelToWdId4dZ2dBobgQeG5Q2DxpXkiYJIHuDsu/U/yh0DNn3JyThNCI3BNiDvNzsZ0Khaaxg8ZKUyguB1dffbU4Jf1hErwWckDZGwZBFHBuGHxD1zTFITp8bhx8Y9c8Xr8pknJZVhFjWJcfLrtw0MKu6atTrz5tH9wmhaaFuQtPe02h6EtQDGFeIIofzPtz4MABccswqTIdM7zRRccM3UEURCio0L3DfIkUY5gPhyFQDB9jSNWhQ4ckZw5volEUYngpxRQW26BLiNcJ9q24D67L9fic/UeKPdwml+e1hAINhSTmA1q9erW4kbg8xR0eF/tfXOfUnGU8DuY7eumll/Dyyy/LMfBaxf3xNZ7/3LY/lw+vZ/v375cwOG6PYWcUuOlsGjx4sHwmDBWjE5LiEN8voXDESmsMHePnyBA1rn8q3A/fR/dE0oorjxqmKhSXAJaRXzoKiNeudSsOAn/boYtB45P0kvPqGjdwYZLnG6fciLjIOOlk92X8VcLoBjoT/NFn54OVwniXSv24Ky4VDB9jqBcFnb5+Hl0IvMPKu8TsLKuOct+AYRjf+973uu6oMzksB1sMs6BboNejfcXCrGFYMnSJPCoUAxkKNnT3MSkyRRCKu0zUTBGE5eOHDh0qogeFF4ZPcXme93TesFHcoXBCcYUiDt0/FEQo4DB0itd2CksUk+ikpkiUkJAg4ghzAXF73MbkyZO7qnJxXxRzKDxxXYoyzM3IY6ODifvyVzQ80zWHOYN4bHv27JEQMV6r/MIOnT0Un/g630d2dja+9rWvybIUjHhMPG4e0x133CGiF59TRGKIGo+P69El6U8JwG0wpOzUirKEnyVdUnzvKl9Qz6GEIIXiEhGiXecW5QKJIXreoJf2ANVtwLQ07QfFpkrMD1SY6+e2Obd1hbB0h8IK//WVgS0tv8wL5C9t6od3g3hHih2XMWPGyJ0kvjc1eFVcKhjCNTVv6hnPl752Hp0Nf7JNOkk4OGCFGdr3Oejw321V9G784WC8G86/H8tP//SnP5W/YW+Hv08R1gjcNfIuCes6FSZ85jLquq4YKLBvQ1HDL2x0x1/JqzsUY9j8+CupEub4OZWJEyeecb/sQ/nhb0B3KAD5obDD1h0KV+eCgs2sWbNOm09Bh6JMdyhud88z5Mcvdp0J9nXZD6TAdC7YX6RopehZVM9CobiEsKz85BQ9YfSyA8DbB4GiRmC+dv3PjtR+VMxQBVT7CAxFYWUiVvBip5jhKuG28Au+c8HqRQxfYa6EPQV7kJGQIYNZqZ7Socd4Hy0/KtW/mLT2TB3vC4HbY+LcxpZGSUydFJN0WRJJc5BKG/KaNWtkmgMeij+8A8W7ROzwsAPCzoRC4afV0Yqapho5H/gdpzDKEEp/kvXz4a+gx/WZM4jbSI1NFeGH/wUEBsj3v6WtBYnRiV1J1j8v3A/Pd+b0YuJb5u6yBdsue8lrf9UV3g1mPgWW3mVyUN5tpeDKCjO886yEoL4FXVysKPT222/LAJDXT/59+Xg5YPUuVvoizPHD8K5Tq32dC5fXJd97p9uJPZV7MCRmCEItoZI4WsqhaqdBQW2BiK3ZUdkXfZwenwflLeVocbXAZrIhMTRREkwrFIq+j78iWW8Ih1VcGOrqq1BcBnKjgAfHAR8UAO8fAUoa9cTSIhIFsYJNTx+h4nxs2LsB73z2joSkcLDGqmBLpi+RpM7nuyPKSkesEDYya6SUqP7bu3/DnXPvxOjc0dhfuF/CxBIiE/DBlg/k9a8u/qokt70YWJ3sb+/8TcrOc3D8wMIHpJrSpb5ry1CVF154QWLVKf7wB58x9LwrdqY7RgoF2V+0H/9a8y8ZaDJMMjEqEXPGzpFqXuf7jlKMZXUvCrDkg60fSALoRVMWoaq+Ss5LVv3acXgHDh8/jGsnXYvc5NyLOk6KSe9teg+7CnZJ/q65Y+dKYvaLPS/PB8MEKP7Qns9wSyYR9eec6I0lyFkgxic5ZPS/mcfXIfOMhgDJlefVpr0+3g2mEHFiGY+3Axajtoy2ULvHJ9MmbR2T9iPI7XEetxNkDpRtO90+aRZjIKymQNlGa7tXlrEHGbTfzgA0O71wazsLMhlkGbe2zTaXXoHHHmSUZepa3XB5OhBqNSDYbJD9NDk8clxRISZ9mRZtGe/pywR0LsNjrml2w+H2yvsjDIFgThB+d1kRh4I+84jw7+nPB0JXF0U8LvOlL31Jbh4wQeuyZcskD8jl4IOCD7S+xvtItifLuTY4ZjDuyLtD+xzPPSDjb0ZVSxWO1h/FhKQJqHHU4M/b/oxHJz+q9WNysatyF1LtqSIqrTi0QkrHPxL1yEUdI8XWgvoCvLDrBTQ4GySf0N2j78agqNNzev0ndHQY0doahWPHAkDzhPZzBacTqK7mDQw6EfTlWlr073VQEIU7/TlRhieF4uK46667evoQFJ8TJQQpFJeJcCtw0xAgR+uELMsHXt0HHG0ArskEMiKA4N5RUERxFjgIbWhuwM0zbkZRZRFe/OBFqVLEqkX1LXo5UVY8YslqughYKYx3S9np54Dyo+0fSRUxijI3Tb0JOSk5OFRyCD/++49FULpu8nWYkjdF7hDTHcH9cTDa7m6XRNQso82BBMthh1hD0NDaIG4IOossphOd+3c+fUdKYv/ozh/hD2/+Af9a+y8MTR96SauK+cuEMn6dVmbalulSODUZoUJxKq3OVhE7mRA6PDQcq7asEgcAz5vaxlr5vtNtFxceJ24EunJ4TtDptu3QNny882NMHj4Zs0fPltAwnmOsrvfCqhekitg9C+7BoJRBcr6wgl9zWzOqGqrQ5myTSn5xEXFyftU01qDd1S6DUW6b87lfOn64v00HNol4e834a+Q8/XT/p8hMzEROcs753+QFwkE3BQPmdOD1g64flv5l1ZlzlddlmBEFIuZp8Nvxm5weFFQ5RAiJDdV/TMobXSKapERaRBCpanKhvtWDYIsBsXaTDHRL6trR4vQiM8aKsGAjyhtcqGlxixiSEGaGT5ZxatvxISvWKtsprW+XbQWZDUiNsooosr+sFU0OL8amhyDSZpJjKdO2FaMdS2ZsEDxeH/aVtsl6V+WEITrEhH3HW3GsxqltNwiDE4K1Y3Nje1GLiDrTB0cgQjueLceacKjcgbwUG0akhKBCe0+f5Degze3DkvExsp21B+pxXHsf4zLtGJFsk/1+nF8vgtCSCbGynXd21qJQ29eMIeEYn2HX9uvQ5tWJaHXvtASEa8u8rS1TUuvEzKERmJARiqPVDlnPqC305RmJ8pks21aNI5UO+czI4cOH8e6770oOjm984xsi/LzyyiuSK4QloSmM09XF6mG8M05HF/NoPPfcc7Lu5XIEsaoXxZVvXfUtqQT2zLZnMDVtKuxmO6rbquUaHhcSh1hbLCpaKsSRw98Tzl92YBk+O/4Znpz5JFLCUqQcPAWlbWXb8Njqx/Dw+IcxM2MmZmfOlnOX63B/la2V4vChSJQUmgRPhwfH6o8hxByCRmejiFBp4WlSep44PA6sPLwSTe1NeHDcg3h267NYcXAFcq/KvaTOO48nDPn5c/Hf/23CwoXAzTcDhw4Bv/sdQ1qg/U100eedd1gBE5g8GWCRSwpF2p8OERG6MOT1GbXrUSSKqiIRHuLQzheH9vfTrhcdAdrv6+X5OyoUCsWVRAlBCsVlhHmBRifo5eRXHgZWFwKFDcD8bGB8Iit58O5pTx+l4mxQ1AkLDhOXAcOuGMa19eBWGSRStMlOzMZDNzyED7d9iDXb10hoCh1DLCFfWV+JNz55Q8Jg/vT2n/Dd276LtTvWoqmtCau2rUJWUpYMcjlIZUWx5euXY0v+FhkYs4T8vdfeK4Pbx//xOCYMmYDiymKUVpfiiXuewJC0ITIgZoecDoaR2SNlG6yItPKzlRKOdqmFIIam/OQnPzmpXLJCcSHwPOJ3Oik6ScRTDh4pttDhw+80v+eLpy0WsWbFxhUyQKUYSlGIQii/yxQ/S6pKRBSlS29f4T5Zjs49npc8HymuHq8+jo+2fSTnGbcxd9xcCb1885M3ZZkgc5A8Xn/V9VgwcYG4f1weF8qqy6TE/JicMSLSfLrvU3HZXVIhyNeBhsYGPP/88+IMocDjF1nPBV1DTDy8e/duPPzwwzIvv7wNz6wpw9RBYVgyPhY0mf5zYwX2lbbi69ekYFKWHZ8cbMQHe+swLMkmIgrdOH/9uEwEmR8tSsfkbDtW7avDyt11GJ0Wgjsmx8kyz6wtQ35ZG55YnIFxGaGyjVV76zE+MxS3TYoTx87rm6tF/Hl8cboIQRsON2L1/gZM0JahGEQh6V+bq0RoyYkLFgFnV0kL1mnHNG1QONKirCLycNvt2vZGpYaKgLOpoAl7teOLsBkxNNEmYhHXq252Y8GISNnOwco27C9tQ0KEWVtGF5R2FrdI+NL1bn2AzuUpYLU4dDeR0+VDeUO7OJY8ne6e6iYXjmvLNLZ6RABzaMtQVKLLye8AaqRDKPCES4TiPK+F3UVwPuc8v8PNv0z3cD6Gh9EpRPHvcsHzgeXbGdbF8DA6g9YVr8OGkg1ocDQgLy4PX53wVbx98G1sLN6InOgcEYo2lmxEraMWr+x9BXeMuAO/3/R7EXbePfwu2lxtWHlkpYRwcToqOAqpYal4da/2fazaLcJqTHAM7hlzDywGiwhHU1Km4EjdEbS52/D4jMeRHp4ux8fjOVRzCOOTxiMzPFOOc2/VXtnGpQ0PY346bZtG/m100aetDSgo0J/TcKedeti8GThwQBd+hg4FtmwBvv515l0BfvQjbR1nGNbsHYXm+gwsmrgTs0fmo6QmAvuLE5ESU4e8tDLttzYQDS3B2veqQ7veOGE2ei7h+1AoFIrLixKCFIorAJNF35YH5EQByw9qHXatL3isHpidAaSGqzLzvRXmN6Fo09TSJOILxRuGpNwy4xYUVhZKSNYXpn9BnAacv3jqYgxNGyriz3ub38P9C++XQSsHpRzw0V20fu963Dz9Ziklv2rrKhnEFlcV4+WPXsY3lnwD4waPE/GHA9eHFj0kTiOKUd++5dt45PePYHfBbnFABEpohU/cFnydd1R5B9bpcsLnvbR3K/1VcLonKVQoLhR+R+nuoajDQfOIzBHi3pk/fj4qGyqxfvd67Du2D5GhkeKMoxizYMIC7Dm2R9afOmKqhJIdLjksQhAFz4MlB8XxwzAzhlg62h04VnYMm/M3iyh63aTr8PbGt7F+z3oRkehMoiOJ26XoyvWnjpyKSFOkCKdt7W3yHacwy+87B6ecfylhPqPgoGBkDsqUHAp0+TAxNJOw0+1ztpAwVnJhslKGIrEKFYmzm0V0GZUaon0mBvFTjMuwIynCIq+R7Fgr3EPCkRBugc2ih1UtGh2NKTlhyIixyjITMu2I1Zanq4gOITpmFo+NQe0gN1KidOfhxCy7uIy4bTppfL4O3DklTlwy6VH6dmYOjsCwRBsiQrTtaD9oNksHlk6Jl/Cv1M7tXDsyClfnhovThi03PlhEKwpkdCMRCk18LzwWOpAoYj22KB1ebTvcN3lgeqK4fxhOxvCw4ck2PH5jhgg4Nosed/3o/JSTPsPRaaHSuvOda09OjDo2PVRad769QF9mwa92yyOTPrOKT3ceeeTkUKkzJXD9+te/LmWeWVXsckGnzdv5b6OosUjKu1OAaXI24Z5R9yC/Jh/PbH0GS0ctRbtH+71qq8KD6Q+KwMPcQJ8UfiLOnxZ3i7h56OK5bfht4hS6Pe92DI4ejNf3va593kE4UnsEy/KX4YkZT4jj54m1T2B5/nIsGbJEnEbc5rW51+IHq36AfVX7uoQgnlN0BTH3EP/IFH+cHqeeN+8SYjLVYcyYjfjznxeKG4vwT/bxxyeW8XiAxx5jAQRdCKJoNGwY8JOfACy2xHno4HXAgmaHRfu+acfqMmHD/mz89OWFGJdThOcf/Qcq68PwwpqJ2nXDi+vG70FuYiVqm0NQ18xzoQ3xEY2X9L0pFArFpUQNPxWKK4TWp8VVWt80RetkvHMY2FAMHK3XcweNjNdzB5lUpE2vgndYo0KjRASaMHiCiDoUbDhYZeeZjxyAUuSJj4rHxCETEWmPhL3ALutGhETAhxOd3DBbmDh5mNCWzgS/Hb6uqU46xhSamFCaYSt0R/jdAtnJ2YgJj5H1KRz54bY4j+4jSXbbUi8hNxeaiFehuBL4HT4UeOjOoQjE0Ek65+j2qW6s1gXMzpCt0dmj5VwoqS6RxOcUfOjIIxRrmLfHarHKPL7mrxZGwcmjjfB4DtCdR/cR3T8UgShAMQF0alwqQm2hEqLT0en64LnMsvTM7UXR1uFyyD6Yj+hSwvOdoUSLFi3CzJkzJbfMgQMHpLoUw4aqqqpEFGLr7hZiyeBTq6vQUXPDmBjkxJ3IYTQ/L/KkZUalhUrrDkWg7jBEi+1cy9CZw9Ydhm11Jz3GKs0PpZ+RqScvQ4EqrltFY6P2N8mMOflHj2JTd8zGQGndsZ9y5+RMywxEjAFGCf2iODM1dap8f+j+EYdSoFFEGgov/B6m2FMwOWWy/G6EmEL036ugCLS6W2VbFC3DTJ2/V+YQWI3631bCwpx1IhRlR2bDZraJS4jJqgmdSDmROYgOihbBx+07IaZyH0wQXdVaJfvl8cTYYnokWTSFH+YK8ucLIjS7+g2vR49Cu05U4+bpz+N71+lioNtjwOTBR/Hfdy3Xrhft2nXDq10rTNhbnCgi0Yj0UiRGNuK9bcPw5sbRmDnyIL6xiO5EK46Ux8o6yVEN2jWrXfsgWX3t/G5AhUKhuJwoIUihuMKkaH3spaN0d9A7h4Dndmmd6gpgRrqeZNqr+ga9hpDgEMybOE/P16P9Y6jI9kPbsWTaErH9023gp3viWw4qGeLF8BXmGfHDwShfY2Jb5hvyl1hnAl0OWjkwZn6T8rpyjM0de95KYlx33KBxWL1jteQ42XN0j4SRqdw9it4EBdTxg8eLS4cwfIthXgyjpLvtk12fnBwi1XkqUQTigNG/rB+KRxRvKusq5TWGmhGKpRRiC8sLxWXEcMrY8FiZfy4YHpaekC7C07rd61BWUyZiUkJUwiX9HLrDc5c5t9hYypeVw44cOYJ9+/ZJKykpEbdQaGjoBVcqVAxs7FY7Fg9Z3CWslDWXYXPpZvxg6g9Q76iXZNL+86wrJ4/2QDGHosyeqj0Is5wQAbkdCkB0EyWH6gUB+L1l/iCKPOuK1iHaFi3bnpk+87zHR8fqsNhhUpWMx1XYUIgpqVO6hNzeDl0/WQnV0vzkJlXiH19/DnUtwQixuOTzDLe1aded5q5lDpXG4dt/X4LM+Go8euOH2mMNCiuj0NZuRlJUAxIiG6UwmxKHFArFlUYJQQpFD8AbmgwLGxINrCoAPimC1tkCpqQAVa3B8BiCtA6F6hD0JHQmDEkdIglp/Z1mum+uzrsaG/ZtkGpFDAOju4duIOYR8ueEkDCyhCy8+9m7eOD6B6R6GB0RFIFmjp6J7Ye3Y8QFWYEAACAASURBVHjmcNkGB6F0KSydt1QSP3MgygplrIxE19CIrBESasbOMsNjWHGsu+jESklMZv3CBy9I6fgbptxw0aXoFYpLDb+7zLPTXcih6435tdbsXCNOIJ5rFF24DIVTnmeE5wenKewwbCwtPk22xypiw9KHYeWmlSLMcnskNyVX1n1307t4de2rSItLk/ONQmt6XLqsS3GJ5efpPvKfrzy3xuWOk/BOhpbRsTRl+BQ5risFkw8PHz5cGqE7iG6hjIwMmM3mK3Ycir5Jkj1JRJbuSZfp8JmRMUMSMmdFZmFs4lgRY7is36kTqP0bET8CyceS8eb+N/HA2AcwJmGMOHfCrGGYnj4dm45vEpcPy8YzMXRmRCZuy7tNKpXxPMqLzZNQMIfbgRFxI0QkoljLHEDRwdFdxxNkDML8nPkobSrF6/tfl2ph87LmXfHP6lJjMXmQENHUNX3DpF3S/MSFN+HacXtF5GEeoZqmEDy3ejI+y8/E0tmf4u45G1FZb8ehsjgRhlJjarXrVO+rHKhQKPofSghSKHqQxFDgSyOAcUnAB0eAdcVApWMYgmOmoMFSBGeHE9aAs1eTUVw+mHuErTsUbb5y41fEgcC7pX5BhuEuzD3ih0lxn/ryUxJ6wsHmL//PL7te+/J1X5bwLnaUp42Y1jWfSW1njZnVVUXMz88e+FnX8+/f/v3TjpNOosfufEzymdAlcanLxisU/wnMhcXWHQqiTOy8YNIC+b52dwTQOeSHQtCD1z8og026YrovN3/CfDlnuH534ZPiD11ysk5nFT9y5zV3di1z66xbTztOCqxL5y+V5bqv11PExsZKUyguhBsH3yitOxRefjT1R/B2eLsqdxG6hvzw/MmKyMJv5/9Wqtrxd+0P1/6h6/VvTvqmiEZcn6Fk3fd3fe71cp7xd4fQTfQ/c/6na5nvX33y7xXPq4zwDDw166nTfkP7Mykx9fjuF97vmm5sDcLMvIMSRpYWWyshZxsPZOInLy7CNWP248e3vitJp0uqIyQJdUJEowhICoVCcalRQpBC0cMYtPHGsBhonTFgRznwojcSe7AIa4IqEezciTzzUUQFNsEUoKpR9AYkoazh/Dl4ZHB6hrGkPyHt2da5GDcPt0mng0LRVxABJ+D833URgM5wIknek7NUxjvbOufdFwUgQ98IU1EoLgT5Tl9A6NXZfnfkt8Vw5t8W+b3Cxf1eXchvaH8lzObA/LH7pBEKQYOSK3HXrE0IDXLCrrX843H4zfI5Uqr+3jkbMXlwgSSgbnJYEW1vQbi2DYVCofhPUUKQQtFLsGpn4+QUoGDTZygrKUZR4nj8/4HzMNJcgKute5BtLEVkYDOMAcoy3NthXhNWAKLg40/urBI4KxSfD55HdMj53Tl8zvxXfSWniELRH5Hftw7vWQUixeeDuYeGp5VJ80OhJy+tFBUNLDzhQ1NbEN7Zmoe1e3KxaOIufOGqHXC0m9HstCAs2CHhaQqFQvF5UUKQQtHLCHQ1Irr8fUyP2QeXdTY2tOdhrysDo81HMNGyH1mmMkSKQ0gJQleCuuY6uNwuSXjLJLL+ktLM+ZMQmXDGxMylNaWSqJYhKvnF+WAmyGEZwy6bGMTjYgWlCHvESTkiFIreQnNbs1Tv4veU1b1YnYuwHHxMRIzkwzoVJmfnuRQfES8lrxtbGk/KIXQpkWpI2rnOUBdW+zub20ih6Eu0ulpR3VYtCZ6P1R+TCl+RQZHnX/Es8Pxgjp+jDUelMtn5HKz8vSxt1s7hkPiuymOK85McXY9v3PBR1zTzChEmmC6qihKn0L7iBKzYPAJThhbg6qFHYDW5Zb7R4DvbZhUKheIkVE9HoeilJBuqMSV0FSZaD+Ajxxhsb8/FdldOlyCUbdIdQipk7PLh9rglIS1FHya8/f2bvxdLO0tLs+rX4qmLYTPYTltvx+EdWLZumVREemv9WzLIzErOuixCELe9JX+LlI6/ffbtksdIoehNMCE0E6RTsKSQs3HvRuSX5EuS50HJgyTXDyvznQpF1Pc2v4fpI6ejoaUB+wv34855d14WIYgD3L3H9kolssnDJkt+IoWiL8Pv9LridSIA3THiDvzms99IXp8FOQvOv/JZoBNoR8UOvLj7RUxOnnxOIYg5h1iNjMmqJyRNwMTkiRe934EOw8HumbMRt03fol1PjfD6AlHVGIr3dwxDeX0YhqWWiXNoT1ESokJbpUKZCh9TKBTnQwlBCkUvRvu5x1BTEXKMx3HQmoo1ztHY7tIFoZHmI5hk2Y8cU6nKIXSZYJnrDXs24Gtf+Jp0eFm9iFW5WBWM5aUp7JTVlqGirkLs8ixVzUTROEvBt7qmOtkmB8ZhIWFIj08X1wOnMxIyZKBMtwRFp/LaculIs+IRXRGsaEQ3BZfjfjkoZqnsNmeblIz/7p+/K8mn+fpASMCp6Dvwu7zv2D6pwkURp7apVlw31068ViqFUWjlPH7/293t8trZSrdT+GxqbUJpbamcK3QUcVmKtpxm8nSHyyHuIZaNd3lcaHe1S9WxZkeznKsMLUuMThRBl+cV92kxWaSq2K4ju7DzyE7ZpnIFKfoyze3NeHnPy/jGpG9IPq6ihiI0tZ+obsVzqbK1EsebjsvvW1pYGiKsEShqLEJNW42cJyn2FMTYYtDmbsORuiNSGazOUaevr/3j9NH6o2h1t4rbKDUsFQ2OBlS0VEhZeu5jcMxgqRI2Mn6kcgX9h9D1w0Zmj8xHdkI12lx6GfpP8zPx67fmICzYiW8v/kBCzcpqbahpBJJ8p9+wUigUCtXLUSj6AAwDG24+hkGmEuS7U7HaORo72nOww5WDUd0EoejARiUIXUK2HdomJdkp8NCRQCjC0HXDUDEKOy99+BKKq4pFCKLD4cvXflnuxJ4KB6Nvb3gbuwt2d1VMobvhQPEBbD+4HY/f/TheXv2yCDy/+j+/wiurX5FKRixX/89V/5R9UWBitSWWzv7hX3+ImaNmSg6iR7/4qAxcWfqa4pISghS9BQ4EeX5QpKGzx5/vhwNPii8MCWPY2Ce7P8Fn+z+T73NMWAzmjJvTlV+rOxQ+1+9dj7U710qoWbAlGFNHTJX9UGxiuXiKrVxm0VWLUN9cj5qGGqlGRoGHrh+eH5OGTkJWYhZWbl6J6sZqDEkdIstQHKLwSrGJQqtC0VcpqCsQIXRozFD5zTkVikIv7XlJBCKel6PiR+HWYbdiffF67K7cjQZnA8YljsM9o+7BpyWf4qW9L0llMH/4Mbe5vXw73jrwlvzmsWz8XSPvQn5NPp7b9RympE5BcmgyJiVPwnM7n5OQMpaxV1wamBcoN6myazo7oQoPzl+HFqcF8RFNkl/ova3jsGG3GQuz9btT7e2A2w3YbEza3VNHrlAoegsq46JC0YegyMMqYv8ndDm+GfYaJljysd+Vjj8134DnWuZhQ/twlHhi4ewwn82UovgcHCs/Ji4GloD3s3rHahFmGP61fvd6bD24FfcuuBffueU7OFxyWAazzCl0KiVVJXj949cxb8I8PHHPE3I3dfn65chOzJZ8QhW1FbIMB64l1SU4WHJQBqdrd6zFnv/H3nsGx3leeb7/zrkb3UAj50wwZ4qiKFLZibasYMth7LXHnruzc2vXs1XzabZmZz9t3a26Vftlq+ZuXV+vx1laOUmykiWKCswkGMAAggCInIEG0Dnd55y3G2iCIEXKJBF4fqyn3vS8Ad39st/n3/9zTuc5HHj4AHweH37/8e85XwoNVGnQ+vyjz7M4RWWz6XppQCwIywUaIJI7h0QdymFF0Py5rnP417f/lQUgChuj+2jX2l3498/9e67c9UHrB3N5hHKhe+Rw22FU+CvwD1//BxY+j144ykIrnYvCyegeIqfP1YGr7LizWqzoGurCmatnsL52PSqLKvme6hzqZBHKZXOxMNRY3siuIBo8k3tIEFYq9P3SNdWFQmchLEbLDdvpXrk4ehGvtb+GJ+uexMaijfhN22/Y2UP5hF5oeQFbSrbg7atvIxAN8LbavFouR1/mLuNjkEvoV+d/xcc/0HwAvdO9+LjnY8SSMUxHprGhaAMeqXoETrMTboubXULCvcPvmcVXdrXiW/uOco4hsyHJ4WF2swGJhBsx9Vhy+jTwi18A586p/4flN0NBeOARR5AgrEDMugRXE1tjuoYL1mq8H9mEM9F6tMbq0WTsxQ7LRXYIlRjG4dCHoRdZ6DOjy/zL8sWHvoiNdRs57IQcPg6rA8W+YrgdbnYJBYIBni6E1hMk2OQ58jiEZTwwjpriGnYY0eCWnBA0KD128RiHq9C2d068g2A4iHeOv8MP9xwyk3k7927ci/ryeq2Kkk6r5iIIy5XsfUTCJSVSf+HRF1h4IVGVXDrkvKP7isLHSMAhcWch5AJKqBEM3T8k0lLIF4lD5MajY5HAQ/m7Gsoa0D3UzdspLxHdaxQWRi4/uj/pPJTvy2K2sABE+8yFgqUhgqqw4qHvi4UV9uKpOCKJCAtBFBZGos2ha4dg0pvQ6GvESHAEv7/0ew7zokTTJPaQODQVncIezx52/RQ7ivlY5Aii/oFIAO91vYciRxG7/Ohepv0frniYQ8EmI5N878s9dX8pzZ/CV/e8hZHYGKzuPQgGH0VrK/A//yfQ3Q38p/8ETE0B/f1Afj5QWKieLSXFoCA8UIgQJAgrGBKEKDSMBKFL1kp8GFmPtngNu4NKDRMsCLWYu1BuGEOeflZKz98hNNAcmRq5LkSFhJj6snoezLZUtbCA89G5j/gBmPo1VzTzPguhXD+0LyXKpZwp1CgUhXIF0SD0reNv4YV9L7BF/9fv/Rr1FfVw2p0cBtY52MmhMnarnSuVLUwITQ/YNHAml4QUDROWEzQQddqcLLKQ+4Y+n7SOBBoSMUmMofuFxBkKmySnG4VBUq6rxZJCk4BD+bnonvjzqT+z04dCKCkxO+UZ+uDMB2iubMamhk14+/jbHDpGgirdn5Tbq66sjnNwFXoKOZcQi1CZm4byDIWiIb63aT9BWKnQZ7rEWcLhXdlKlyQMkQvozY43YTPaOJ9PqbMU+6r3ocBewOtSqRTax9vxo4Yf4erkVbQOtcKsN6POW8fzlDPoysQVPh6JPBsKN/Bxn65/ms9JoV8kLGWvIZtHiJrX5l2y1+NBRqeLqeeKMDzqv9OvfAWoqdFCw6xW4KOPgP/xP4Bdu4Dvfhfw+bTwMYsFMN2bIqeCICwjRAgShFWARRdnhxDlEaLQsCPRNTgRbcYfQrvZLURiEbVq0xD8+gDMuvhSX/KKYGP9RvzkzZ9wWWnKZUJJmSm5bTYHz5amLRzGRaEpFE7y+JbHsaVxC9q629g1RIINuQ3oYbi8sBzffurbPDg923mWxaQv7PoCD1Apdwo5huh8NGCm8LLHNj3G85TzpHu4m4UiSvhJyappAL173W5OsksP21QxjNwPz+559oZfgAVhKaF7hRxzlOicQrXW1a5DY0UjizzZzyrdI/s27cO7J9/lMEkSch7f/Dimw9McHkniDznvyPFG+9I9SPcD3UtUbeyxzY/x/dU03cQVvyj3T1VxFYeHUV8SYMlBRLmCTnec5vCx3Wt383no3JTgna6TxFTKBUaiLQm0grCSqffVI5wIo3uqGxWeCmwv3c5hXge7DyLflo8fPfQjfLHpi+zmIRGIwsOeqHuCq3vROtqH5inp83Mtz3Hi6Tc63kCtt5bDwewmO55bq63/w+U/8DIlnCYBisLK6P6mH0comTSJRpV5lUv9kjzQUHq24mKtEamU5gSqqNDEH3qsuXYNOHxYcwdt3QoUFCztNQuCcG8RIUgQVhEGpFBtHOL2pPUUTsYaWRQ6Em3BJ9G1WGvqxnbLZdSaBlCkn4RDH+Hf7ITFoYEiDTSpmhGJQP/5u//5uu1mo5ldPFRGnsiGllC+EWrEN574xlx/GuxSYlv61TW3lPzD6x/mluW//vC/zs1TyBlVLaNwGHILZcv1/rf/47/N9WnvaWeXAw2SJVG0sNygnDwUnkW5e6gi2Def+OZ12ynXFYmhlBid3G30Oc+KRBtqN9x4vMJKFlopvCW37+aGzdyykNiay3OPPoevPPIVnqf7iO6VbB86LyWJJqcSOfRIoBWElUyBowCP1z7OCZ1JFPrn/f98Qx9K7kwhXvRjBYWHEf+49x/53qKCBlm2lmzlZNIE/SCRZa1/Lf7L/v/CIi3dU3QvFruK8VDFQ7ydwsuujF/B0w1Pw2W+MWRaWDpIGNqyBVi/XssXZLMBV68Cv/2tFiLmdmuuocFBrX9pqeYkEgRh9SBCkCCsUvINATxlO4491rO4GKviRNJtsWqci9ei0jCCLZZ21Bv7UWoch08/za4i4XpoMPjSYy+x40Z3i5irOykzTQ/LWTHndqFz5wpHC6FkuJSwmlwXgrDcoNAwEkYpT08yefPw1Du5L1gAusN6FyT83OxepYEwiUAkRpG7SBBWOiTYvLj2RZwfOc+f75t9h+UKPgSJOYs5S3MFoBv6Gxa/F2kbVS3bUHyjoCssDygELBsGtmkT8E//BIyNAXV1QG8v8NOfAjMzwLe+BezcqVUdo3RPFtHKGfphb2pqCpOTk4hGo5IL6zawqA+Pz+eDx+OBwXBnz8PC3UWEIEFY5dh1UWy1tGOj5SquJYpwJNLCZed/H3qYxR/KL7Te1Ikq4zCKDRNw60OSSyiH0oJSbsuZTfWblvoSBOGWUGgWteUKDVjJtSQIqwkq905Jm5cKm8nG4WXCyoBcQRs3zi+HQoDfDwSDwPS0tkyVx/r6tNCx+voHuww9iUAdHR04dOgQrly5ol6noAhBtwEJQY2Njdi3bx/q6upgkoRUS4YIQYLwgGBEEnXGAdQ5B/BU8jjOx2pxMtaAq4kyrjaWr5/GWlMXWszXUG4cRaF+CnZ9RCqOCYIgCIIgPGBUVwP/4T/M5xCiKmMffgj84Q/AN74B/O3fApOTWisqAlyuB0sYGh0dxS9/+Uu0tbWp16oalZWVMBplaH0rSDwbHx/HG2+8gd7eXvzd3/0dSkpKlvqyHljk0yoIDyB+QwD7bafxiO0s+hJ+nI424Ey8Dkdia/FRdD0qjSPYYO5k4ajUMIYC1V9CxwRBEARBEB4cKJcQOYUIqir27LNa5bHyci1EjCqP/fGPwOc/D3zuc1peoex+q50LFy6gs7MTTz75JF544QXk5eUt9SWtCGKxGH7yk5/gd7/7HQYGBlBYWCghYkuECEGC8ABDLqFscumn08fQHi/nsLELsWq8FnoIJiTQaOrDenMni0OFhkn49DNSdUwQBEEQVhkJyMBAuDmURLq5WWtEJKI5gMbHSRQB9u0DRkaA9natOhnlGVrNCabHxsbYAUThTSIC3T5m9UHaunUrXnvtNXZVxeNxEYKWCPn/XhAEhnIJbTJf5TaedKMtXoNT0QZ0JMpwPlgDly6EBlMfmk29KDOOoohFoWkWhR4gJ7AgCIIgrDooM+Bx1aKq0djdqRoZQeyZeTJ6PAAmD+EOIPfPgQPA7t1aEmkqR0/l5//7fwc2bAD+3b/TBKFAQH2O7FolstUUOkbOFhIwJMfNnWOz2bjoQzgc5nAxYWkQIUgQhBvIN0xjr+EMHracQ3+yAGdidWiL1aAzUYpTsQY4dBHUm/rRbOpBuXEMRfoJ3sfCotD9zykUjoUxNTslJZ/vAfQFHYlFlvoyhPtALB7jEu/CvYHuI0kkKoTiIUyGJxetzLWUxFT7/8xOnDOYUKTmKWuHTzW/arSsxvgsCJFIROIQ/X5vSMbgSERgSC2PAhOBaADRRHSpL+OBgoQdSiidZe1a4PnntXAyyhlE7qA//UnLIfT000BZ2dJdqyAI1yNCkCAIN8WgS3FIGLXP2Y5hIFmA87FqXIhXcwWys7E62HRRziXUZO5BhWGUK49lcwrdL1HoxOUTGJ4YvuOy7MKnk0qncL77/FJfhnCPIYGia6gLv3n/N0t9KauWy72XEY6Gl/oyhCXmUPchnB8+rwbQy8sakdAbMVj1KOL59ehTy30LttPVeqGJQlT/z5yMwTx2Gf6BE7AkY/f7chclkoigfbxdU6uEJYHyB/3N38wvd3Vp7epVoLFRE4c6OrQE1FR1TBCEpUOEIEEQbgsqKV9pHOb2dPo4hpL5aItXcT6h7kQxLgSrYdHFUGMaRJOpl0Uhv2GKw8ec+jAMuPvWT7vdjnXr1mFkZAQTIxN3/fhCBhuwZcsWtvEKqw+6j2pqaxAKh3Bq6NRSX87qxQRU1FTA4/Es9ZUIS4DT6eT/R69Fr4H+3W9SaSCcUC1OgokaiCd1iKthQEJ9MGmaNKj/6KOBm4Z608865BeMmtW8IwZnfATpmXaMpI5g2cSHq3vMWG7E2tK1y05oe1DZvh2oqtLCwyhMbGgI+NnPNGHohz/U+iQiFsRmrUirz6VORqaCcN+Q200QhDuGnEKUJ4jaE9aTGE56cSlRyaIQhY/9IVYBsy7B7qAq4zAno6ZKZfn6AHyGadh0d+fXw9LSUvzgBz9AMrk8bOmrGXqoljj41UlRURFXPPnSl7601JfyQFBQULDUlyAsAVRe+u///u/vWXhgrtBD00jufJxC0oCJiGphYEq1cFIPmNTgmwQgoxVGk5n79AQWP75D/fdf5wM2FKWxqzCOIi4asSXTlhf0XSXfV8sD0uMoLIwaEVOPf3v2aPmEKJH08LAV453VCP6+FEk74N8K6OWtE4T7gghBy5RUMoV4UCoz3S40SDVYDDCYJTTofqPXpVFinOC2z9qK0WQe2uMVuBSvZFHoSLQFH0Q2cjJqchPVGgdQZhxDwJGC1+xDEp/9PXO5XNwEQfjsWCwWlJSULPVlCMKqhpxgf4kbLJHKiDsZYSc7nxV7gqpNRYBJamFgOqqtj2ZEoWQasKsBtk19Zeb7ALcF8FmBPNU8quXbgK4p4P8+fP15bUZNAFpfCDxeC2wqJqcNxV7V/EWvh/BgQjr4V7+qlZ4nOjosiAYcmDhogK1KfQ43qM9yHzBzTX1e1deSS60zWJf2mgVhtSJC0DIlPB5G5zudSMQSS30pKwKLeqIp2liE/Pr8pb6UBxp6PCw0THHbYz2HmZQdvclCXI5X4Eq8DAOJAlyMV7HFvK9uK/QeEw4NOlCvHnAL7OoBQDWXhRxHS/2XCIIgCML9I5q8XuCJLHD3zMY0oSfbAhFtfSRH6LGZ1ODZqE3JwVPuBrwk9tgAn2pem7ZMwo9jgeuCBuaFObl1rOo4tV5gXSHwWA2wpYR++Lm/r4mweslG7hmNAZSsPwPnE7vg27cVZFAbOQpc+jFQ+ijQ9H3ApD6X0Sltas5T+0qUuiDcFUQIWqYER4Jo+0UbXEYXCgsLl/pyljUTExMIWUIwO80iBC0zXPoQWvTdaDF1I5XWcwjZ1UQpriTK8areicFENV6+ZIarR33hu4A69dBZ6dF+mfRmmsei/qOSL31BEARhhUJhW9Gsgyfj6JkTezKCDzl4sgIPTWdi2vZYRiCiX1pInCGHjpUEHzNQ4poXd2jqs85/dzpNd1aqm/oWOrUfY8pcmgC0vxrYWirfwcK9xeRMIn9jEu4GIK0+73nN6jP4mPoMV3DUIiYvAD2vq8+8+ixWfgFwlFLkBED1QXQSCCAInxkRgpYxDocDe3fuxec///mlvpRlzaFDh/DWsbeW+jKET0GvS6HEOM5tD87h2Pke6Oqfxvbt30TA4EffNPBxL/Bup/agW+zURKEK1fz2+Ydd+mWTIgDlh0lBEARhOZAbtpVNxpzr5qFI/0BW5IlqOXooHw+5gLipPiZDRuTJOHroBxFPJnQrz6LmbfPzNCXB5m47dKzqGp5Vg/CtJcCOcnVNIgAJ9xkSdvI3aW2OtLqPxjVXEOUQMpiB0ZNAUt1HBWrZVb1UVysIKxsRgpYxBoMB+fn5WLNmzVJfyrLm8uXLS30JwmchEYFfP4mna+IoLQXGQkD3lNYoWeXQLHB6CDh0DTCr/6kKbJooROIQ2dezNnf6BZQenKVAiCAIgnC3SYKSKtsRhg0Dszroo9eHZHF+nmzYVkbkmaH8PEkgltCEnngKsBg0gceWcfVQ2Nac0GPV3K/ZfD00tS9BwlwSo/52uziAhOVF4S6wWyiungut+VoOob631b12EWj5t4CTqpJdAkLqmdFdq+6dsqW+YkFYGYgQJAjCsoByBFHbVqot00N1bwC4FtCEoYEZ4Mo4cHxA+xWUHpTLXUBlnuYe8uU8QNMvpfJLpiAIgnArSOSJps0IqxZJqZbWWhi0bOH5YFpN61twybgZv2gzIZzS3D6x1LzQQ2TDtkjscVJ4lWX+O4lFHlvG2ZP5rlqu31EiAgnLERKArJnsD44yoP4bmiBEYWSpKND3DtD1W6Dxr4C6r6t7M+RCaKYK09NeRNTzpFUSTgvCDYgQJAjCsiT7K+n6TMlRstb3T2uiELVeNT84C7SNakkuHWbA79ByDZU6tcTTc7+uWrQHc0lCLQiC8GCgiTwmRNIWhDMiDws+acvcfChtxXTKrpoDAdVoSutjMCGWNqpmQho6hMumEDB7MRXVw2HRcvOQuEOVt9wLHT2WexO2JQiChkndf4U71MwObTkRBnzrgbB6HrT6tfLzM8NlGLz6ZVzyezE4qJWvHxrSnheLi7XS9YvR0wP09QFeL1Berp4dneI4F1YvIgQJgrAioAonjflaI8hqPzgzLwz1q/nxEHBuGDjcq1ncaR9yGZE4RA/uua6hrPVeHtYFQRBWDiTMkEhDIg+5eTSxJ8fNkxF7yMkzw+KO/ZYij0UXg001K7coSg0zcOtDcOuCahqER7V/bj2LbY/swfd2PI+iPBt/vwiCsDww2tRz3n6tza0zBmE0zSCVciOZVM+I/cAvfkEFZoBvfhPYsUMTfCYnAarJk59P+wDvvgv8/OeaWLRzJ0DZOerq1DNkCWCz/eXXmlQXMzY2hvHxcSQSCbjdbhQVKeFItgAAIABJREFUFalj34WDLxGRSAS9vb1wuVwoKChQr6PICysFeacEQViRkK2+MpMzKEsgquUWIoGIQsloOhbWcg190qvlaCDnEIlDJAwVZXIN0a+6TrXeZdacQ8vVsi8IgrBaSUF3g7gzPyVxx5SZUriWFbMpG2bSdm2asvP2rMgTV41EHrMuziKPTRdlocfLIk8Qbl2IBR6ez4g+nsy8SZe44drMY2fhTDTBa02JCCQIKwBPRS8qW/4Vmzc/gqqqGnb6UHgYhYnNqufEVAp4803gnXeAAweAL34RiKpnyJMngSNHgFAI+P3vgYYGYPt2TThqbgaqqzXhyGy+82uKqhOcP38eH330EYtBOp0OFRUVePrpp1FZWXnXX4N7TTqdRmdnJ86cOYPDhw9j79692L9/P5xkoxJWBCIECYKwaiBLPrWm/Pl107nikJoOqemo+oI/0a/ldsjmdHCZ5/MUZfMMsThk0bZRkwGAIAjCnZFIGxCF6Saizry4E2YXDwk8dsykbJhN21jkyQo7cWhTCvky6pLs5LEipqZxWFXLN0zPiTzuBSIPT9UyiTxiAhWEBwOdut8tliRMJs3V8x//IzAzo4k4JAS53VDbgXhcCxm7dAm4eBEIh7X9g0GgtVVrL78MrF2rCUJbtmgC0diYXh3n9v9HoeI2P//5z9Vxg9i0aRO8Xi87gag4UEpdEIlDgUCA15Gzxmq1YmpqigUkctnMqIunbT6fj5dp28TEBAtK5CqKxWLc8vLyeB1towrUNJ/dd3Z2lgUcOj6to2UqTERuHuqXPSad2+/38zq6LlqmvnRuu93O6+k4J06cwJEjR3Dq1Ck0Njayy0lYOYgQJAjCqsadyePQuEAcGp7VhCESiIbVl/1ECGgfB04Oan0sRs1BRMJSgUMrYc8CUcY1lBWHODG1lLMXBOEBIsXhWaaMg2fexTMn9nCyZTWvpqGUhUWdYI6Dh3LzsMADAxIs9BgyDp6EJvDo4jx16UNw6sJw6MNqPszzTprnaei6ZaOIPIIg3AKKWKLcP1lefBH4/OczeSbJIe7TcgLR8kKmpoCPPwY++URzBK1fD+j1lbBYapFIfHom6ng8jg8//JBDwr7xjW9g3759al/L3LbW1lYcO3YM09PTLPJs3LgR27ZtY4GFBCQSaoaGhnifz33uczCZTOp6PubjkcDz2GOPoaOjA8PDwzyv1+vx2muvqetczyLOJ+rCScQhkYfEJqpITYLU1atXsXbtWt6Hzk3HnKR4OQWdv6ysDK+//jpfE+37efWCNTU18TKJQST+VFVVoY/i7IQVhwhBgiA8cGTFoYYccYjKAFOOoRHVRoNqGtSmE+GMQDSgPRyYDZpIRKIQuYeyAhG5h6g5ss2kTSXMTBCElQCJO+S4icyJOjniDq5fx4mW2bVjRTBlzQg9VhaASOAhF1ACmsCjQzrj2onNiTz5+gCc+ggcutANAo8js0wikEP1MagrEwRBuBfkRjHV1gKlpTfvq1fPcy6XJiaRoygYdKupD8nkp8eJhcNh9Pf3sxOnurp6TgQiSOB5+eWXOdfOhg0bcOXKFbz66qss/ly8eJEFJBJlKL/Qn//8Z5SXl7Pz54033mBBh5bpeJcuXeJ9t2zZMicU0TGoHTp0iAWc4uJiFpwopGvnzp187p6eHjQ0NHD/trY23p/Ep5GRETzxxBN8fhJ+SPTJzf9DQtDmzZvZMZT79wgrBxGCBEEQoJX+LXNrLZdgDBgLZYSh0LxANBnRytmTQJTKEYhIAKK8Q16bNs2GmGWFIadpXiwSkUgQhHvJwsTKkdwcPIuKO/OiTpBDs6y8ncKyNHHHwNNUjnsnK/LY9DHk62bgyIg6zltMbfoo9FjkZ3dBEIQlYnpaCwfLhXI4kwOorAyoqNBCzChXUEsLcPToWbS2HofF0vypxybRhFw65P5ZGD7V1dXFTp4DBw6w2+fkyZP4l3/5FxaOqC+FkD3++OPs/Glvb+eQLhKUKByMxCMSiHSfUtqMws92797NIs+FCxc47CvrLDp48CC7gM6ePcuhZHQ+yllECaBJcCJov29+85scRiasHkQIEgRBuAVZ0aYq7/r1FF42mhGFRsNaaBm5hyhh9XhYq2Q2G9f6kkhkzlQxY4HIOp+kOnt8Eojs5vmcRSRMSbl7QRCykOCcSAFJgw1RUx5G0/kwJ1xzFbBiyEzT81WxKDfPfGhWVtyxsesnnhF1WNxR+6bSOs6hM+/e0aY+/Qw7czSBJ8KOHYcukgnZiswJP7ROcvAIgrBSoSTSpNFkhR9qlByahB/KD0RTv59EFa0/5RS6XSg8ixJDf/DBB5xXh/LsUCMRh8QWEolI1KFG7iESdrLhVzSl7STmZAUfCuciYYhCvn71q1/BbDbP5QiinEIU9pUVcQjan46TbXQ9tI5a9pg0JUGI8gSVlJTw9XozsXQUVmb+LBmyhWWNCEGCIAifgWx4WZ3v+vUUYjYV0UShybA2nYho8wE1nVLT/mn1wEHfz2ktvxCJRCQCUYiZO5N/iKb2jCBEwhAJRLnzvGwSV5EgrERI1ImngJj6/yKWvL5Fkzeu4/Wqb1i1HtdDmC2rxR9T+bDMODnJMjl6SNBJpvVIsrCjphnnzkJxx6KPwcvOnYjWssJOZqqFZs2vN7O4I+4dQRBWN1RVbP9+YMMGzfFDrbz87pSNJ+fNQw89xGFY77//PodmUcgWOWyam5tRW1vLeYIoITM5hEpLSzmEjFw5i3Ht2jXO6UPOHo/Hw4mbySFErp733nuPRSY61u1C/cn1c+7cOXYhUfJqCiNbyWXthU9HhCBBEIS7CIk1xU6tLYQGeFM5wtCcWBTRRCISh8hhFMkM+Og3GqNeNYMm+NCxXbmVzDJhZ1lhyJYjHFkzya4pXM2qpgYRjAThrpJ16JBIQ6JOPKm1WM58PLs9Zz4r9oTjmabu9VDOPG1LpjLuH2pprVGOMvr/YNhYCYPLgYDOAC9SsOsj8OqmYddF50ql23URDtWiqZ1FnutFHxKERNwRBEGYp7gY+Df/RnP86O/BMxO5eF566SWuskW5ecj5QwIMCT5f/vKXuaz84OAgh309/PDDqK+v5wTN5MohwYgcOY8++ijn86F9SUyiMDEq204iDolBJOLQsalyGOX3qaurY/cPlXUncYly+ezatYu307npWCT6kIhEoWK0ncQqClUjkYmcQZRImvqRmLUY2eNTDiHJFbSyECFIEAThPkHCTJFTawuhwSGFlc2oNh3Tptxi81MSimiw2BfQBow0T2lUWSzSa2IRuYtcC5NWmzRxyGKcF4h4unA5IxwZRTQSHgBIBkmm5kWahSLOzQSd7HpaJtGWWjQxP59t1C+VI+TQuVKZeWREnWxusWz4KAm7BTnOP3vuNDP/k9a3oBs8hW8XuNHkUdt0sUxIlgg7giAInxXjPR4VU2jXunXrWBDK5vXJhmaR4EKJn0mUyYZsEST85PLtb397bp4EIBJ/ckPGvvOd7/CUlnPzBlH1sCxf+9rX5uZJFKKW5Vvf+tYN1/a9733vln+X0+nE97///Tt9OYRlgAhBgiAIywAaBPozVchuBg1GFxOIpnOWs2IR5SkamJkfpNIAlJxFlHeIhSM1NRnnk1hnBSOaZ0eRYV4oomvjEDa9NjUtmJoz8+I6Eu4XWTcO3ROJXEdOan793PKC7dl1sUxoVjS5iJCTWRfPiDlZAWdumilklRVzTAvuEbd1XmDNFV2tOe69XKHHljOl/W+VZ+cPiUFEZrvhQyny9GLbFwRBWElk8/4sJFcAuh0M2WRFC45xL65NWJ3IOy0IgrBCILHFl6lGdjNokBqMaomqKdyEhCGaUvWzYDzTYloLZUQiCk8bmpkfAFMICok6LBrpMvMZx1HugDbXWWTJcTbMDY718wPkZFSPkL0KenW8nkSROnZSfQEl1TSlTZG6bp2UjF4dpHLcMLmhTteFPWW3Zedz1t1M7MkNsYpmPsdz88l5905WvFms0edcn/lcmxYIOiSEus2Zz3b2M38TYWfRdQZNeJXEyYIgCIIgLEdECBIEYcUSCoU4jpnKcQqLY8+0AlqgH4osmYaMaBTLEYfiC0SjzFQTiHTwV9UhqQ5Cg20SmBbmRqHjkdBDzaCbn6fBdjppxmDpAVgSU/jxjEUNvBMwU60iXRKU5pZCW7jxvLZuTiRigSjFfQ1q2chCkSYeZddlxSM9C0opLk3Ny9etT/OU56/bluZ5PafWXR1QkBA7WXCjo2VhiyeSCEeiaqo66vTc0pkpdBRwpOcy5Ln7JBcRbm6YzxVyFoRg5bp2rnfwpPk6EuoAlOsgRi2mWjyBaCzOU1pOppL8fs4503JyaWXXZcOtbDlCJU9zREuL8cZQSWvOsv5mH4hEpmWg1zmcabeCfmmlvAuUJFQQBEEQBGGpECFIEIQVCyXVe+WVVzA2NrbUl7KqsarmVAPYH73wT+pbwzoXbhZN4rr5bHjNwnmazkZS6ExMQZeIIAkboikbVzjSKh1pVY5y59Nqm06TH3gwPidHZMQcbVtWotCEHGNGBNIcRvMC0ryglLttwTpdxpW0UCCay7tC585Mgevysegwv35+Ot8nu9/CvulMD56ms3vkrMu2dO7y/BUEYylcdM9iQu/Cu/1unIkhsz0j2OS4b24q3qhpNJbGbDCBKCkxOgO3tC6tCYcsCqXV/mkk1Q7cUkkkWKxJIp5IqPkki0k0T9NEIrs+wbkGkKKWIDVwfj6VmU8vnE/M9dGl4qqpP4qmyZhqUXXBMV5nUH2NhvSc2LPQlWYxXJ/rKp5pt19D5d5A1V0OHDiADVSWRhAEQRAEYYkQIUgQhBULlc6k6gtFSTtKnPkw3IsyDw84lIiwY6If7VP9+Md//EfOIUQJbe+U2WAMV3/2C9gig/j7zY2Ip41agyEz1ZZJDIrRlLcb5tbPTa9bZ5g7TpLLZWt+n2TG90PHiNJy6vr1qbRubv66fdKaTKPXZWWX67lZMt7F1s/vm77J+oVbcqWkxY8wd0W0QqdDIpXGuDuOGbsJBwfdsExefx69bhGHlv7GdbMzIXR1XoU5BayrbtBeGXZIxTUtiM5MIg4LOakc8UZNk3EWatJkj9GpeYNqOjWvV1Ojtg3JhDbNnef9cuZ1mXk+DsUmLvpS5/x1i1cvmSOZacuI7qFedHd2Yffu3Ut9KYIgCIIgPOCIECQIwornCw27sLd6I6zGz6BQCLeEKlj88vyf0d7a/xcdhz0s6SSMyRC8+rvvyyCPUNZNRFMWhqCW0/r59ew4yjiPsMj6nP2y/TRxSHedGJPrylm4HjkuHsz1RU7frMNHcwpd52zSpa9fBhbdll0XiiVwtDeAyzMufGX3cygtKeFj6jPHnsvzlBF/cpezIhCt6+4cwS8P/x55SSN+tOe7vL+BQuv4WOk5R9aNGDLNetffz9XIbz98C++eO7zUlyEIgiAIgiBCkLByoWEJVUeaTVmRNPsQT7sQi5lhNKqhnV4SzT5IkBPIYjBxE+4uKT2FVt3SnrEs0ASLhOYTWS2Jfj6FqXQCo8FRDE4UYFvBM6iv+mzHmbUmYEkEYFX/lxZYlv97vVIx6OW1FQRBEARheSBC0CqCfrlPaz9Dc/lAne6zj4boOBR2Mz4+jvz8fM5rcK+h64/FYnztJpPpltdPqSwujwPHB4AToUZMl34VPdMuBM861L5xmM0xbhZLlJvVGlHTiNqW4F/WBUEQBEEQBEEQBOFBRISgVUIwGMS5c+fQ3t7OyxaLBRUVFVi3bh3cbvcdH4+EoK6uLrz//vvYu3cvtm7dercv+bpzDQwM4NSpU1wBiq59zZo1WL9+Pc8vxkwMONgNvHEFMMyakDI4EYzkITniRSJh4ESz5BkiZ5DZHIfNFobdHlQtzPO5jYQjEYcEQRAEQRAEQRCEBwERglYJMzMzLNpQ27x5MwtDVLHlxRdfxP79++/YHUTizMTEBItLLS0t9+iq5881NDSEixcvIhqNoqenh8/rdDrR3Ny86D6U14KS1rosav/BLqSGfofq9cUo3d6AWMykmgXhsG2uRSJWTE+71WtiVK9FCiZzHHZbWJ1jFnZ7aK6FIsNI68fxwMSWCIIgCIIgCIIgCA8UIgStMsrLy/GDH/wA3d3d+PGPf8wVlWhdZ2cnCytUypfK1vb397N7KB6Po7S0dM45ROW4z5w5g1AoxOIMhWtFIhG0tbVhcnJyTmS6dOkSSkpKUFNTw8c6f/48AoEAqqqqsHHjRt6X9qHj19bWsqBD6+g6jEYjzGYz1q5dOxdyRvt9/etfh8vlwu9+9zsWtHp7e28qBLktwMMVwNAs8NFQOZKeSjjs4/D7R6/rR5FyiYSJxaBQyK6u3YFZ1ULU1PLwcJG6RhNXyDFbYojOFCJZtAbnYjXw9QAFdiBfNY86n0nSOwiCIAiCIAjCA4/BYOBxEo2thDuDxodkBPi0VCDCvUWEoFUG5dghJw+JNSS4UGttbcUvfvELFlXKysr4P64//elP3Mdms+Ho0aMYGRnBrl278NZbb+GTTz5h8YhcRnQ8EoVo3eXLl1FXV8fCz6uvvsr96Qb+7W9/i46ODni9Xr6ZHQ4HCzkU5kXbSTSi45DI9Otf/5oFJBKBSEQiIYhyAhUUFPB/CCT+kGBEohStuxn0X0a9D3hpHZAcS+PjkezaBf3UKgr9ouZ2T8+tTyYNCIdsmA06MTtLjYQhB0Yn3Qh6vDg2U4KuVsBjBYqdQJED8Ds0YSjb7Cat6o4gCIIgCIIgCA8ONFah6Asad9E4h37kFm4Piv6g147GjjRWFZYGeeVXGSTokDBDkGize/du9PX1sVpNeXfIrUO5eOgG/OEPfwi/349XXnkFBw8eZMcQbWtqauKQso8//hhvv/02CzSk3JIziObpWDQfDodZ5CGh6amnnsJjjz3Gog6JRsePH8eOHTtY6Dl27Bi7jOhmp+PQ8akvLWeh9eQWevPNN1kworxE9fX1t/xbSYSpzgPW6i/jxNBRIFFx26+TwZCE0zXLLQuFjV2cHEPPiRg2FD6NirLtGAkC/dPAxVEglQZsJiDfBhS7MuIQiUKZaZ4VMItrSBAEQRAEQRBWNTTO8vl8+PDDD1nUoOI69GO7cHPIQUVGg3feeYeNARSVIkLQ0iGv/CojmySanD8kuNANRkIQ/Ue1c+dOdtl89NFH7NppaGiA1WpFcXExJ4YmRZty9NA+dAxaT46eLCQC5TYShKiyGLmASLShG5oEomwjUYiuh8LJKPSLQsfoP8lNmzZxuFjucSmUjULCyEX09NNP4+GHH+YwsdtBl4pBn4z+xa8dlZ23pEdgn+nHds9GfGELMKMOOxzUQtCoDas2EgLOjwDH45oYRWFjRU7NOZQVhrKuIZdZXEOCIAiCIAiCsJqgyIZnnnmGfzSniAoSgSTM6dZkzQXkpnr++edRVFQkr9kSIkLQKoPEm6997WssuBCzs5rjhW4yEmaywg85dkjBJrGFwrpI/CHxiELFKGnzoUOHcPr0aQ4LI6WW9qMcQZRzaGpqio9L6+k8dOzDhw+zMESuIhKZ8vLyeD2JQyQG0TlPnjw5dx25kGhETiRyIFGuIjoOOYhILCJBaqlgkceqtUbt5UQsCUyEgUEShma0KQlF5BxqHweSKcCq7iqfTROGCrPiUKaRm8hqklTUgkYsmYBJLw8OgvCXkExp+RkMevklVhAEQbg/UCjYvn37eKxCP6iT00XyBd0aGgPSOJHGeGQiuFl1aOH+IELQKoGcO5TXh26wXBcPqdPkAiL3D4k8drsdW7Zs4XLtlOCZ1pFoQ6FYjY2N2LNnD06cOMEiENn3aB2JRHQcSi5NjW5gskOSyEPhZo888giLSSTkUH9yImVD0ihhNKm9hYWFfB100y90+pAyTNdNQhRZK0mkorAxutalFIIWg0K/ijPuHxRryaiplH2ua2hEtdEQcGUCaB0Cqz4Ok5ZjiMLJCjOhZP7MlIQmo/7TziwsFyKJGI70XeBpLjvL1yDP4rxtUWc2FsarFz/Ensp1qM4rhl538w9BQg10L4xeQ/fkIKLJOCo8fuwoW3PLfQRhOROMhHB1oAcDY8Nz60xGI2qKK1BTUnHb99HkTACtHRdgt9qwpXEdTIabP9bEEnH0DA+go7+bz1/s86OlqgFel+cv/nsEQRCEBw8Sg2gsRE0QVhoiBK0SSFwhQYby9pC4k4X+gyKXDYk25N4hwaW6uhovvfQSq9dk0SORprKykrdRrh8SjWie8vvQ8UjIIUcQLVPoWHZKYg1te/bZZ3Ht2jXuSzmHKAyMphTuRcnTKCyNzk82wGw8aC50bMonRNeQhRTihf2WIzRWoQpm1Bp82rp4Ug1OIpo4NJwTTjYa1IShaEITfkgAIlGIQ8qy4pBqobgO6aX9s4RbEEvG0TbSrd7XCbSNXkNTQQVcZhvWFlbDQ0LQbR4nlU7xMaJqcHqr9zul7tEPrp3B2x3HWfixGE3q8zWDbaXNEnYorFgisSiuDfXj2MVWDE6Mwqq+q+pLq2C3WFkIul3IDTQ1O41EMqEp8zeBtpNg9N6pjzE5Mw2LOl9gdgal+UUiBAmCIAiC8MAhQtAqgQQfEngWQk4eCsuiloVEHhJqqC2ExJ3cJM65tLS0LLp+sX1IdMqGp2UhJxGJTotdO4lH1FYDVGa+MOP8WZ/5c8NqjDIe0kShoUw4WdZFxCFllIjaqIWODUXXYKz0GVy0hOCLxVFgmIJPPwOLLr60f5jA2IwWPFm3Fd1TQ/iktw3by5pR7y1V750bvYFhnB3uRCAyixJXAXaUr4FZb8C7Xafgs7nQPz0Gg06P3RVrYTfbkGd1wmWxsyDbOtyBy2M96rOQwpO121Bg97ArYiw4hf91+k00FlTgmfodfBxyI4kbSFjJOG0ObGlYy99Rfz75Efx5+Xhqx14UeHwYnhzD+a52jEyNI9+dh3U1jfA43LjccxXj05PsVg3HolhTVc/9PU4XnFY7i6ZX+rrQ1n0FsXgc62ub0FRZp+4VHYYmRvHeqU9YBHp6+16UFRRxeLNPHV8QBEEQBOFBQ4QgQbgPkMhT7tYaQRXIpqNabiEWhzJTcg0FLOWYKNqHPxt1uDgTh98whULV/PopFBgCLAz59QF49EGYdIml/cMeQCj0pDG/gvORGNUgtiavGC3+aoTiEfz6/HsIxqMs7hztv4h4KoGtJY34+dl3sNZfA6/NhRP9lzATDWFfzWb8/vLH2FLSgKnILPchYchhtvGx0vCwu6hjoh+906P4hz0v8Xn0kk9IWAVYTGaU+YsxGwnhVLsHRd4CNFfUIRCcwTunP0Tr1Ytw251o625nYWhb0wa833qYQ7uaK+vQOdiDnpEBbFfrj186y2FeTtX/7eOHMDo1oZYLUBUqY5GVrJu039DECHas2YS9G3eoe1cefwRBEARBeHCRJyFBWAIopIfKzectkoj6V8Pn8VH/KTRV+eFzl2I05cHJaANiMKkbNgm3PsTi0JwwpA/wNF8/DY9+FiadJKpbCvqmR/FR73n8aNcL2FzSgP/r41/iYPdprPVXIxyPosTpw7MtexGIBDnH0K6KtQip9Uk1UP3w2hmMBCfxb7d/GX67F0a9fi5HSjAR4Xm7ySpJxoVVz8D4CM51XkaFvxhf3fsM3jhyEG1d7Sz0UI4fcvB8ftd+fHL+JE5faUOxV62Px7hdvNaBnuF+PL3jUexas5lzDmWF06jankylWIDSS1JpQRAEQRAecEQIEoRlQjYRdWFqAL6RQ3iizILtrmKMpTwYTnoxmszDiJqOpPIwlvTgarwUSRjUPxKHgvAbAjeIQ9Q8uiCMIg7dc8j9Q+4Dt8UOm8mi3k8TgrEw0pkMQOT2sap1+kUq583GIjDqjWpfB+xqXxq7ZkWfCnchh5d90N0KR8NOOM12BKKzKHHmS7UxYdVBFVcoxMtqtsJpdXAuH4LCwXTqn82i1tvsMBg0sTT3Fogn4ryOwsSoj7Zd6+DP88Gmjnnx2lVsqL2GIl8BFyewmi2caFoQBEEQBOFBQoQgQVim0PDFoY9wqzJqlXVS0GMmZWNRaDSlWtKTmfdgfIE4RKFjJAQVsjikCUQUUuYzTIs4dA8od/s5/Ov1K0dwtP8SBmfGOaePxaANZFuHOjAcnORE00/UbVXr56v77Sxbw+t/2voWnBYbnm1+ZC5HEFUU+3zjLhzsPoMBdUynGsxS6NlfbXxavYfibBBWF8X5ftSWVOBSz1X8v2/8msPCaksrUVpQhFPt57ni16/few1dQ70oKyjm8LLLvZ0ssNapfhe6r+BPxw7i6sA1bGlYh7U1jXwfVRWVY3vzRnxw5ih+8ubLyHd7WQx6eN1WVBcvr+qUgiAIgiAI9xoRggRhBaFHigUeavXo53VJFofs7BLKikM0P55yq+ZBX8IP+i2d9nXoo/DqZ+DTTyNPP8vz3uzUMAu3CES3jdfqwjfXP4Fip48Hmj6bG9/c8ARODFzmHD9P1W3Do9WbkPX+kHhDTocn6rbgSbXNYbLirzY+hTJXPrxq35l4GNemhjhZNDuGMk4Hq9GMl9Y/rvr5ucpYCmnNDbRkf7kg3D0K3F48smEH5wOi+4iW929+CC67A2OBSWysW4OtTevZIaTT6zi0i1xCG9R6SjZNIWOJRBJO1b+xvIbDv853XeZpOucmoePt37wLXpcbnQM9iCcTyHO6YbeIG0gQBEEQhAcPEYIEYYVjQIpFHWpZcYiEn9mUTROD5kSh+fkL8WpE00ak03rodSm4dGF4DTNcncyb2wyaUOTShUQgWgBV7/r2xqeuW7e+qBZrC2vU65riZNIEVRAjNhc3YE/VenYCZcNVvrvpmbl9v9Cwi0th07aFFcH89jw817KXt1OgmVFynAirhHyPF49u3Dm3TJ9/cgBRCfkUiaI6LQRscHyE5xvKavDS4wc4zCsbYvnopvn9d7Vsxo7mjXwrKthUAAAgAElEQVSf6HNCwwiqMPbE1j1IbU5xyGb22IIgCIIgCA8aIgQJwipErwY5lFSaWo1xaG59JG3GZMqF8aQmDGnOIY+2rFpXvARxkMiQhkWXYOdRVhTKFYk04SkIlzr+3a5cFk+q61fjO8MKHZ9xctqckC3KFfSFxodQ7vHDpDfecuBp+BSB59O2C8Jqge4TQ859RHl8tjau50p9ZqPphjxbudxq2+1sFwRBEARBWO2IECQIDxBWXQwlhnFuWRJpAwIpByZSLhaJ5lrSxesoBxHlHkpwkJMOFl2ccwxpIWqzc6FqC5dJJCK30p3SNgp0TlIoFVDlAUpdahBo0iqtrUQotOvr6x5jJ5BBBqDCfSIWiyEUCsFqtXJb6bhsDjy8bhsnh5bS74IgCMJygQqFRCIRhMNhLmwg3Byugmu383OJOHKXHnmaEoQHHAr5yjdMc8slljaxQDSZcuYIRE4WiAJpJ6ZTdgzE8zk5NaFDmpNUO/XheTFIF+Jlhy6sphE1peTXYZ7G9Ha1043CyMVR4NWL4AFfhYeqZmnTmjxt3mcjZ8y9f11mYiHMUtUv9QVPTh6vzfWZQrISqSQujfWg1lsKr9V53Rff1ckB3l7vLfuLRCK6zv7pMb5GvyNP8gcJ6Ovrw5/+9CeYzWZUVVWhsrISJSUl8Hg89/U6wtEIpoMznLPHaDSyoEOVv+4UKh0/OD7M90lFYencfUT359DEKGbDQZTkF3G1sM9KMBLivETkOKKQNZoKgiAIws0YGBjAqVOn0NnZiWAwyJUvhZtD390Oh4OfSXbv3o3CwkJx6S4hIgQJgrAoZl0cfsMUt1yiaRMnp55J23k6PTdvyyw7MK2Wx+MedhGl0zrOWUQVz0gssulisOsjGKjfjrCnCL/tdKFwErAYyT0DXB4DxsPAdFRzBhnV94PXprmDylxApZpW5wHFan4qakBKb1lUUPpLOTvUiU96z6lrsiCciHIZ98817ITH6uAy1rdiLBRA1+QgNhTVIpqM4/2u01wW3mG24vxIF0pd+Shy+NS8enCIRVHtKf7MQhCd6zdtBxFT5wnHY3iu5RE0+MrvyS8ts7OzMBgM/EsO/epFDz2E0+nkKf0aRg9BJpPphj5Mmgbud/2yhEUYGhrC7373O/6VsqioCBUVFdyqq6t5Sg9hBQUF/H7eS6i6159Pfoyo+mzSZ9zn9mLP+m2oK6361H0nZwIs8nhdHpiMJpztvMTl3vM9Pl5Pn3AShboGe9E3NgSbxfaZhaCRyTF8dO4EXy8JvtuaN2Bb0wZOTi0IgiAICwkEAnjzzTfxwQcfwGazIS8vj3/wEG4OPRf29/fj6NGjGB4exte//nV4vd6lvqwHFvm0CoJwR1BomMUQQAECN2wjsSeYsmaEIk0YmlVTSlydO6X1absf4/piHB82wzLJGgEzPAuE4/PHTKSA0aDWTqhlp1kThIqc6nzBUgRK9iFu9an9767w0T01hGP9l/Clxt3s2nm57SAa8stR7yvjMvDRRBxVniK4LXaMh6fZlWMxmhFPxrl8/OHe83xF1b5SFo9MBhM6xvvw0zNv4eGKddhfs5lLyxssenY/kWOCzjkdC6LC7Ue+zcPJcq9ODsJv9/A5zQYjqvKKYcgRvg52t+Jo3wV8fd3j+N8XPsDr7Ufwf+786l0vLU8Cz49//GNs2bIFTz31FCYmJniZHnr++q//mh+CSHigX8c2btyIJ554AmNjY/jJT34Ci8WCF198Uf09QNdoGP/P+wNYU2bHnoY8jM7E8crxEdjNBnz3kWL1uqbwwaUpdI9FsLbMgYfqPRiZjuHVE6NwWA14bpsfBr0Oh1SfnokI1qk+O+s86jgxvH1+Ak6LAU+v97FYd6xzGsNq33XlDjSX2DEciOHdC5NwW414cp2XxbKzvbMYV9dQU2hFU7Edo9NxHLk6DY/NiH1r8jAbTeJU9wwLWA3FNhS5zRhSx7k8GIJb9dlW40JQ9bnQH0QsmUaN34ZCt4mvuWc8ijy7kc8diiXV3x5R73MapV4LvGo9/e29qo/bZkCT6kPH6aY+6mRlqg/tGwglMKL60d9V7rMgHEup80czScO1zzwJcF1dXfwelJWVcUgYCUE0JSGItlGj94oeuMrLy1kMIqcQtWg0ilhM3XTGux9CRgJLa8dF1JSUc5WuIxdOsyDkz8vHeGASwUgYfo8Pfq8PM6EgpoOzfD8k1OeNSsifbD+HlqoGbKxfA7vFysJM78gA3jz2AYtYX3rocc4b5LTaeBpPqNdragwT0wEWkIq8BewaGg1MgP6XoePSZ7nI51efJ61iGFXzO3P1Ik6pc1UWlaFvdBAfnT2Ocn8JqtSyIAiCICykvb0dR44cQV1dHZ555pn78uPKSoe+j0lA+8Mf/oB3330Xe/fuZaeyuIKWBhGCBEG4a1CJesoNRG0xqNR9KGVBMG1D51U1+K/Zhadqn4XTY0EkCUQTwMc9wFQEiN8kzHo2RiFVQEiNW+0pExL6exdn7DDbsL92C8aCU3j76gnMREM4NdiOgZlxtS7AItBzLY+idagDR/su8nKRw4vDfRdwcfQajqh1fqcX16aGWSA6rfqdG+5kQacpvxJDMxPa4DWVwOsdR3BlvI/FpGgyhq80P4ISte/Pzr6DmrxidiX1TI3g+1u/gHqvFhpDX6if9J5HS0EVnqzbit7AMD7qPcfC1d2uLEbnGh8fx8zMDC/TYHp0dJRDj7JW6KmpKRZ/yDlEJNSgnPqQQEF9qFITCSvn+oLw2I0sZoTVG322N8hiCB9Xve/XxiM4r/p4HfQVlUYopvUhYSS+WZMMqU9bfxD5DpP2YBFK4KP2APKdJuxb44VBl8bFgSDah8O8jkSeqUyfIrcJjzbn8fWc7JpRfULYn8xDfaEdfZNRvH5mHBX5FhaCguqD+eHlAALhBL6ky4dPna9DHfOXR4ZZ9CEhiLa9eW4CM6rvgc0FLPJcGgjh54eH+bzNX6jE+GwCrxwfZUHoy6rPpionzqm/6dfHhrGm1MFCEAlDLx8fUfdBmvtsqHSgtWcWfzw9xn1+uL+Uha2Xj42q9ziNXXVufi1I9Hn55Zexa9cufO973+Nl+rUtHo9f9x5m3w9qra2tbM8uLS3lKf0y569u4V/r7vYDGbl0NjesRWVhKXqG+1kA6h7sxZnOS5iamWYRZ8+G7ZgJB3Gw9Qi/nx6HG8OTozh9pY1FUhJ1JqanOKwsFI3g5OVzMBmNaK6s48/W+HSARaUrfV04deU8Cz6US2hb43pUl1So4x7G6NQEO4omZqawe+1WPLxuKzuN4ok4rg5c42M/tf0RnFDHpuMPT4yKECQIgiAsSm9vL+fj27FjB7Zt2yZixh1AYhCJaPS8Ul9fzz8YCvcfEYIEQbhvGFgoCsOFMKwznShIlGN7UUwNRuf7BGNawujg9WNYdtf4HUBDPtDoA+pUC/QP4X8NH4LRtlNtL7/r1zsVmcXPzrytrimCBl8ZKjyFGJ6dYKFlMjKD97tP49GaTeibVgProSs40PQwqr3F6JkeYfGnPr+MnSTkLPpi40Oo9BTBrDeh0l3E5ec7JvrZHdEXGMOvzr+HZ+p3sOPoJ61v4q2OY/ja2v04ofYtsLu5LP0b7UfQNtKFWnYF0auZxmR4Bi0F1fz65FmdfK3J9N1PVki/cn3nO9/hMCMSochZ8sMf/pAffCg0jNwmBw4cYAeK2+3mPvn5+dyH9qU+VFGtusCK7z9aggKniZ0ffpcJf7O/VA3aNTHPYtThybU+7Khxo8Bl4uOQcEN9TKoPOWNoP+qzs87Nx9FzHzO+9VARrCY97GY9O4L2NudhU6ULleqc1Kckz8J9bGYD9yGHEh2jsdiOynwLJyQv9pjx7NYCuKza16PTamDRiAQscumQC4ecOU+u88Hn1HLI0DXtqncjGtecPPS30HRPYx6KPFofh0WvrsXJjie/ulY6TqnXjN31HnYIZY+zqcqFeDKt+mh/l9tuRLXfpo5jzrw+eu5PriGHRRPP6AGKBB2/3z+3TO8PvTe3yldA20mko/dranLyrn9mskzOBvDuyY+Q56DPhR4t1Q0swJASODkzhQvd7chzeeBQ13LxWgfqy6pVq+LPNAlCxV4/CzhXB3rgU/02N66Dz50Hi9msthXgVPt5dA31ocibzyIOOel2NG/C0QuncejsMejU39nRf43zFe1cswmXejrQ2tHG4pQnIwTNhELQq8+p3WLjc5H4FFEP+IIgCIKwGPS8Q6HwlPxYRKA7w+fz8WtHPxxKgu2lQ4QgQRCWNXlWoNYLNOUD9T6tVeWpgbUaR7bOhGCJqQFs6u6WsM9CYoLJYEStrwTrC2tR6MjDh9fOchn3Wm8JPu49z8ILiT1uiwNP129XfbwYnJnA+eEubC1p5AE7H0sN6tf6q9RA3oQWfzWKXT6t1LyCwr5I0Hm0aiNq1HEp3OvKRN+coEPn3l2xFj+1v8WupHTO9VF42Ww8zOtoSi4mwz3ImUTXX1tby+4RgpxADQ0N1/WhkKNcSJDI9qFcQfTnumxGFkSykCCzuWp+mcK+SCzKhQSP3D5Ejf/6PuQweqQp77p1LaWO65bzFumztdp13TIJOGXe+V+m6Nx7Gq9PsFxXaOOWhULESJjKhRw+1LKQk+jLWwqu60Ohb9SykPD1lZw+9NHZQGFtxXYYMkIZhZ19dVsBh0KGo0mc7w+yOPfVr3517rUuLi7G9u3b8frrr9/gCiLhh8LBmpqa+Fc4srRTaNir//tV6OnfPXiYpc+pUW/ksKuakgoWetr7OhGJRlDiK2Snz3RoFnarlcPHSKzZt2kXvQK40t+N6pJyFPm018Wg7sfSgiJuJNrUlFRy7iBiTB1nRh1na9N6PLblIYwFJnCu6zLnGqJ7jdw9u9dtxZW+bhZ5yCFF0N9sVg+ksXAMMbUupl4zchuRICQIgiAIi0HuVXo2kupXd072WYNEoLQkj1wyRAgSBGFZQa4MygNUlHX/qFbn1cQgj/X+lpH3WBx4vuVRdgKRuDIRnsabHcfwcOV6Du8iZ1CKxZq0WjbNhWPRtmA8grPDnewKmv/b9DCpPlRFbI2/knOTGMg5Y3Opv9mGw31tGJwdx7WpIawvruP+2f2wyMMGDW7XF9Xi5OBlfNLbhpMD7dhS0sDnEFY+9HabjXrV5teRUEb5lIh4QhMKyXFFv0iSyJNdJqEuCwlyVDGssbGRW1YAomod5OS6dOmSeijTUZKve4LH6cLejTvx+V37+TM7ODHCIV9D4yOoK6tCJB7LPAxqpeFNmWSbevU5jsSiHE5GAtH8a6DdF31jg7g23MdhYESewwWrxYr23i52AlG4F1Up87rcc/cP30N0G+U8d1LeobKCIhy9eAYftB7hhNF5Tg+K8/335gURBEEQBEFYYkQIEgRhWbFGjb1cFqDArok/NDUugeO2xOlDS2E1HCbrnMOG8vfsLF/D87R+c3EDCzilrgI0F1Sy64GgpNLNBRXomOxnIWhzSQOLSjaTBY9Wb8ZUZIZFJXL/kHhEIWMvrNvPOX4o8TTtT2Fi1J/2pbLzFOxETqISV/51VcvIhUTHOj14ha/jCw27xKIscNU2qhBG4WIk/pBbqKamhkPIaNv9wuv0oKmiDoXe/DkBx2G1o760Ssvjoz7/DWXVKM0v5IpiFBKWFX3KC4rRXFnLIV2hSJjdRCQquexOtFTVs5g0OD4Kf56PBZ6G8hp28VDi59YrF+BW/bY0rkdVYRlqi7V9qSR8dVE5C7imTHl4cvhtaViHwOwMekYGOKcRVQyjRNOCIAiCIAirERGCBEFYVqz1A5uK76/zZzHIaUNOILd1PnSHxJ8XWvZjPByA35GnrrOBBSNKEk25fahEPFGdV4xvrH8C8VQS+TY3/mrjUyh3+zks7LmWvZxnqNiZj8drt7BDgsrKf7npYXRODnA1siKnl0UdGqx+c8MTvC8NVp9t3sN5gPQ5zqA6dd5vq+OTgETnokpmn1beXlj9UPgXVXOjsDEK2aMcTUsBJWp2OZwsCGUhgeZhKiFfVsVuHBJkKFEziTSFeT543Vr4XnlhCb6w6zEOG6P9qeQ8uYWcNgfvT2FhHnVsLeFzgsUmcvZUFZcjEJyBz+lGcX4h3y/kSKJ9SYSi8DDCliOIVat9yLE0MjmurtfBIWtSOl4QBEEQhNWKCEGCICwrLMvkfyUSeqgtpMLj50aUuTTHAOXlodxAWcjlsMZfNbe8rrBmbr7Ulc+NKLDPD45JRMrtR+h1BnYBZSGn0EK4RH1eMTdByEJhX9SWGo/DxS0Xcu8UeHzcFkLVwbKQMFRRWHpDHyLf7eW2GHWllTesqygsmZsv9994r5CLriS/kJsgCIIgCMJqZ5kMuYTFoJKE7e3t+OMf/7jUl7KsOXv2LBLJe5MsWBAEQRAEQRAEQRBWEyIELVP0Rj1SlhQudF9A92j3Ul/OsiZEZX/dehgskiBXuPdQgufR0BTyLA5MRmZhM5rhUvP6v6BqxNDsBK6M92F7WTOsxluHo1CC6pHgFIoc3rmcK4Kw3InFYwhFI+xgiycTnASaoPArt8O1aBjW8OQYBsdHOOSLKnlNB2c41IxCy+42lKyaQtDIGUQJpqUKjCAIgiAIqxkRgpYpziInNn53I1Lxe1TGZZVhcprgq78xzEAQ7janh65wVa991ZvwyoWDaM6vwiNV6zmR9Gele2oYL7cdxNrCGj7Opw1Bqbx8U345J5LW34NS8YJwNyHh52znZQxPjnLC51Pt53G5t5NDvyjvz/7NDy0aknVtqA8fnTuBbc0buCz81f5rOOBw3RMhiOhQx5+YnsTG+hZJFC0IgiAIwqpGhKBlitVrRd1TdUt9GYIg5BBJxPDHyx9jS0kjCzAn+i/DYjDjocq1sGT6xJJxdvcQlMiZHD5TkVn0BkY4+XO9rxx2s4XLV/dOj3LFr/HQlJofQTKllcEenBlH/8wYKtyFKHTkIRANsmuIkkHTNbgsNrxy8RCaCiq5apkgLGeGJ8bQ2tHGiZqTqRQuXutg9w0lcKZqYZQomiqDkfuH1hf7/CjMy0coGsbI1DiC4RCmg7MYnZpALBFHXDVyC40FJuFz5an+BbxfKBJBgcfL5ehn1bLPncdOInIi5at5EqQGxoZhMBhQll/Erp+xwATS6TQnnE4mkyxQ0XbKXySOO0EQBEEQVisiBAmCINwmJM4MzIzjrzbWcAWwhcTUQPPlCx9gIhRAUg0uz49040tND+FI3wUWckaCkzgzdBXPr92H9vFe/P7Sx/DZXBhU2xIZEeiC2udPV47AabHjva7TeL7lUUyGp/GbtoOcnJoqme2uXIefnXmXr6XBVyZhLMKypndkAFOz09jcsJZDwEhEpaTQVEI+3+NFNB7Dh2eP4UL3FQ7NImHoobVbkUqlbzhWJBrFJ22ncOLSWRZWqT8d12gw4Gp/D5d9J+dRa8cF7Nu0i0vCTwVnuNx8W3c7+kaH+H5pqqhFVVEZPjl/EoPjw1xpbH1tM1/ftaF+zIaDNyS5FgRBEARBWC3Iz12CIAi3ybWpYbjMdm76Rf777J4awuuXDyOeSrH74LeXPuSy7uQKItfBeGgar185guloEK+1H+YphXeRGEQl3yn/0B8uf4yrkwOwGEw4PXgFR/raMBoK4ORgOwocHtT5StkZ5DRb0T89ijRuHCwLwnKBcu9MTE8hHo+jMBNuRaJnR183XjvyHk5ePoe2rnYcuXAadqsNG+rWYGh8FIfOHOVwsIUMjA+zeBOJR7G9aQM7fj45d1LtM4be0UEWe7qH+jj8rK3rCq4O9GBqJqCm13C47RSCkRBGJsdw9GIrrvR3o0O1mXAIlUVl7E5yO5zcZ7FzC4IgCIIgrBZECBIEQbhNookYzAbTTfPy9E2PIhgPqz5GeKxODu2aiYbYBURiUL2vlJeDsQg6JvrRlF+BbaVNWF9Yw2EoqXQSl8d6YDdZWRhqLqicO5dFHfPx2q1YX1TL5enpOsLqekQGEpYzJFSS8EOfU3PGRUef9dKCIuxs3oj68mrMRoIs6KyrbcJDLZtZMKKQLQrpWsjkTIDDwOrLqrFnw3bUllaq/UNw2Oyc5Pns1Ut879Dxrw33sahDyaYptIwaOX78efnwZ0rXUxjYmso6dd4tfF6jus9IkJVKlIIgCMK9gH4YDIfDmJ2dRSKx8r9rqMr1avlbHjQkNEwQBOE28dpcCMYjc2FcxJWJfrzdcRwuix1u1Ui4IbGnzF2AjcV1HCL2566TOND0MKbV+kRa25dy/1wa68HHPedxYqCdj0n7lrkLMTAzipQaOlMo2JqCKg4pM+qNMKlGg9x4KoHZWIgrl0lQmLCcoc+0zWzlEK5gJMzrDHoDqovLsX/LbpgMRkSiEQ7tOt3ehtlQkEO1in2FcNrsNxyPQsoo19Clax3486lPcLmnkwWgxvJqTvR87FKrOnYZNtWvxSfnT/B5Keyrf3SIzxFS11BRWMpCkcvu5Guh/EDUj/IXUa4io5q3mCw3nFsQBEEQPiskAHV3d+PIkSM8JadsXV0d9u/fj9LS0qW+vDuGHL+HDh3CqVOnWAjy+Xz43Oc+h6qqKhiNIjGsBORdEgRBuE2qPMWIJKIszHisDqwvqmNxh0K5KGnzgabd+ErzHkyRwyGZQKWnCEX2POypXM9JboscPmwvbeawrmebH8HbV49zrqAipxdbSxthNVrwfMtetf4EC0MmNUgtVtvS6RRvp0Ez0RsY5UFrVV6x5AcSljX0+SRHjsVk4ipgjRU1aCiv5vw7+sxnl9w9j2zcweIOhWrVllZhV8tm9ZCZxFjFJPx5PtgtVnbpUF8SiE61t3FOIUoCvbmhhcWdydlpTjhNwk+5vwRTswFO+lyh5qkf5SmiJNOUW4gqj1FCaroWEoXoUmh7IDgDr9MDj1PyAwmCIAh3DxJ/XnnlFbS3t6OiogJ5eXlcpIAEoZUIXfvo6Cj/HRaLBQcPHmQB6MUXX2RRSFj+iBAkCIJwm/gdHg7l+qT3PMrdhXh2zR6E4zHeRi6CArsHX27eg4GZMRZy/PY85Kt1X1/3OOcDouXt5c3Is7mwze6Gz+ZGMp3kPoFIEA6zlV1EJDLNxsLsAMqzOmEzWfCSOobNaGYB6E9XjmJv9QY+n048QcIyh5Iyk8OHRJ7myjouF08hWNmwR3L5PLJhBxrLaxCJRZHv9rJIE4yG4fN42fFDFfXqyqq5KlhZQREq/KUcIkaCEpV6t5jNHOJF+5HTh4Qjl+1JmE0muFWfPKcbT27bw1XIKAk19SNBaf+mh2BVD7B0H128doWna6rr2cUkCIIgCHcDEk0OHz6MtrY27N27F0888QTcbjeLQE6nc84p1N/fD5fLhV27dqGpqQmtra3/f3t3Atzmed95/A8CBAmC9ylSEinqvm/Lliz5im0psXzEcTKxm7i5Nt02Mzttt+3s7mRnJ53NTna23dmZbTvbTJtNs6njxEdixY4tH1JkSbZ8yLrv+6QO3vcBEovfw7wKLVO2bFN8AeL70bxDEARePIQAEO8P/+f/2NmzZ1010cWLF13Acvvtt1skEnH7U6gUTvz9W7NmjV24cMEaGhps2bJlrsp106ZNNn36dPfz3bt3W05OjruMxrJgwQI7ffq01dXV2cKFC23JkiXu/K1bt7p9akx33HGHC3k2btxo0WjUXXbVqlWuiknTqrWtWLHCCgoKrLOz03bs2GGnTp2y7u4PTutGciIIAoDrpN48901fbqebL1p2KNMmF32wlFe9exTeDFVdUH7ltKp/PDNKJ/7+/Ojvz796v1mhsOVnRd1pVTPMr5jsmkaHg7yEI/kV5ObbirlLXH+fvJyo5UaiH7iMwp688e8/X1U72oZTM278B/eRuGzekMtXV7z/eaTqoNKC939KqQbVojfZVSUVLpSaVDGBSjsAwIhROKKARaGJgprq6uorP1NVzXPPPeeCmcrKSjty5IgLhL785S/brl27XDijsKa5udneeOMNKykpcaHN+vXrXWVReXm5C2UUGh07dsymTp3qKnNefvll97dNwdILL7xgM2fOdKGQAqSjR4+6y+3Zs+fK7e7du9feffddt88TJ064Md9888320ksvuf1XVFS477VPUdg0fvx41xvo7bffttbWVhdgKXBCauAoAgA+BvXt0eYXVVGsqpnv2+0DH5emgKkqSFuyUvCjxtMAAIw0hSUKVhTQZGZmvu9nCl1UKaQQRZU96rnz1FNPuVBH11EIoyBIIc7x48ddcKTTjY2NrmKntLTUVfAoHFLjZvXuUVij0zrPm342efJkmz9/vguk5NZbb3XnK/zRPjdv3mwdHR02bdo0d31V+Oh0T0+PC43uv/9+mzRpkhuPR5d/5ZVX3KYqI1U7aSxIDQRBAAAAAADcANnZ2a6SRxU+mj6lQEV9dRTaKExRWKPKnrKyMhfs6MMJL9TRtCxNCVOlja6jyyoYUiCj/amaSOGSAhuvWkeX8U6LLqv9jhs3zu1Ht6PxqEJJlT26LY1D09W8qiWFV7qMKERSKDQ05NFtqFro1VdfdSGQprvRKDq18D8FAAAAAMANoAqe5cuXu2qcZ5555kofHoU8CoBU2fPWW2+58GX//v2uB5Cma6kvz3A0TUzXV1CjKWGq6NF1mpqabMuWLS5AUr+g66XrKsRRPyJvBTCNS+eLwqKrp0xr/wqBNEb1DdK0NVUx6fdUoITkRxAEAAAAAMANoBBFVTyaiqWm0ApPVKVTW1trixcvtgcffNC2b9/u+gOpukfTsNTTR4GPKmwUrKgaSJU3EyZMcNU7Z86ccVU59957r82bN8/tu6ury1paWlw/n6VLl7pl6VUBtGjRIlcRpH3PmTPHBT2qUtK+tE9VCD3wwANu5a/6+npra2tz4ZSCKl1Xl7u60kehlcavy6lZtHoNqQopVVdBS0cEQQAAAAAA3CCq4FFfHk2xUmNlhSZej/plDI0AACAASURBVB8FLZoupgBGVTgKchTCKMyZO3euu4yqchTWaD+q+FHIo9BFoY43ncwLZYqKilxYpO+9aWGqHtK+1YdIgZD2o55BCnNU/eNNX1P4JJpGpss//PDDbrqYqpqG0u0+8sgjbkqaR6GTmlMjNRAEAQAAAABwAylMUegznKEriXlUqTOUpm9d62fX2ocoyPEMvX0FP14fIFG4pG0oBUXDUXCk3kFIXQRBAFLetrP77UJ7owUDwY++MD6WeOLfzrqjfg8DN5g+mTx67pT9y/pn/B7KmLX/5BHr6un2exgAAAAEQQBSl8pd9cnF2eY2u9De6fdwxqa4WXdW7/s+hcLYok8oS0vL7NLFS7b1yE6/hzNm9cb6LLdgsM8DAACAnwiCAKSsiRMn2je+8Q3r7uZT9htNc9M5gB2b1Bvg8w9/3u648w6/hzLmqS8DpfQAAMBvBEEAUpaa4S1ZssTvYQApTQ0jZ8+e7fcwAAAAMEoy/B4AAAAAAAAARgdBEAAAAAAAQJogCAIAAAAAAEgTBEEAAAAAAABpgiAIAAAAAAAgTRAEAQAAAADwMcTjcbfh4xkYGHBfMzIyLBAI+Dya9MXy8QAAYGT195vV1ZkdPGjW2mqWn282c6bZhAmjc/t6k7ltm9mBA2aLF5tdvmx24YLZHXeYVVePzhgAAGNWTk6O9fX1WVdXlwuDCDSuX1NTk8ViMcvLy7NgMOj3cNIWQRAAABg5vb1m27ebPfecWWOjWUGBWTRqpjfJHzcI0ietCpMOHzabNcts+vTrv+6pU2Zvv202bpzZiRNmR46YLVhAEAQA+NRqamosKyvL3njjDSssLLTKykoLhTi0/jCqBGpMvC945ZVX3H3HfeYv7nkAADByFLr8+tdmzc1mn/vcYPCiEKisbDDYuXjR7Pjxwaod/UzhkC6rCiK9IezpGdwmTzaLxcw2bDB7773By2RmDlYb9fUN7jMcNhs/fvC6p09b4p2lWW2tWUnJtcen6589O3h5hVS6vG5X34tuMzd3cFx8UgkAGMa0adNs1apV9uqrr9rf//3fJ/5s5LqpTrg2VU51dnZae3u73X///VZVVcV95iOCIAAAMDIUsijkUahy111mq1ebRSK//9muXWbr1pm1tAyGLwpuPvvZwdO/+tVgOKSwp77ebOVKs4kTzfbuHdzfzp2DU8wuXTLbvdssO9ts4cLB0Of11wf3r6CposLsvvuGH5/2ryohhUu6vEKfuXMHt8SbeVc1pLFoCpkqiQiCAADD0LSm1Ym/caoMOnnyZOLPWkviz0q/38NKapo+l5/4Oz5p0qTEn9257j6EfwiCAADAyFCwopBHgUtl5e9DINH5b75pdv78YKWQQpZXXjHbvNls6lSzc+f0EavZ0qVm69eb7ds32FdIP1M1kHr9qIJIYZL6Dq1YYVZebrZp0+DtaZ/at0Khd94ZDIWu1tAwGChpytptt5nt32+2Y8dgIKXrdnQMhleaQka5OgDgQ5SVlVlxcbEtWrTIenp6rjRBxvAUBGlKWDQapRIoCfAuBwAAjAy9sdN0LU3damoaDGi8N3vt7YPTwhJvmu2WWwZ/tmfPYCNnVfGoEkhBT+INtav4UeWPPi1UZY4qgSZNGrycqFJo1arB6yokUmCkfaoaSSGQrqtpX1dTGKUxKAg6c2YwLBp6Od2GKpE03QwAgI+gZseaFqYNSCUEQQAAYGSoika9dQoLByt1FLIoXFGlkMIhvVFWDyH19FGPH00BU9iTkzP4vaqEFBwNXX1F36sBtYIk7UMUNqmKR9dT1ZEqfRT+aGUwXU77VLB0NU0n06brTpkyWFGk2/TK+XW+NgAAgDGMIAgAAIwMBTgzZpitXWv2/PNmP/7xYCijKqB77jG7+ebBKWB/93eDAYxCHFX2XKucXpdRFZAqd7wG1EOpMkiVQJpi9oMfDAZOVVVmy5YNLh1/tdLSwZ+9+OLg+LSamaaYqTE1AABAmiAIAgAAI0fTuNRsWZVAmrqlahtVAilsUSikaiFV7ig0UkWOVu3q7h4Mi7SymK7/4IOD5ykE0uV1/c7Owb5D6t8jqjZSdY9uS1PKNN1LlUKqSNKmfWnJeV1HU8cUOGlMWoJeYZGqiFRtVFMzeNmvfGWwiojmlQAAYIwjCAIAACNHAY9CGgU2XqWPzvOme2mFrjlzBk97/YMUviiM8ahptEdVOzfdNFgVNHQ/Hq0aphDJaw7t7VPVQtqGo8bTV19egRMAAEAaIAgCAAA3xnCrggwX5nyUj7rOx93nJxkDAADAGMG6bQB8E4/H3YaxT//PWlaVQ++RE/jdJjyP0oP3mulyLL8Hk0Z0f/McSx/ueTYQJysGMKYRBAHwRW520DraWqzPWwUIY5reWLc0N1tBhELUkZIZDLjnUW9vr7VrpSyMeW1tbdbT02M5WRkWDnGUOlryI0Framp0YTbGvlgsZp0dbe71FQDGKt6RA/DFtIqIvXr0iG3ZssWFBHl5eZYx3DQSpDT937a2ttq2bdusof6yzZtf7veQxozszAyrLAxbd2u9vfrqq5abm2tFRUU8j8YgPY86Oztt69atdvLEcfvclGwryOEt3GiZNyHX3tm10zZv3mzz58+3SCRiAcpFxpz+/n6rr6+3DRs2WHd7s81Qs3oAGKN4FwHAF5+ZXWTHLtXZul8+7d50hcNh3liPQTqAVdVXQ/0lWz45YrfNoCHvSMnICNi0ihy7bXKn/fb112z//v2WlZXF82iM0vOoseGSTc7rsSWTSi03i2qF0fLQ4lI7efms/fj//sjyCwotU6vLYczR36uuri7raq23FVOitqSWFQQBjF0EQQB8UVOabd++o9L2nu2w882XrKt3IC16MBy91G3vnWqz+xaUWDQ89is3FErkRINWNSls8ycWW0kuB1AjqSwv0x5ZWmIzx3XYqfp6a+vuT4vn0bnmXttzpt0qC7NswcSo38MZFZG8xPNoYpbNrCpwr5/BDAK/0TJ9XI79+ZqJib9X7Xaxtc56YvHfrzo3Rum3a+yI2av7mhLPsVybWRnxe0g3nML1vLyQTZyVY3PHR62QqjsAYxivcAB8EUq84ZpSHrGqxIFcV2+/xQbiNrbfVg965p3L7gD2S8vKrSg69l+CdagaCgYsJxx0U5kwshQGKAwpzc20jp4B6+sfSIvn0dvHW+1cY4/NnRC1r9w6zu/hjAq9Zup5lJV4HpEBjS7145pVlWPVJYm/V30DNpAOf68Sv2BLV8y2HG6xCcXhtHie6WkVDmVYJJxhWSH+XgEY28b+UQiApKY3XJE0qIwZSoFIRX44LYIg3HjewUs4jQ5c9Em9Ds6j4aB7LgGjIZoVdFu6yI+EbEZljh292M3zDADGmPR51wgASaC9p9+i2UGWpQUAJLVg4ihh4cRcO9fcYxdbe/0eDgBgBBEEAcAoUg+XvOwgUzsAAElNU0+X1uZZT9+A7Tnb4fdwAAAjiCAIAEbRYBAUYmUnAEBSUxA0tSJiudlB23Gyze/hAABGEEEQAIyitu6YW/aZHAgAkOxyEn+vtGra7jPtfg8FADCCCIIAYBT198fdp6zkQACAZBdM/LGaWh6xupZe6+zt93s4AIARQhAEAKNIIdBAPA2WHgZusFDiCFUrhwG4cTICAZtUmm29sbidb6JhNACMFQRBADCKQhkBiw3EjSQI+HTCoYCFM3kbA9xIGYmn2KSybPcBxumGbr+HAwAYIbyDAoBR5CqCBvweBZD61HCd1feAG0sVQeMLsyyY+Hq6ocfv4QAARghBEACMomBwsCKIgiAAQCqIhDOsLD9spxupCAKAsYIgCABGUSjxquumhgEAkAJUFTShOMvOUBEEAGMGQRAAjKKsUIZ19/VbPE4YBABIfoGAWXE0ZA3tfX4PBQAwQgiCAGAUleRmWmN7zCgKAgCkAgVBedlBa+uOGZ9hAMDYQBAEAKOoIj9srV0x6+4boE8QACDpqSd7blbQ+vrj7m8XACD1EQQBwCgqz8901UD1bX02QFkQACDJaYW+vEjIfXjR0dPv93AAACOAIAgARlF5QdiCAbMLLT1MDwMAJD1VBOVlBd20sLZugiAAGAsIggBgFJXnhS0jI2AXWvpsgGYLAIBkFzDLDg8eMnT2EgQBwFhAEAQAo6gsL9PCoYCdbeqxflotAACSXdys53e9gcIqaQUApDyCIAAYReHMDKstjdixi53Wz9wwAECS018qTQlzTaOzQ34PBwAwAgiCAGAU6Y303AlRO1nfY509/awcBgBIavF43K126ZaRjwT9Hg4AYAQQBAHAKJs3Mdf6+gfsZH03K4cBAJKa/kq1dvdbMBiwnDBBEACMBQRBADDKZlflWDiYYfvPd1isnyAIAJC8tK6BKoJys4KWQYsgpICM7GzLyMqyzs5O6+7u9ns4uAFaW1stEI1aIIM445PingOAUVYUDVl1SbYdrOu0GBVBAIAkphUuTzf2WGVB2O+hANclXFZmmSUltnv3brfFYjG/h4QRov/LzZs327FjxyxcU2MZYV6XPik6vgHAKMsIBGxhTa69tKfBmjpirtQ+wKesAIAk1N03YGcaum3twlK/hwJcl8yyMitYtcqOPvGEff/737fCwkILExiMCarwam5utrbcXJt4772WEY36PaSURRAEAD64fWaBPfvuZdt8uNm+sLTMwiEKNAEAyUXVQKfqu93y8ZrWDKSCQChkBbfe6qqC2nftsot1dWY9PX4PCyMhK8uyxo+36ltusciUKRYI0rfskyIIAgAfzBiXY9PGRezVfU12/8JSC/NqDABIMgMDZkcvdbtK1lkEQUghwWjUcufPt8i0aRbv7bW4HsxIeeoJpOlgwdxcM/oDfSocegCAD1QBdM/sIvuHDedd0+glk/IsSBdOAEAS6R+I296zHTauMGyVBVl+Dwf4WAKZmRZKbAA+iBgNAHyyamahRTIz7MXdjdYbo2k0ACB5aLWwlq6YvXeyzZZOyrNQkA8rAGCsIAgCAJ+U5WXazVPz7Y0jLXbicpfrxQAAQDJQNdCWwy0uDPrMnCK/hwMAGEEEQQDgE/Vc+PLN5ZaREbCfvXXJuvsIggAAyaGvP24v7Wm0yWURmzOelXkAYCwhCAIAH00uj9jquUWuKmj/uXb3CSwAAH5Sheqhuk47dKHT7ppdaFmsbAkAYwqv6gDgo1BGwB65qdxys4P2r29esp4Yq1oAAPylvnX/740Llp2ZYXfPZloYAIw1BEEA4LOqorA9tLjMdp1ut00HWyzWT1UQAMAfqkzdcKDZtp9sS/xtKrWKgrDfQwIAjDCCIADwmXoFPbi4xGrKsu2fXz9vpxu6jRliAIDRpjUL6tv77F8219nEkmz70rJyC2awWhgAjDUEQQCQBIpyMu3fr57opob97UtnrKUz5veQAABpJjYQtye3XbKLrX32b++ssuJopt9DAgDcAARBAJAEAgGzmVU59m9ur7L95zvsiW0XrZd+QQCAUaIpYb890GTrdtTbmnlFdlNtnvvbBAAYe0J+DwAAMEiNo++ZU2yHL3bar7ZftinlEdekMxTknTgA4MbRdOQ9Z9vtf79yziaVZtvXVlVamJXCAGDM4hUeAJJIJJxhX19ZaTWlEfuH1865ZeVZUh4AcKOoL9CJy13239adsmh20L77QI1V5NMgGgDGMoIgAEgyxbmZ9h/XVltuVtD+x4unbeOBZsIgAMCIUwh0tqnH/ssvT5gmI3/v85OspjSbKWEAMMYRBAFAktH779rEG/HvPVxredkh+58vnbGX9za6Jp4AAIwEhUB7z7Xbf/jFMatvj9l/fmCSTS2PuJUsAQBjG0EQACShjIyATSnPtr9+uNYKIiH7X+vP2gs7GwiDAACfmqpMn373kv3Vz49bbyxu3/9Crc2ZEHV/ewAAYx9BEAAkKX0qO7k82/5r4g16UTTT/vcrZ+2fN9VZe0+/30MDAKSo9u5++7tXz9n/2XDe5oyP2t88OsUWTMx1CxYAANIDq4YBQBJTGFRbnm0/+GKt/fPmC/bkW5ds95l2+6v7aqy6OIs+DgCA66KpYAfrOu0fNpyzA+c77KHFpfaVFeOsMCfE3xL4IhgMWkbigRnv6/N7KEgTA93dlhnSax4vegRBAJDkFAZVl2bbX3x2os2qzLGfbL1g//5nR+ybt1XavXOLLcinuBhLwrlmkdLEEcK1Vy0qmNBu0+dUWsX4qFlx8Yfvr6thcAPS2IXWXvvplgv2yv4mF/x894FJtnRSnuVmB/0eGtJYXl6e5fT2Wu/Fi34PBWmi89AhG1dW5kLIdEcQBAApQGGQegV9fkmZzZsYtb958Yz9bWLbe7bDHl85zsrzw0YchDEhb7zZ1DVm+ROveZFZCwesdvWAZQYzzDI/ZJZ7rMvs2MtmpzffgIECya+1K2a/3F5vv3rvsnX3Ddj9C0vc35GyxN+McJC/GvDXzJkzbWZlpW376U+tY+9eCydOB0IcnmLkxXt6rPPIEWt75x37g69/3SKRiN9D8h3PNABIIZFwhs2uitp//9IUe+LNi/bSnkZ781irPbyk1B5aXManu0h9GYm3Jpk5Zll517xI5u+2j95X8EMri4CxqrGjL/H3ocle2FFvZ5t7bFltvn39tnFWU5JtOeEgU8GQFKZOnWpfe/xxK37+eXt7+3Zr3rrV+vvpg4iRl5mZaRUlJfaH3/qW3X///Zadne33kHxHEDSCNNcwFAzZQN+A30PBJzQQG7BA4p+f5YK67Xg84Fb0AIajqWAVBWH79p1Vds/cIvvXNy/Zj16vs/V7m+xrKyvszlnFxmwxpLKGhgbrbAtaRUWFhcNh6+vrs7feesvq6+vt1ltvtbKyMne5uro6O3r0qHV0dLgpBuXl5dbe3m4XL150f5NrJ4yzKYmDCuJRpAv1AFq3o962Hmmxls6YTSqNuGXhb5qcZ7lZQaYSp5GBxPtIvZUMJXGFjcY2a9YsmzRpkvX09CTGzDEUbhwdY+Xk5LgQiB5BBEEjSkljYW6hNZ1o8nso+ARiPTHruNRhmf2Zlpub69s48vPzrdvCdrm91y3pGg7xQoUP0qNCb+pVHfSf1lbbvnMd9pOtF+37vz5tz+9stEdvKbclk/J404+UowOBAwcO2C83PmHTp0+3lStXuiBo//79tnv3bhf0LFq0yIVBhw4dsmeeecYFR6WlpbZ06VI7e/as7d271zIyMuwzt6+w6sW5BEEY0zp6+u3dE2323I7LtudMh5tKfMuUfFs9r8RmVeVYNPG3gvcS6aelK2ZNPUGrKSz0eygfSmGQgnxtAEYPQdAIKigosBXLVthz65+zgf4BK5laYsEs3n6mAoVADYcbrO6dOrt7+d1uzrJfFixYYJs2TbInt22x45e6bHJZhDdw+Eh9/XFbNjnfnX73RKvtOtNutaXZtmJagRXmBN2BAZAKyqdMsNqb77Ivlk61M2fOuKBn06ZN1tvb6wIhhUEKgR599FEXnE+ePNkFQ6oC0mWysrLsnnvusa6uLuvpjblV9s7tuuz3rwWMKFUNd/fF7WBdhwt/Wrv7E38HBqwiP2wrpxdaSW7IzjZ128XWHr+HilGmx8bltj4XDsaiE2zx4sV+DwlAEiIIGkGFhYX22KOPWTwetw2bNtjxV477PSRcJ5UHFuQV2OqVq+0LD3/BfbLsl3HjxtlXv/q4PZWdbZu3vWEv7Tk/uOYrcB16++PWFxuwzt4B23O2ww5d6HQhEDEQUsXM2QU2/tizVlRcYmvXrrXVq1fbH//xH9vGjRvd9DCFPDfddJMr7966daurxtVpb/qDKoHUBFJ/i9vb2mzToWZ7fv1Zn38rYGTpXYHeGsQGBhKv+XHz3iWcbeyxZ9+9zPTgNBfOyrZpM2fZlx9+xG6++Wa/hwMgCREEjSC9+aysrLTv/Ml37Jvf+Kab66pPL5H8dACh+aLepv9Lv+i2VZH0F3/xl9bd3e0eR7FYzLfxILVpysxrr71mL730kjU3N1ttba0tXLjQHUhPmzaN5TORdNQT6NixY7Zu3Tr32F2+fLmrDDp+/Lg1Njba4cOHLRqNuuof/VzTw3QdVQApFFKjUVUF6ate2x9++GH7vz99ksc6UsqFCxfcdMiDBw+6PlinT5++0j9Fr9233HKLex2fMGGCzyNFstH7SL0m6v2sQnGdBoCrEQSNML346g2qtjhVHCklmZqG6YBFfYq08TjCp6GDBAWLjz32mJte8/rrr7uDZ22aXqMpNWq+O2/ePFfVCCQDTflSo2j9Td2xY4c99dRTLshU2KMDZIVC6h2kx7DCTk3N1s9VGaTwXNdXUKTXUh0019TU+BrwA9fS1tZmp06dshMnTtjJkyevnG5paXEfJuoxrOmPy5Ytszlz5ri+WWqKroN7bQScGE4yvacFkJwIgm4gXoQxEngc4dPwVkjQp4Jf+MIX3FQbVVVs377dNm/efKVaSBUUU6ZMsblz57qKofnz59O4Eb7R6mDPP/+8FRcXu4qeu+++2z1W33zzTTdVTFMdVP3z4osvuoPliRMnuooJPdYVACn4aWoaXLhByxNzsAy/qIpHr7mXLl1yIaZ6WWnTaYU+eqyr6terYBs/frwLexT+KPjR41ev3/qZtxFqAgA+LYIgAEgDChQV9mhTwFNVVeUOqPVp9M6dO92mKTZPP/20/eIXv3CfNOtARKGQDkS0tKsOrikxx2g4f/68O3BWOOkFkgp59PhTpaRX8aPHr6om9b3CHn2vA2VVt3k/IwTCjdDR0eGqdlSJdvWm8xVEXr582T2ONc1bgZDCHn3VY1q9CBVgqiJTr616jdXrsgJOPWa16bGsr3wgBAAYaQRBAJBmdFDhTSvQNFZVW9xxxx3uU+nOzk7Xk0LLdysY+s1vfuMOanQwogMUHaioz5A2Hbho6pkanOsgHRgJehxqCXgdMGsK2Le//W33GFSwo8fnnj173ONNlRMKg3T6vffecxUW3rRaPYZ1OVbLuX4KzRRU6P73KlSG+364LZmmMHu/hxe6eL+D9/1wv593WtMKFdp4m77XdMThNl1P+9PtafNOqy+LpioqnCwpKXFTczXNUa+T+qpNj1lV9XiBj7dR6QMAGC0EQQCQxhQKKeDRJjqI1sGLGpF6B0zqwaLmvdrUw0INTDVNR7yDGR306EDn6k37KioqcgdG3qpOwIfRAbkWXrjtttvc1+rqandAPjRsUDCkigw9XhVGanqYqtf0ONbldKCukGjp0qWuCm6s0v3S3t5ura2tVzYFZkO/6n7S/aEQzQsxdN94z++hwYgXaniuDng+7GfJ5uOM3fveWzjCa7TrVVFqapamKXrNd7XpsafKs6s3XVevi9r0+uqdHrpR4QMA8BvvygEAV+gAxetD4R1AK+TRwbgOzL1PznVQqVDo3LlzV3peaAqEqjA2bNjgLnP1gZCmQ+hAScGQFw7pe1Ul6cDK62WkTQf0Q3tiaNMBlndgpp9zMDU26f9ZQaQOzvW4Ud+qq6lX0M9//nPXK0hTHHXZoY8Hr0IjVfupKNzR80mb+sto01Qjbd5pfdXz0KtEGVqdos2r+NPzSptCDH2vKUlDn1/eFKSh3w89b+gUpaE/H1rFkkzPxaGVNjo9dMze91f/nsP9Lvr6Yae9zbvO0A0AgGRHEAQA+FBDwyGPPg3XAaWm3ugA1Nu8aRmqItJUHe+g1eub4fXQ0NQfr6rDuw3v69ADqeFOewdfXiikLVUPvjTuqw/EtXlVWkNP68BeIZm3MqU2/T8oYBv6VQf9qdwXx3u8eYb7XfT/r8eZV9GWilSxo+fBmTNnXE+koZueG0OnHomCHC9I1apRM2bMcN8rqNX/vb4O3XT5oSGFXH16qGs9767n+2Qy3NhS+fcBAOBGIAgCAHxsXoBxrcBBB6JqgDpcpcLQ87zqIm/Kinda52u6z9CpK5rO4vXt0Fd9r9P6mqp0H3jTcob+rvq9hv7+Oq1N949+dy8EGW7zVorzwiGFBVpmXeGBNvUo0VdN21OwhBtL/3+q7FG/I2+KpTadp/9nPRf0/6YKOU2nnD17tpsSp35c+r/ypld6wc5wFSjX2gAAAIZDEAQAGHFeIHE9dAAsQ/uTXKuHx7W+prrr7WfihWcKEFRNpaoSbZpK5J32vvc2VWbt3bvX9YvxplB5U2S83k7qs6MVurRSnJqAKzhKxSlVyUAVbwp69u3b5+73w4cPu6o4L7xTsKP7WNPadH9r2qXXcP3qPjJXhz4AAAAjgSAIAOCra01VwbUp0FFYc3Wllfez4SqwVEmkKXvq56RwyOtBo++3bdtmL774oru+t/y6KroUDk2dOtVVqSgsStVpWDeSqrQU9mzdutV27Nhhp0+fdueJ/o80hUsrR02bNs0FQLpvvd5FV1f4AAAAjAaCIAAAUswnCc80VUwrHynYuXrKnqYvqWpF05e8KUwnTpxwzb9VfaTgQpUsCoTmz59v8+bNc6GGqljSkaquVPGzefNme+edd6yurs71cJo4caLdfffd7n6aNWuWm4I3dBWpZGusDAAA0hNBEAAAaeLDpnup+bT60qxYseJK82/1a1KFiwKh3bt3u6lOGzdudPvRlL45c+bYqlWrbNmyZa6fzVimKh/dB6+99ppt377dVVPpPtCqZo899pgtWrTIVQB51T6aGknoAwAAkhFBEAAAGLYBuJpJayqTwo4vfelLrjpIq1opGNq5c6cLhlQVo2bGCxYssLvuusuWLFniKo/GAoVhCsI2bNjgNp32Vstbvny5u190/3j3G8EPAABIBQRBAADgmrwpTap0ycrKclPMNL3swQcfdFOkDhw4YFu2bLG3337bNm3a5KaQqarovvvuc9OjUrGvkBprv/vuu65v0q5du9yKbZoS95WvfMUFXaoEUvDDVC8AAJCKCIIAAMB184Ih8UIfrYClFcrUNPm3v/2tvfHGG/byyy+7qWMKjG655Ra3lH2y0++gi0x56gAAFIVJREFUCqenn37aDh486Hr8rF271vX9UU8kBWGEPwAAINURBAEAgE/MC4Y0Peymm25y06ZUOaOpVC+88IJ973vfcyuOPfDAA7ZmzZqknDamXkhaOe2pp55y093U9PnP/uzP7LbbbnPjZdoXAAAYSwiCAADAiPBCITWdVgPlz33ucy5gWbdunf3jP/6jazSt81VFpOoav2nKlxo/P/nkk/bee++5CqA/+qM/chVA6gVE9Q8AABiLCIIAAMCI8hpPa+rYZz/7WVu5cqWbLqbA5a//+q/d96oamjFjhm9jbGxsdFPAnn32WcvOzrY//MM/dGPV6mcEQAAAYCwjCAIAADeMt9T86tWrXaPl9evXu/DlL//yL91KZA899JBrQD2a1AD6xz/+sVsOftWqVa5KSQ2wFf4QAAEAgLGOIAgAANxwCoQ09eoP/uAPXPjy85//3H7605+6BtOqxpkyZcoNH0NHR4frW/TEE0+4KqA//dM/tTvvvNOi0SgBEAAASBsEQQAAYNQoEKqpqbHvfOc7Lvz5yU9+YidPnrSvfe1rLiC6UcvNNzc3uwDo+eeft2XLlrlAyqsCAgAASCcEQQAAYFQpfNF0ME0L07LsP/rRj+wHP/iBC4QeffRRi0QiI3p758+fd4HT1q1b7Ytf/KI98sgj7vYJgQAAQDoiCAIAAL4IhUK2dOlSN2VMQY2mi/X397tG0iMVBh05csR++MMf2tGjR+1b3/qWawgdDodHZN8AAACpiCAIAAD4qrq62r7+9a+7lca0kpeMRBikptAKgVpbW+3P//zP3WplVAEBAIB0RxAEAAB8N378eHv88cctHo+7MEi9hNTHR02dP4njx4/bz372M+vs7LQ/+ZM/seXLl4/wiAEAAFITQRAAAEgKCoO0gpjCIC0zr+/XrFnzsffT0NDgwqRDhw7ZN7/5TUIgAACAITL8HgAAAIBH4c/nP/95q6qqsmeffda2b9/+sa6vJeIVAm3cuNHWrl1rn/nMZ27QSAEAAFITQRAAAEgqs2fPdqt7dXd327p16+zChQvXdb2+vj574YUX3BLx99xzjz388MMjvgIZAABAqiMIAgAASeemm26y+++/3zV8fuaZZ1ylz0fZs2ePvfbaazZz5kx74IEHrKioaBRGCgAAkFoIggAAQNLREu/qD6Tt3XfftXfeeedDL9/W1mZvvPGGtbS0uOlgU6dOHaWRAgAApBaCIAAAkJTy8vJs2bJlbnrXtm3brLm5+ZqXfeutt2zr1q3u8jSHBgAAuDaCIAAAkLTUL2jp0qW2b98+e/vtt4e9zLlz52zLli0WjUZt5cqVVlBQMMqjBAAASB0EQQAAIGllZ2fb4sWLXXWQqoIuX778vp/39/e7KWE7d+50lUALFizwaaQAAACpgSAIAAAkNTV/1pSvgwcPuilgQ9XV1blqoZqaGluxYoVlZWX5NEoAAIDUQBAEAACSmqqC5s2b56Z8HT582Lq6uq78TN8fPXrUZsyYYVOmTPFxlAAAAKkh5PcAAAAAPkp1dbWr+jl58qTl5ua683p6euz48eMWj8fdKmFaaQwAAAAfjiAIAAAkvbKyMhf27Nq1yw4dOuTOO3PmjAuDFBBp+hgAAAA+GlPDAABAUlPFj5pCjx8/3q0MdurUKevt7bUjR464CqHa2lqrqqrye5gAAAApgYogAACQ1BobG+29995zK4O1t7fb+fPnXVNohUGRSMQ6OzutoaHBKioq/B4qAABA0iMIAgAASa2lpcU2bNhgL7/88pXzNCVMuru77dlnn7Xi4mL76le/6tcQAQAAUgZTwwAAQFKbPHmyzZ071zIzM4f9uVYMmz179iiPCgAAIDURBAEAgKSnpeGv1RC6tLTUNZMGAADARyMIAgAASW/SpEk2ffp0CwQC7zs/GAy6VcO0vDwAAAA+GkEQAABIeuPGjbNp06a5VcOGUgikVcMAAABwfQiCAABAStDUsPnz57/vvPLychcSAQAA4PoQBAEAgJSg6WGqCvKmh+mregfpPAAAAFwfgiAAAJAS8vLy3DQwrzG0ponpdCQS8XlkAAAAqYMgCAAApAxV/8yaNcudVvNolo0HAAD4eAiCAABAypg8ebLrFZSRkWElJSVuAwAAwPUL+T0AAO/X3d3ttng87vdQACApZWdnu2lhpaWlVlBQYE1NTX4PCQCSUjgc/sBqiwBAEAQkmeeee86efPLn1tzQYoEARXsAcLVYrN96+/rsV8+ss9/8er3fwwGApBNP/BuIx+yee++27373u34PB0CSIQgCkkx/f78F+sJWnXWLlWRX+z0cAEhKnbEmi8cHLJrJ1DAAuFpHX6OdbNtuPT09fg8FQBIiCAKSUCSUb/Oi99qMwtv9HgoAAABSzMWuI9YRa/B7GACSFPNOAAAAAAAA0gRBEAAAAAAAQJogCAIAAAAAAEgTBEEAAAAAAABpgiAIAAAAAAAgTRAEAQAAAAAApAmCIAAAAAAAgDRBEAQAAAAAAJAmCIIAAAAAAADSBEEQAAAAAABAmiAIAgAAAAAASBMEQQAAAAAAAGmCIAgAAAAAACBNEAQBAAAAAACkCYIgAAAAAACANEEQBAAAAAAAkCYIggAAAAAAANIEQRAAAAAAAECaIAgCAAAAAABIEyG/BwAAAPwXT/wbTiDx7+PqG+ix/sSWmZFtwYzwpx3aiIrHBxK/6YDps7BAIGB9/V2J7wYsnBhrRoC3RQAAYOzjHQ8AAGmuP95n7X0N1tZX/77zszJyrCA8zsLBnOvel4KWC50H7VzHPqvNu8kqcqaN9HA/Ef2OHX1Nid/xsvX0t1s48bvlhyvsfGKcHbEmm1Kw3ArDlde9P4VJsYFeywgELRjIvIEjBwAAGFkEQQAApDkFI/saX7F3Lz/jKoP6BrqsK9Zqk/OX2d0T/p1VRKZe9750/fruk3a4+XUryhqfFEFQfzxm5zsO2PbLz9rZjt2u9ikSzLdFpQ9YY88Za+o5a5XRmR8rCFJwdq5jv7uOfsdPUjkFAADgB4IgAADSXFYw1+YU32s1eUusd6DTjrRssaMtb1pt/jIryaq27v42F3yoAiYzI8uimSWWHYy6KWAdfY0uSAoEgpYTKkicn39lvwqFumIt1tXfapFggZsq1hlrTnzf4qZhRUPFFgnlWW9/1+/235MYSzSx/2IbiPe7y2ofA/GY+z4aKkrcRqHF4r2/u90OCyXGk5sYj6Z5dSZuK564nCa0ZSd+p0hiPNLUc86FXAqobi5/zCblL3G3FUyMQSGQaP+qFlJFU07idvoTt6EwTPvRbXTEGhP3Q7sbt8470LTRdjf8xqYX3uZuX+PWeHVfqUJI5+n31e+lfWvT9TT+QIAWjQAAwD8EQQAApDkFFwXhChdenG7bYfVdJ606d5HNK17jgo29ja/Yvqb11h1rcyHQvOLVNqvoLqvrPOiqbOq7TlgwI9MFSYtLH7rSb0gh0M6G5+1k23ZbWHK/5YfLbEf9Ojvfsd+FJDOL7kzs5053m7safuOClNLsGltU+qALat65/LQLTRTOtPTW2czCu2xx2UN2ueu47az/tavmUZi0oOS+xLiKbHv9L90Y9XtML1hlc4rvceOo6zhgDd2nbE7RZ1wVUOh3fYt6B7rMflfJ09vfadsuPpG4frutGPcVu9x9IjGmF2xW4Z1WmFVl71x6yi52HXWna3IXugqj+sRlOuubXbhTmFXpqqoudh52v9v8xJgm5s5z+2ztveSmks0qujtx/mctHIj48v8MAAAgBEEAAMAFFU09Z2xf0yvu9MLS+yw3VGyHWjbb3sb1VpO32GYX3ZU4/bLtSXyvsEd9gPoGuu2zNX9lzT3nXTizP5hreZllFov3uQBIlTST8pZaVXSmvVe/zgUyK8Y97kKck23vWHes1S50HbHirIm2rPxLiX2/ZAebN1lVzixX4TMuZ4YtKPmcq8A51b7DVflcSlxeI76z6t/akdYtbquOLrTOviZTE+javGWJ25s9+HvFB1xFkgKl3MzSKyHQcPdAz0Cnq4jS798/0OcqjlT1pMBL1UIKuWrzl7r+QmqC3dx73qYXrHSBj4IiBVkrK7/hpp8da93meitpH22xeptbtDpxHy6inxAAAPAdtckAAMA6+1rsQNNvXSijSqDxOXPUDtk6Y01uCpVCjMqcWTY+OtuFKwpH1Hx5XM50q8nVz2a6AEgNpzWFTNc707478UYjaFPyb3F9etp6L7lwR0GJQidNSWvtu2Tties099bZqbb33HWzgjlu+pemmlUl9jsxd4GVR6ZonS8XJLX3NbopVyfbt7sKIPX76bdeV4lTm7/E5pWsdv2JnEDATe3S9DI1hVZwNWj4VdJ+v35aXCmSC5DKsie76WIKxBR2qUoqJ1ho4YyoFWRVWSgQdvvWdLVTbdvd2DSFzrsN3T+qBCrLrnX3JQAAgJ94NwIAQJpTOHK87S0XdJRHJltp9iRr6DntQgttGYEMa+4558Kb5p46d15ReLy7nsKPBtdw+ZyrpikKTXB9dHJCxa6Rsqphjra8YTMKb3cBT164zFXsaCpXOCNil7qOufCoLHGbs4s+44IXhS4KmhQG6Wfq7aP9a79axcwFMaFCm1aw0jIzwq4vkX5+3N62gPuM6/eNm9XEuTSrxlUSHW99KzGmKjf9THGPgqMrgVBAkVXIevq7rKXnQuJ2G6wv3uN+rqqkW8c9boeaN9mB5o2usig3VJL42YALvDRO7UvTxtRgW9PVstxKawE72LTRjSnAZ28AACBJEAQBAJDm1MPmdPsO1zOnufeC/bbuh+58VcJMyJ1nZZEpdqj5davrPOSqd3Se+u/ktBXa3ob1tvn8j1wYogqfyXnL3HSw/MxSm1qw3O3vbMdeq8iZbhOiC+xy90nb1/Sqqx5SIKMVyVRNpL5BCmfUdLk6d6Fbll3VPsda30zs45wLoCZE59qsojssHIzY4ebNtq/x5cTl89z5XnNoXf/q9bu0Itjcontse/2vbNP5H7oQSVVC6nMUTlzeXS8jaiWJ8dR1HrCdDb92FUQZiX+hQJarYNLvoObRJVkTXT+lvHC528+J1retKGtCYgzzXJNtTWuLJs5XeKQKIO07O5TnwjQAAIBkQBAEAECayw7luuoaBTJDqfJFU8SqEtvZ9t2uB46qXtQTJzuY5wIPVdtc7DrmgpjK6CwryZ5oDd1nXCBTlj3FqgPmqn00fUtTpNRU+ULnQdPsdAUlWno9P1xuZzv2WWvvxcRtFltxVrVd6DpkkcT+FRRVJfarQGZ8dI67rMZVnti3KoXUh0cBjm5/XskaV41z9apcg82bP+fGpzBLjaG9sEYrgamPj6aSqdpIIY8CMa1Qpj5BRdkT3Api6j8UC5W5aXPjojNcddLN5Y/a5e7jlp9Z4QKwisg0971qi1RVlZ/Y35yiu93t6/4AAABIBgRBAACkOYUnWmXrwxQU3/2B81RNU523yG1DqdJHm0dTxDwKc7QNpWBnZuHt7ztPQZAqe4qzJrjwZSiFULX5N7ltKIVE16LgRkGNtg8z46pxeCoi0z9wXnXeQrd51Eep5qr7ojZ/2YfeHgAAwGijThkAACQdVRCVRWrdUvAAAAAYOVQEAQCApKPl6rUBAABgZFERBAAAAAAAkCYIggAAAAAAANIEQRAAAAAAAECaIAgCAAAAAABIEwRBAAAAAAAAaYIgCAAAAAAAIE0QBAEAAAAAAKQJgiAAAAAAAIA0QRAEAAAAAACQJgiCAAAAAAAA0gRBEAAAAAAAQJogCAIAAAAAAEgTBEEAAAAAAABpgiAIAAAAAAAgTRAEAQAAAAAApAmCIAAAAAAAgDQR8nsAAD5oIN5v7X2N1tRz3u+hAAAAIMW09V6yvv7uxKmI30MBkIQIgoAk1BVrtf2tr9m5jn1+DwUAAAAppqu/xeq7T9l0K/J7KACSEEEQkGQqKyttzsLp1tLSkvjugt/DAQAAQIrJSmyFVmPTpk3zeygAkhBBEJBkVq5cacuXL/d7GAAAAEhxwWDQ7yEASEIEQUCSyczMdBsAAAAAACONVcMAAAAAAADSBEEQAAAAAABAmiAIAgAAAAAASBMEQQAAAAAAAGmCIAgAAAAAACBNEAQBAAAAAACkCYIgAAAAAACANEEQBAAAAAAAkCYIggAAAAAAANIEQRAAAAAAAECaIAgCAAAAAABIEwRBAAAAAAAAaYIgCAAAAAAAIE0QBAEAAAAAAKQJgiAAAAAAAIA0QRAEAAAAAACQJgiCAAAAAAAA0gRBEAAAAAAAQJogCAIAAAAAAEgTBEEAAAAAAABpgiAIAAAAAAAgTRAEAQAAAAAApAmCIAAAAAAAgDRBEAQAAAAAAJAmCIIAAAAAAADSBEEQAAAAAABAmiAIAgAAAAAASBMEQQAAAAAAAGnCtyAoEAhYPB736+YBAAAAAAA+sYGBAZdtpBpfgiDdUTk5Odba2urHzQMAAAAAAHwqyjSUbaRaGBTy40YzMjJs2rRptmvXLjtw4ICVlZVZMBj0YygAAAAAAADXrb+/3y5fvmy7d+922YYyjlTiSxAUCoVs7dq19k//9E/2wx/+0CZMmGCZmZl+DAUAAAAAAOC69fX12dmzZ62pqcm+9a1vuYwjlQTiPjXq6ejosJdeeslVBbW3t7u5dQAAAAAAAMlMFUC5ubm2YMECW7NmjUWjUb+H9LH4FgSJbrq5udlaWlosFov5NQwAAAAAAIDrogqggoICKywsTLn+QOJrEAQAAAAAAIDRk1odjQAAAAAAAPCJEQQBAAAAAACkCYIgAAAAAACANEEQBAAAAAAAkCYIggAAAAAAANIEQRAAAAAAAECaIAgCAAAAAABIEwRBAAAAAAAAaYIgCAAAAAAAIE0QBAEAAAAAAKQJgiAAAAAAAIA0QRAEAAAAAACQJgiCAAAAAAAA0gRBEAAAAAAAQJogCAIAAAAAAEgTBEEAAAAAAABpgiAIAAAAAAAgTRAEAQAAAAAApAmCIAAAAAAAgDRBEAQAAAAAAJAm/j9AN3OgOGFLEQAAAABJRU5ErkJggg==;" vertex="1" parent="1">
          <mxGeometry x="80" y="200.02" width="980.44" height="559.98" as="geometry" />
        </mxCell>
      </root>
    </mxGraphModel>
  </diagram>
</mxfile>
